<?xml version="1.0" encoding="UTF-8" standalone="no"?>
<!DOCTYPE svg PUBLIC "-//W3C//DTD SVG 1.1//EN" "http://www.w3.org/Graphics/SVG/1.1/DTD/svg11.dtd">
<svg width="100%" height="100%" viewBox="0 0 80 80" version="1.1" xmlns="http://www.w3.org/2000/svg" xmlns:xlink="http://www.w3.org/1999/xlink" xml:space="preserve" style="fill-rule:evenodd;clip-rule:evenodd;stroke-linejoin:round;stroke-miterlimit:1.41421;">
    <g transform="matrix(1,0,0,1,-40,-40)">
        <g id="RadiobuttonSelect" transform="matrix(1.05273,0,0,1.05273,-566.039,-790.66)">
            <g transform="matrix(0.364445,-0.175775,0.181794,0.352379,119.824,929.112)">
                <path d="M1200.93,222.499C1209.87,222.151 1263.7,250.039 1269.44,255.495C1275.19,260.952 1288.53,323.945 1286.37,329.638C1284.2,335.33 1245.88,386.01 1238.95,389.095C1232.03,392.181 1170.49,393.243 1162.9,389.095C1155.31,384.948 1116.68,340.259 1115.49,329.638C1114.29,319.016 1124.35,264.532 1132.41,255.495C1140.47,246.459 1191.98,222.846 1200.93,222.499Z" style="fill-opacity:0.313726;"/>
            </g>
            <g transform="matrix(0.347078,-0.167399,0.173131,0.335587,143.342,919.79)">
                <path d="M1200.93,222.499C1209.87,222.151 1263.7,250.039 1269.44,255.495C1275.19,260.952 1288.53,323.945 1286.37,329.638C1284.2,335.33 1245.88,386.01 1238.95,389.095C1232.03,392.181 1170.49,393.243 1162.9,389.095C1155.31,384.948 1116.68,340.259 1115.49,329.638C1114.29,319.016 1124.35,264.532 1132.41,255.495C1140.47,246.459 1191.98,222.846 1200.93,222.499Z"/>
            </g>
            <g transform="matrix(0.263458,-0.127068,0.122524,0.237494,257.802,898.408)">
                <path d="M1200.93,222.499C1209.87,222.151 1263.7,250.039 1269.44,255.495C1275.19,260.952 1288.53,323.945 1286.37,329.638C1284.2,335.33 1245.88,386.01 1238.95,389.095C1232.03,392.181 1170.49,393.243 1162.9,389.095C1155.31,384.948 1116.68,340.259 1115.49,329.638C1114.29,319.016 1124.35,264.532 1132.41,255.495C1140.47,246.459 1191.98,222.846 1200.93,222.499Z" style="fill:rgb(67,67,67);fill-opacity:0.403922;"/>
            </g>
            <g transform="matrix(0.147824,-0.0744106,0.0616412,0.122457,326.367,876.321)">
                <ellipse cx="1732.92" cy="766.779" rx="12.199" ry="6.406" style="fill:rgb(185,193,203);fill-opacity:0.282353;"/>
            </g>
            <g transform="matrix(0.207075,0,0,0.216027,328.317,748.763)">
                <path d="M1366.02,236.592C1364.3,238.102 1329.79,245.462 1324.45,249.134C1319.12,252.806 1288.75,276.31 1287.19,274.349C1285.63,272.388 1312.48,241.848 1323.27,236.175C1331.32,231.944 1368.68,234.252 1366.02,236.592Z" style="fill:rgb(185,193,203);fill-opacity:0.4;"/>
            </g>
            <g transform="matrix(0.966451,0,-1.41274e-17,0.986949,-314.744,186.523)">
                <g transform="matrix(0.671126,0.127744,-0.143668,0.723756,1034.01,-1124.52)">
                    <ellipse cx="381.931" cy="2391.69" rx="7.681" ry="7.422" style="fill:rgb(134,164,174);"/>
                </g>
                <g transform="matrix(0.671126,-0.127744,0.143668,0.723756,374.626,-1026.94)">
                    <ellipse cx="381.931" cy="2391.69" rx="7.681" ry="7.422" style="fill:rgb(134,164,174);"/>
                </g>
            </g>
        </g>
    </g>
</svg>
