<?xml version="1.0" encoding="UTF-8" standalone="no"?>
<!DOCTYPE svg PUBLIC "-//W3C//DTD SVG 1.1//EN" "http://www.w3.org/Graphics/SVG/1.1/DTD/svg11.dtd">
<svg width="100%" height="100%" viewBox="0 0 150 147" version="1.1" xmlns="http://www.w3.org/2000/svg" xmlns:xlink="http://www.w3.org/1999/xlink" xml:space="preserve" style="fill-rule:evenodd;clip-rule:evenodd;stroke-linejoin:round;stroke-miterlimit:1.41421;">
    <g transform="matrix(1,0,0,1,-5,-7)">
        <g id="RedRoundButton" transform="matrix(1.00006,0,0,1.00006,-961.01,-757.396)">
            <g transform="matrix(0.756768,-0.377494,0.377494,0.756768,15.4982,1053.56)">
                <path d="M1200.93,222.499C1203.73,222.39 1210.95,225.057 1219.71,228.938C1228.61,232.877 1236.05,238.89 1245.14,243.697C1255.65,249.259 1267.33,253.486 1269.44,255.495C1271.09,257.063 1273.37,263.379 1275.73,271.722C1276.58,274.753 1275.47,279.047 1276.32,282.483C1277.31,286.475 1280.26,289.656 1281.16,293.813C1284.8,310.502 1287.42,326.865 1286.37,329.638C1285.24,332.602 1274.31,347.766 1263.11,362.056C1260.36,365.563 1254.98,368.511 1252.34,371.72C1245.09,380.542 1241.38,388.011 1238.95,389.095C1236.99,389.97 1230.64,390.682 1222.37,391.159C1217.72,391.427 1213.41,388.732 1207.98,388.839C1204.41,388.909 1199.82,391.83 1196.24,391.821C1188.39,391.8 1180.8,391.581 1174.78,391.125C1168.95,390.683 1164.59,390.018 1162.9,389.095C1160.81,387.954 1156.37,383.742 1151.01,378.014C1148.23,375.047 1145.2,371.673 1142.13,368.109C1139.52,365.09 1136.47,358.306 1133.92,355.146C1129.39,349.555 1125.55,347.576 1122.23,342.679C1118.38,336.996 1115.78,332.27 1115.49,329.638C1115.17,326.814 1115.64,320.889 1116.67,313.543C1117.42,308.104 1120.54,302.912 1121.8,296.595C1123.15,289.792 1122.68,281.849 1124.36,275.668C1126.95,266.184 1129.79,258.435 1132.41,255.495C1135.17,252.394 1143.06,247.577 1152.58,242.572C1154.6,241.513 1159.4,242.315 1161.53,241.253C1164.66,239.692 1165.17,236.275 1168.37,234.787C1182.68,228.133 1196.66,222.665 1200.93,222.499Z" style="fill:rgb(88,17,33);"/>
                <clipPath id="_clip1">
                    <path d="M1200.93,222.499C1203.73,222.39 1210.95,225.057 1219.71,228.938C1228.61,232.877 1236.05,238.89 1245.14,243.697C1255.65,249.259 1267.33,253.486 1269.44,255.495C1271.09,257.063 1273.37,263.379 1275.73,271.722C1276.58,274.753 1275.47,279.047 1276.32,282.483C1277.31,286.475 1280.26,289.656 1281.16,293.813C1284.8,310.502 1287.42,326.865 1286.37,329.638C1285.24,332.602 1274.31,347.766 1263.11,362.056C1260.36,365.563 1254.98,368.511 1252.34,371.72C1245.09,380.542 1241.38,388.011 1238.95,389.095C1236.99,389.97 1230.64,390.682 1222.37,391.159C1217.72,391.427 1213.41,388.732 1207.98,388.839C1204.41,388.909 1199.82,391.83 1196.24,391.821C1188.39,391.8 1180.8,391.581 1174.78,391.125C1168.95,390.683 1164.59,390.018 1162.9,389.095C1160.81,387.954 1156.37,383.742 1151.01,378.014C1148.23,375.047 1145.2,371.673 1142.13,368.109C1139.52,365.09 1136.47,358.306 1133.92,355.146C1129.39,349.555 1125.55,347.576 1122.23,342.679C1118.38,336.996 1115.78,332.27 1115.49,329.638C1115.17,326.814 1115.64,320.889 1116.67,313.543C1117.42,308.104 1120.54,302.912 1121.8,296.595C1123.15,289.792 1122.68,281.849 1124.36,275.668C1126.95,266.184 1129.79,258.435 1132.41,255.495C1135.17,252.394 1143.06,247.577 1152.58,242.572C1154.6,241.513 1159.4,242.315 1161.53,241.253C1164.66,239.692 1165.17,236.275 1168.37,234.787C1182.68,228.133 1196.66,222.665 1200.93,222.499Z"/>
                </clipPath>
                <g clip-path="url(#_clip1)">
                    <g transform="matrix(1.05812,0.527817,-0.527817,1.05812,539.689,-1122.98)">
                        <path d="M967.758,819.92C969.456,820.989 977.405,821.012 977.405,821.012C977.405,821.012 1101.75,824.037 1105.82,822.775C1109.88,821.512 1122.63,815.982 1122.63,815.982C1122.63,815.982 1099.07,762.616 1079.58,758.063C1060.1,753.511 999.159,753.785 999.159,753.785L963.334,792.442C963.334,792.442 966.06,818.851 967.758,819.92Z" style="fill:rgb(109,18,39);"/>
                    </g>
                </g>
            </g>
            <g transform="matrix(0.659679,-0.321111,0.329064,0.643735,146.943,1020.56)">
                <path d="M1200.93,222.499C1203.86,222.385 1211.63,225.31 1220.94,229.486C1228.44,232.848 1233.68,237.332 1241.48,241.381C1253.51,247.629 1267.1,253.271 1269.44,255.495C1270.77,256.753 1273.21,262.236 1275.06,268.199C1276.78,273.745 1276.57,279.39 1278.27,286.66C1279.7,292.78 1282.36,299.267 1283.48,305.133C1285.81,317.32 1287.18,327.504 1286.37,329.638C1285.81,331.113 1280,336.813 1275.75,342.722C1272.18,347.696 1270.54,352.467 1265.89,358.478C1261.15,364.607 1258,367.016 1253.62,372.203C1247.71,379.199 1241.03,388.169 1238.95,389.095C1237.89,389.568 1232.85,389.365 1229.62,389.732C1226.2,390.118 1224.49,391.067 1219.55,391.309C1215.51,391.507 1207,389.693 1202.5,389.778C1192.84,389.959 1188.01,392.615 1179.85,392.169C1172.1,391.745 1164.95,390.212 1162.9,389.095C1161.25,388.194 1158.14,385.38 1154.26,381.416C1150.02,377.076 1148.13,375.462 1142.97,369.372C1140.21,366.101 1134.73,355.884 1132.11,352.554C1128.06,347.401 1123.78,345.099 1120.95,340.754C1117.81,335.935 1115.75,331.967 1115.49,329.638C1115.12,326.377 1115.81,318.982 1117.18,310.037C1117.86,305.618 1120.34,301.736 1121.3,296.872C1122.28,291.945 1121.73,286.034 1122.9,281.294C1123.95,277.046 1126.7,273.919 1127.83,270.314C1129.89,263.77 1130.39,257.754 1132.41,255.495C1135.46,252.07 1144.76,246.551 1155.62,240.998C1160.1,238.705 1166.4,238.077 1171.08,235.917C1178.47,232.514 1184.15,227.785 1189.92,225.643C1195.02,223.752 1198.98,222.574 1200.93,222.499Z" style="fill:rgb(160,31,51);"/>
                <clipPath id="_clip2">
                    <path d="M1200.93,222.499C1203.86,222.385 1211.63,225.31 1220.94,229.486C1228.44,232.848 1233.68,237.332 1241.48,241.381C1253.51,247.629 1267.1,253.271 1269.44,255.495C1270.77,256.753 1273.21,262.236 1275.06,268.199C1276.78,273.745 1276.57,279.39 1278.27,286.66C1279.7,292.78 1282.36,299.267 1283.48,305.133C1285.81,317.32 1287.18,327.504 1286.37,329.638C1285.81,331.113 1280,336.813 1275.75,342.722C1272.18,347.696 1270.54,352.467 1265.89,358.478C1261.15,364.607 1258,367.016 1253.62,372.203C1247.71,379.199 1241.03,388.169 1238.95,389.095C1237.89,389.568 1232.85,389.365 1229.62,389.732C1226.2,390.118 1224.49,391.067 1219.55,391.309C1215.51,391.507 1207,389.693 1202.5,389.778C1192.84,389.959 1188.01,392.615 1179.85,392.169C1172.1,391.745 1164.95,390.212 1162.9,389.095C1161.25,388.194 1158.14,385.38 1154.26,381.416C1150.02,377.076 1148.13,375.462 1142.97,369.372C1140.21,366.101 1134.73,355.884 1132.11,352.554C1128.06,347.401 1123.78,345.099 1120.95,340.754C1117.81,335.935 1115.75,331.967 1115.49,329.638C1115.12,326.377 1115.81,318.982 1117.18,310.037C1117.86,305.618 1120.34,301.736 1121.3,296.872C1122.28,291.945 1121.73,286.034 1122.9,281.294C1123.95,277.046 1126.7,273.919 1127.83,270.314C1129.89,263.77 1130.39,257.754 1132.41,255.495C1135.46,252.07 1144.76,246.551 1155.62,240.998C1160.1,238.705 1166.4,238.077 1171.08,235.917C1178.47,232.514 1184.15,227.785 1189.92,225.643C1195.02,223.752 1198.98,222.574 1200.93,222.499Z"/>
                </clipPath>
                <g clip-path="url(#_clip2)">
                    <g transform="matrix(1.21385,0.605499,-0.620495,1.24392,454.884,-1358.46)">
                        <path d="M977.921,821.189C977.921,821.189 980.384,829.039 986.358,823.749C992.333,818.459 1017.62,788.507 1034.71,788.507C1051.8,788.507 1070.98,799.886 1078.32,806.773C1085.67,813.66 1095.74,822.911 1095.74,822.911C1095.74,822.911 1106.14,825.321 1110.55,817.975C1114.96,810.63 1073.93,771.51 1073.93,771.51L1010.11,772.731L974.407,801.854L977.921,821.189Z" style="fill:rgb(190,50,64);"/>
                    </g>
                </g>
            </g>
            <g transform="matrix(0.576889,-0.278239,0.287766,0.55779,259.132,996.024)">
                <path d="M1200.93,222.499C1205.93,222.304 1224.96,230.935 1241.77,239.538C1245.16,241.275 1246.87,245.981 1249.95,247.643C1254.11,249.884 1259.45,249.02 1262.46,250.813C1265.94,252.884 1268.43,254.536 1269.44,255.495C1271.87,257.804 1275.66,270.416 1279.07,284.629C1279.98,288.432 1279.73,292.735 1280.55,296.6C1281.44,300.808 1283.39,304.569 1284.1,308.439C1286.04,319.125 1287.1,327.7 1286.37,329.638C1284.2,335.33 1245.88,386.01 1238.95,389.095C1235.32,390.711 1216.72,391.772 1198.73,391.821C1195.58,391.829 1193.22,389.37 1190.19,389.314C1187.51,389.264 1184.13,391.625 1181.67,391.521C1172.47,391.133 1165.2,390.354 1162.9,389.095C1160.47,387.766 1154.85,382.274 1148.3,375.075C1145.31,371.798 1143.33,367.203 1140.17,363.451C1136.35,358.912 1131.37,355.159 1127.99,350.672C1121.12,341.58 1115.91,333.433 1115.49,329.638C1115.09,326.153 1115.91,317.945 1117.47,308.17C1118.22,303.508 1120.37,299.218 1121.4,294.186C1123.01,286.352 1123.67,277.754 1125.66,271.142C1127.88,263.764 1130.22,257.951 1132.41,255.495C1134.63,253.008 1140.13,249.417 1147.14,245.511C1150.9,243.419 1156.01,242.164 1160.35,240.012C1163.42,238.491 1165.63,236.057 1168.75,234.61C1182.93,228.036 1196.69,222.663 1200.93,222.499Z" style="fill:url(#_Linear3);"/>
            </g>
            <g transform="matrix(0.766721,-0.641981,0.641981,0.766721,-586.794,-377.551)">
                <path d="M408.575,1962.92L420.804,1972.69L430.162,1991.68L420.021,1974.33L404.618,1967.32L408.575,1962.92Z" style="fill:rgb(100,15,34);"/>
            </g>
            <g transform="matrix(0.897953,-0.440091,0.440091,0.897953,-287.194,-767.912)">
                <path d="M553.804,2041.01L555.807,2034.51L546.683,2036.04L531.222,2035.31L547.542,2040.22L553.804,2041.01Z" style="fill:rgb(125,15,40);"/>
            </g>
            <g transform="matrix(0.420451,-0.211643,0.0703722,0.139802,291.551,1133.97)">
                <path d="M1741.89,753.149C1748.62,753.149 1749.09,768.247 1749.09,771.783C1749.09,775.318 1739.66,773.185 1732.92,773.185C1726.19,773.185 1712.29,774.851 1712.29,771.315C1712.29,767.78 1735.16,753.149 1741.89,753.149Z" style="fill:rgb(225,131,146);"/>
            </g>
            <g transform="matrix(0.451241,0,0,0.470749,416.636,673.414)">
                <path d="M1367.48,235.61C1366.58,237.673 1331.69,245.419 1326.37,249.11C1316.46,255.987 1297.82,273.457 1295.88,271.83C1291.82,268.412 1311.86,240.6 1323.27,236.175C1337.39,230.698 1369.26,231.539 1367.48,235.61Z" style="fill:rgb(227,135,150);"/>
            </g>
            <g transform="matrix(0.427882,0.223142,0.328302,-0.681913,680.415,1232.7)">
                <path d="M325.794,721.659L322.564,714.699L317.224,703.302L315.078,698.754L315.01,698.611L315.066,698.755L316.859,703.3L321.367,714.626L324.133,721.502L326.988,728.52L328.094,731.178L328.087,731.177L324.452,734.618L324.375,734.603L321.579,737.209L319.05,739.59L316.634,741.888L314.203,744.218L314.164,744.263L314.12,744.315L314.063,744.419L314.033,744.529L314.033,744.529L314.031,744.64L314.057,744.751L314.111,744.858L317.276,749.852L320.996,755.651L323.21,759.079L323.215,759.079L322.694,761.469L322.761,761.466L320.731,772.463L319.173,781.115L319.147,781.26L319.184,781.115L321.419,772.434L324.225,761.335L324.773,759.117L324.783,759.032L324.771,758.948L324.736,758.865L322.867,755.675L319.498,749.98L319.588,749.978L316.349,744.727L316.353,744.727L316.638,744.458L316.639,744.459L319.156,742.102L321.576,739.821L324.066,737.447L326.778,734.838L330.025,731.681L330.105,731.585L330.158,731.482L330.182,731.374L330.176,731.265L330.142,731.157L329.071,728.79L325.794,721.659Z" style="fill:rgb(125,15,40);"/>
            </g>
            <g transform="matrix(-1.03848,0,1.77639e-49,1,1661.36,251.359)">
                <path d="M644.615,547.689L634.408,559.724L634.373,559.773L634.345,559.827L634.325,559.885L634.313,559.944L634.508,559.973L631.814,579.594L631.817,579.596L614.162,587.747L632.076,579.928L632.106,579.913L632.133,579.892L632.157,579.866L632.157,579.866L632.176,579.837L632.191,579.804L632.199,579.769L635.085,560.186L635.086,560.187L645.329,548.356L645.299,547.768L645.405,547.646L644.615,547.689Z" style="fill:rgb(125,15,40);"/>
            </g>
            <g transform="matrix(-0.783645,0.670554,0.677181,0.745739,823.815,1.44813)">
                <path d="M414.078,802.095L414.115,802.096L414.152,802.092L414.152,802.093L414.188,802.085L429.859,797.366L429.859,797.369L438.863,801.85L439.48,801.633L439.57,801.678L439.291,800.904L430.079,796.429L430.013,796.403L429.944,796.388L429.875,796.383L429.805,796.388L429.738,796.405L429.789,796.563L414.051,801.475L414.051,801.477L383.411,799.306L414.078,802.095Z" style="fill:rgb(100,15,34);"/>
            </g>
            <g transform="matrix(-0.711694,-0.382649,0.386583,-0.786859,1181.03,1701.49)">
                <path d="M563.709,800.851L563.709,800.854L552.524,803.206L551.939,802.86L551.723,802.905L552.295,802.11L563.66,799.927L563.729,799.918L563.798,799.919L563.866,799.928L563.931,799.946L587.921,808.057L563.709,800.851Z" style="fill:rgb(100,15,34);"/>
            </g>
        </g>
    </g>
    <defs>
        <linearGradient id="_Linear3" x1="0" y1="0" x2="1" y2="0" gradientUnits="userSpaceOnUse" gradientTransform="matrix(-72.2671,144.873,-144.875,-72.2664,1233.78,239.962)"><stop offset="0" style="stop-color:rgb(158,30,50);stop-opacity:1"/><stop offset="1" style="stop-color:rgb(200,54,67);stop-opacity:1"/></linearGradient>
    </defs>
</svg>
