<?xml version="1.0" encoding="UTF-8" standalone="no"?>
<!DOCTYPE svg PUBLIC "-//W3C//DTD SVG 1.1//EN" "http://www.w3.org/Graphics/SVG/1.1/DTD/svg11.dtd">
<svg width="100%" height="100%" viewBox="0 0 280 271" version="1.1" xmlns="http://www.w3.org/2000/svg" xmlns:xlink="http://www.w3.org/1999/xlink" xml:space="preserve" style="fill-rule:evenodd;clip-rule:evenodd;stroke-linejoin:round;stroke-miterlimit:1.41421;">
    <g transform="matrix(1,0,0,1,-10,-15)">
        <g transform="matrix(2.90396,0,0,2.92322,4.80211,3.75404)">
            <g id="AddFriendIcon" transform="matrix(1.39668,0,0,1.32496,-1517.12,-329.183)">
                <path d="M1129.92,297.798C1129.99,297.799 1130.06,297.8 1130.12,297.8C1133.87,297.8 1140.44,295.66 1145.22,293.441C1146.89,294.733 1148.2,295.932 1148.84,296.776C1151.17,299.837 1154.5,309.309 1153.98,312.837C1153.2,318.203 1132.81,319.555 1118.91,317.767C1125.51,313.937 1129.94,306.799 1129.94,298.633C1129.94,298.354 1129.94,298.075 1129.92,297.798ZM1107.83,280.839C1117.65,280.839 1125.62,288.812 1125.62,298.633C1125.62,308.454 1117.65,316.428 1107.83,316.428C1098.01,316.428 1090.03,308.454 1090.03,298.633C1090.03,288.812 1098.01,280.839 1107.83,280.839ZM1116.27,295.907C1116.72,296.032 1117.09,296.344 1117.36,296.844C1117.63,297.344 1117.82,297.886 1117.92,298.469C1118.03,299.052 1118.02,299.615 1117.89,300.157C1117.77,300.698 1117.52,301.052 1117.14,301.219C1116.85,301.302 1116.08,301.365 1114.83,301.407C1113.58,301.448 1112.14,301.448 1110.52,301.407C1110.39,303.24 1110.27,304.834 1110.14,306.188C1110.02,307.542 1109.87,308.323 1109.7,308.532C1109.33,309.115 1108.8,309.469 1108.11,309.594C1107.42,309.719 1106.93,309.74 1106.64,309.657C1106.52,309.657 1106.39,309.417 1106.27,308.938C1106.14,308.459 1106.02,307.834 1105.89,307.063C1105.77,306.292 1105.65,305.407 1105.55,304.407C1105.44,303.407 1105.35,302.365 1105.27,301.282C1103.56,301.24 1102.04,301.157 1100.7,301.032C1099.37,300.907 1098.6,300.74 1098.39,300.532C1098.14,300.407 1097.96,300.219 1097.86,299.969C1097.76,299.719 1097.69,299.459 1097.67,299.188C1097.65,298.917 1097.66,298.646 1097.7,298.375C1097.75,298.104 1097.79,297.886 1097.83,297.719C1097.91,297.511 1098.65,297.313 1100.05,297.125C1101.44,296.938 1103.08,296.74 1104.95,296.532C1104.87,294.948 1104.83,293.552 1104.83,292.344C1104.83,291.136 1104.87,290.365 1104.95,290.032C1105.08,289.532 1105.41,289.094 1105.95,288.719C1106.5,288.344 1107.09,288.052 1107.74,287.844C1108.38,287.636 1108.99,287.542 1109.55,287.563C1110.11,287.584 1110.47,287.761 1110.64,288.094C1110.72,288.344 1110.78,289.229 1110.8,290.75C1110.82,292.271 1110.79,294.032 1110.7,296.032C1112.04,295.948 1113.21,295.886 1114.24,295.844C1115.26,295.802 1115.93,295.823 1116.27,295.907ZM1112.91,277.108C1112.42,275.466 1112.13,274.032 1112.16,273.204C1112.25,270.489 1115.36,261.631 1117.67,259.524C1119.99,257.416 1127.13,253.857 1130.99,253.857C1134.86,253.857 1142.98,258.03 1144.31,259.524C1145.64,261.017 1150.24,270.264 1149.83,273.204C1149.41,276.144 1146.29,284.8 1144.31,286.885C1142.33,288.969 1134.64,292.551 1130.99,292.551C1130.41,292.551 1129.74,292.453 1129.01,292.281C1126.76,284.761 1120.61,278.92 1112.91,277.108Z" style="fill:white;"/>
            </g>
        </g>
    </g>
</svg>
