<?xml version="1.0" encoding="UTF-8" standalone="no"?>
<!DOCTYPE svg PUBLIC "-//W3C//DTD SVG 1.1//EN" "http://www.w3.org/Graphics/SVG/1.1/DTD/svg11.dtd">
<svg width="100%" height="100%" viewBox="0 0 226 307" version="1.1" xmlns="http://www.w3.org/2000/svg" xmlns:xlink="http://www.w3.org/1999/xlink" xml:space="preserve" style="fill-rule:evenodd;clip-rule:evenodd;stroke-linejoin:round;stroke-miterlimit:1.41421;">
    <g transform="matrix(1,0,0,1,-37,4)">
        <g transform="matrix(2.90396,0,0,2.92322,4.80211,3.75404)">
            <g id="AvatarIcon" transform="matrix(1.56251,0,0,1.56251,-2757.18,-134.797)">
                <g transform="matrix(1.13744,0,0,1,-247.813,0)">
                    <path d="M1785.78,124.738C1789.54,126.699 1794.47,128.738 1797.39,128.738C1800.36,128.738 1805.57,126.81 1809.35,124.809C1810.67,125.974 1811.71,127.054 1812.22,127.816C1814.07,130.574 1816.7,139.11 1816.29,142.29C1815.36,149.544 1779.47,148.659 1778.44,142.29C1778.04,139.779 1781,129.456 1783.11,127.232C1783.65,126.65 1784.6,125.75 1785.78,124.738Z" style="fill:white;"/>
                </g>
                <g transform="matrix(0.818799,0,0,0.841131,323.076,17.4592)">
                    <path d="M1800.58,85.214C1804.83,85.214 1813.77,89.685 1815.24,91.285C1816.71,92.886 1821.77,102.793 1821.31,105.943C1820.85,109.093 1817.42,118.368 1815.24,120.601C1813.06,122.835 1804.6,126.673 1800.58,126.673C1796.57,126.673 1788.4,122.463 1785.92,120.601C1783.44,118.74 1779.75,108.853 1779.85,105.943C1779.95,103.034 1783.38,93.543 1785.92,91.285C1788.47,89.027 1796.33,85.214 1800.58,85.214Z" style="fill:white;"/>
                </g>
            </g>
        </g>
    </g>
</svg>
