<?xml version="1.0" encoding="UTF-8" standalone="no"?>
<!DOCTYPE svg PUBLIC "-//W3C//DTD SVG 1.1//EN" "http://www.w3.org/Graphics/SVG/1.1/DTD/svg11.dtd">
<svg width="100%" height="100%" viewBox="0 0 292 143" version="1.1" xmlns="http://www.w3.org/2000/svg" xmlns:xlink="http://www.w3.org/1999/xlink" xml:space="preserve" style="fill-rule:evenodd;clip-rule:evenodd;stroke-linejoin:round;stroke-miterlimit:1.41421;">
    <g transform="matrix(1,0,0,1,-4,-79)">
        <g id="BarIcon" transform="matrix(2.26038,0,0,2.26038,-3392.01,-1200.26)">
            <path d="M1548.58,586.248C1544.24,579.094 1542.1,568.678 1543.38,567.79C1544.7,566.872 1549.4,575.891 1557.71,580.05C1560.36,579.005 1563.24,578.415 1566.26,578.415C1569.89,578.415 1573.36,579.264 1576.52,580.726C1584.84,576.667 1589.11,567.329 1590.51,568.262C1591.9,569.194 1590.18,580.611 1585.83,587.748C1587.16,589.272 1588.32,590.921 1589.27,592.643C1597.44,593.416 1606.57,581.263 1606.18,571.094C1619.26,577.023 1628.23,584.578 1626.69,601.731C1618.72,594.393 1607.47,600.484 1603.02,610.259C1600.69,604.53 1597.52,600.53 1591.99,600.629C1592.09,601.307 1592.14,601.985 1592.16,602.66C1592.42,610.964 1589.35,617.416 1580.72,620.338C1579.4,622.601 1576.5,627.238 1575.06,626.982C1573.82,626.761 1572.91,623.882 1572.42,621.904C1570.69,622.034 1568.83,622.077 1566.83,622.03C1565.03,621.988 1563.35,621.885 1561.78,621.723C1561.42,623.7 1560.67,626.755 1559.41,626.982C1557.87,627.26 1554.27,621.798 1553.02,619.828C1544.93,616.816 1542.07,610.858 1541.83,602.66C1541.81,601.984 1541.82,601.306 1541.88,600.628C1536.43,600.592 1533.29,604.574 1530.98,610.259C1526.52,600.484 1515.28,594.393 1507.31,601.731C1505.76,584.578 1514.74,577.023 1527.81,571.094C1527.43,581.004 1536.1,592.797 1544.1,592.678C1545.23,590.36 1546.75,588.177 1548.58,586.248ZM1556.64,595.016C1558.89,595.016 1560.71,596.686 1560.71,598.742C1560.71,600.799 1558.89,602.469 1556.64,602.469C1554.4,602.469 1552.58,600.799 1552.58,598.742C1552.58,596.686 1554.4,595.016 1556.64,595.016ZM1577.35,594.956C1579.6,594.956 1581.42,596.626 1581.42,598.682C1581.42,600.739 1579.6,602.409 1577.35,602.409C1575.11,602.409 1573.28,600.739 1573.28,598.682C1573.28,596.626 1575.11,594.956 1577.35,594.956Z" style="fill:white;"/>
        </g>
    </g>
</svg>
