<?xml version="1.0" encoding="UTF-8" standalone="no"?>
<!DOCTYPE svg PUBLIC "-//W3C//DTD SVG 1.1//EN" "http://www.w3.org/Graphics/SVG/1.1/DTD/svg11.dtd">
<svg width="100%" height="100%" viewBox="0 0 302 148" version="1.1" xmlns="http://www.w3.org/2000/svg" xmlns:xlink="http://www.w3.org/1999/xlink" xml:space="preserve" style="fill-rule:evenodd;clip-rule:evenodd;stroke-linejoin:round;stroke-miterlimit:1.41421;">
    <g transform="matrix(1,0,0,1,-9,-80)">
        <g id="BatIconAngry" transform="matrix(3.31866,0,0,3.31866,-4094.69,-810.869)">
            <path d="M1265.99,281.663C1262.91,276.594 1261.4,269.214 1262.3,268.584C1263.24,267.934 1266.57,274.324 1272.46,277.271C1274.34,276.531 1276.38,276.113 1278.52,276.113C1281.09,276.113 1283.54,276.714 1285.78,277.751C1291.68,274.874 1294.71,268.258 1295.7,268.919C1296.69,269.579 1295.46,277.669 1292.38,282.726C1293.33,283.806 1294.15,284.974 1294.82,286.194C1300.61,286.742 1307.08,278.131 1306.8,270.925C1316.07,275.127 1322.43,280.48 1321.33,292.633C1315.68,287.434 1307.72,291.75 1304.56,298.676C1302.91,294.617 1300.67,291.782 1296.75,291.853C1296.82,292.333 1296.86,292.813 1296.87,293.292C1297.05,299.176 1294.87,303.747 1288.76,305.818C1287.82,307.421 1285.77,310.707 1284.75,310.525C1283.87,310.369 1283.22,308.329 1282.88,306.928C1281.65,307.019 1280.34,307.05 1278.92,307.017C1277.64,306.987 1276.45,306.914 1275.34,306.799C1275.09,308.2 1274.56,310.364 1273.66,310.525C1272.57,310.722 1270.02,306.852 1269.14,305.457C1263.4,303.322 1261.38,299.101 1261.2,293.292C1261.19,292.813 1261.2,292.332 1261.24,291.852C1257.38,291.826 1255.15,294.648 1253.52,298.676C1250.36,291.75 1242.39,287.434 1236.74,292.633C1235.65,280.48 1242.01,275.127 1251.27,270.925C1251.01,277.947 1257.14,286.303 1262.81,286.219C1263.61,284.577 1264.69,283.03 1265.99,281.663ZM1267.66,290.534C1267.45,291.113 1267.33,291.742 1267.33,292.398C1267.33,295.307 1269.62,297.669 1272.44,297.669C1274.98,297.669 1277.09,295.746 1277.48,293.234C1273.36,293.005 1269.81,291.984 1267.66,290.534ZM1290.49,290.742C1288.25,292.125 1284.69,293.078 1280.6,293.253C1281,295.756 1283.1,297.669 1285.64,297.669C1288.46,297.669 1290.75,295.307 1290.75,292.398C1290.75,291.819 1290.65,291.262 1290.49,290.742Z" style="fill:white;"/>
        </g>
    </g>
</svg>
