<?xml version="1.0" encoding="UTF-8" standalone="no"?>
<!DOCTYPE svg PUBLIC "-//W3C//DTD SVG 1.1//EN" "http://www.w3.org/Graphics/SVG/1.1/DTD/svg11.dtd">
<svg width="100%" height="100%" viewBox="0 0 224 247" version="1.1" xmlns="http://www.w3.org/2000/svg" xmlns:xlink="http://www.w3.org/1999/xlink" xml:space="preserve" style="fill-rule:evenodd;clip-rule:evenodd;stroke-linejoin:round;stroke-miterlimit:1.41421;">
    <g transform="matrix(1,0,0,1,-38,-27)">
        <g id="BookIcon" transform="matrix(3.81608,0,0,3.81608,-6594.5,-1323.09)">
            <path d="M1750.28,413.949L1744.59,414.053L1742.06,411.805L1742.06,404.147L1742.69,396.118L1742.06,382.159L1742.33,372.555L1742.06,364.486L1742.06,360.237L1744.59,357.988L1750.28,358.117L1750.46,368.588L1750.7,379.047L1750.7,393.462L1750.46,405.303L1750.28,413.949ZM1779,357.988L1790.18,357.988L1792.72,360.237L1792.72,391.948L1791.44,395.71L1792.72,398.785L1792.72,411.805L1790.18,414.053L1777.94,414.053L1769.32,412.788L1763.07,414.053L1754.02,414.053L1753.68,404.784L1753.68,393.242L1754.02,379.288L1753.68,368.354L1754.02,357.988L1759.4,357.988L1761.69,359.22L1763.99,357.988L1766.87,357.988L1766.87,383.565L1772.93,376.518L1779,383.565L1779,357.988Z" style="fill:white;"/>
        </g>
    </g>
</svg>
