<?xml version="1.0" encoding="UTF-8" standalone="no"?>
<!DOCTYPE svg PUBLIC "-//W3C//DTD SVG 1.1//EN" "http://www.w3.org/Graphics/SVG/1.1/DTD/svg11.dtd">
<svg width="100%" height="100%" viewBox="0 0 226 251" version="1.1" xmlns="http://www.w3.org/2000/svg" xmlns:xlink="http://www.w3.org/1999/xlink" xml:space="preserve" style="fill-rule:evenodd;clip-rule:evenodd;stroke-linejoin:round;stroke-miterlimit:1.41421;">
    <g transform="matrix(1,0,0,1,-37,-25)">
        <g id="BookIcon2" transform="matrix(2.9354,0,0,3.02996,-2516.6,-5960.27)">
            <path d="M939.186,1997.92C940.822,1997.92 941.506,1999.31 941.506,2001.01C941.15,2007.01 940.58,2012.95 940.043,2018.87C939.898,2020.46 938.763,2022.46 938.628,2024.05C938.46,2026.03 939.297,2027.6 939.16,2029.58C938.568,2038.15 938.352,2040.76 939.249,2049.57C939.249,2051.23 937.95,2052.58 936.35,2052.58C936.35,2052.58 905.744,2051.42 891.723,2052.17C879.624,2052.82 878.498,2048.5 877.622,2043.24C877.106,2040.13 876.671,2040.04 876.325,2035.47C875.996,2031.13 876.43,2029.66 876.266,2024.88C876.171,2022.11 875.422,2018.04 875.385,2015.34C875.254,2005.8 875.494,1997.21 876.155,1993.23C877.185,1987.02 880.411,1984.14 886.505,1982.7C889.889,1981.9 894.989,1981.39 900.639,1981.08C902.12,1981 904.47,1981.61 906.006,1981.55C908.189,1981.47 909.574,1980.75 911.766,1980.71C924.099,1980.5 935.605,1980.88 935.546,1980.93C936.973,1980.93 938.132,1982.13 938.132,1983.61C937.421,1989.78 937.344,1994.7 938.132,1997.92L939.186,1997.92ZM928.815,2035.02L928.04,2034.4L925.548,2034.4L921.497,2034.62L918.307,2034.4L914.349,2034.62L910.567,2034.4L907.533,2034.62L903.407,2034.4L898.745,2034.62L895.645,2034.4L890.976,2034.62L889.363,2034.4L888.392,2034.59L887.648,2035.49L887.648,2036.84L887.828,2037.96L888.812,2038.31L891.503,2038.31L895.027,2037.99L899.828,2038.31L903.445,2038.31L906.387,2037.99L911.576,2038.31L927.73,2038.31L928.633,2038.2L929.209,2037.19L929.209,2035.81L928.815,2035.02ZM920.154,2025.15L918.651,2024.69L915.983,2024.89L911.832,2024.69L908.304,2024.89L904.159,2024.69L900.887,2024.89L898.189,2024.69L896.854,2024.69L895.539,2025.12L895.281,2026.52L895.281,2027.42L895.55,2028.3L896.922,2028.59L900.32,2028.43L903.306,2028.59L905.965,2028.43L909.367,2028.59L912.29,2028.43L916.109,2028.59L918.422,2028.43L919.981,2028.11L920.454,2027.33L920.454,2026.21L920.154,2025.15ZM928.785,2015.51L924.932,2015.25L918.575,2014.98L911.685,2015.25L904.874,2014.98L897.329,2015.25L893.143,2014.98L889.7,2015.13L887.962,2015.52L887.398,2016.86L887.975,2018.37L889.705,2018.62L892.344,2018.88L896.841,2018.62L900.793,2018.88L907.522,2018.62L912.956,2018.88L916.901,2018.62L923.377,2018.88L926.808,2018.72L928.994,2018.7L929.515,2016.92L928.785,2015.51ZM886.97,1997.61C906.476,2000.45 934.373,1997.92 934.373,1997.92C930.464,1994.96 930.705,1990.14 934.139,1985.97C933.799,1985.8 922.214,1985.46 909.764,1985.67C908.107,1985.69 907.024,1986.15 905.364,1986.22C903.838,1986.29 901.734,1985.98 900.246,1986.09C895.061,1986.5 891.502,1986.12 887.819,1987.31C884.631,1988.34 882.825,1989.49 882.43,1992.46C882.121,1994.78 884.221,1997.21 886.97,1997.61Z" style="fill:white;"/>
        </g>
    </g>
</svg>
