<?xml version="1.0" encoding="UTF-8" standalone="no"?>
<!DOCTYPE svg PUBLIC "-//W3C//DTD SVG 1.1//EN" "http://www.w3.org/Graphics/SVG/1.1/DTD/svg11.dtd">
<svg width="100%" height="100%" viewBox="0 0 304 152" version="1.1" xmlns="http://www.w3.org/2000/svg" xmlns:xlink="http://www.w3.org/1999/xlink" xml:space="preserve" style="fill-rule:evenodd;clip-rule:evenodd;stroke-linejoin:round;stroke-miterlimit:1.41421;">
    <g transform="matrix(1,0,0,1,-8,-79)">
        <g id="CandyWrapIcon" transform="matrix(1.35613,0,0,1.35613,-2525.18,-1202.04)">
            <g transform="matrix(1,0,0,1,-1.56881,0)">
                <circle cx="1974.23" cy="995.269" r="50.247" style="fill:white;"/>
            </g>
            <g>
                <g transform="matrix(-5.55997e-17,-1,-0.669383,4.51403e-17,2467.58,2991.47)">
                    <path d="M1993.68,793.464C1997.34,791.469 2051.06,889.715 2044.22,894.543C2041.36,896.559 1993.57,881.605 1993.57,881.605C1993.57,881.605 1945.97,896.104 1943.14,894.543C1936.24,890.742 1989.35,791.97 1993.68,793.464Z" style="fill:white;"/>
                </g>
                <g transform="matrix(5.55997e-17,-1,0.669383,4.51403e-17,1477.75,2991.47)">
                    <path d="M1993.68,793.464C1997.34,791.469 2051.06,889.715 2044.22,894.543C2041.36,896.559 1993.57,881.605 1993.57,881.605C1993.57,881.605 1945.97,896.104 1943.14,894.543C1936.24,890.742 1989.35,791.97 1993.68,793.464Z" style="fill:white;"/>
                </g>
            </g>
        </g>
    </g>
</svg>
