<?xml version="1.0" encoding="UTF-8" standalone="no"?>
<!DOCTYPE svg PUBLIC "-//W3C//DTD SVG 1.1//EN" "http://www.w3.org/Graphics/SVG/1.1/DTD/svg11.dtd">
<svg width="100%" height="100%" viewBox="0 0 246 189" version="1.1" xmlns="http://www.w3.org/2000/svg" xmlns:xlink="http://www.w3.org/1999/xlink" xml:space="preserve" style="fill-rule:evenodd;clip-rule:evenodd;stroke-linejoin:round;stroke-miterlimit:1.41421;">
    <g transform="matrix(1,0,0,1,-27,-56)">
        <g id="CatIcon" transform="matrix(2.05196,-1.66533e-16,0,1.94115,-3056.49,-1008.44)">
            <path d="M1528.24,625.675C1525.86,621.946 1524.53,617.636 1524.53,612.826C1524.53,607.114 1526.36,600.993 1529.58,595.313C1520.96,571.185 1522.91,553.119 1524.92,552.051C1526.84,551.028 1541.44,561.461 1550.7,576.069C1554.94,574.275 1559.51,573.245 1564.28,573.245C1569.05,573.245 1573.63,574.275 1577.87,576.069C1587.12,561.461 1601.73,551.028 1603.65,552.051C1605.66,553.119 1607.61,571.185 1598.99,595.313C1602.2,600.993 1604.04,607.114 1604.04,612.826C1604.04,617.459 1602.8,621.627 1600.59,625.259C1602.22,625.101 1603.85,624.989 1605.49,624.925C1606.27,624.894 1607.05,624.876 1607.83,624.866C1608.21,624.863 1608.6,624.861 1608.98,624.861C1610.25,624.868 1611.51,624.898 1612.78,624.961C1614.01,625.022 1615.25,625.114 1616.48,625.228L1616.58,625.242C1616.61,625.25 1616.64,625.256 1616.67,625.265C1616.8,625.303 1616.91,625.365 1617.02,625.447C1617.09,625.509 1617.16,625.582 1617.21,625.664C1617.44,625.995 1617.44,626.441 1617.22,626.775C1617.16,626.857 1617.1,626.931 1617.02,626.993C1616.87,627.119 1616.68,627.198 1616.49,627.219C1616.4,627.228 1616.38,627.223 1616.29,627.22C1615.93,627.186 1615.58,627.155 1615.22,627.125C1613.88,627.019 1612.55,626.941 1611.21,626.899C1608.55,626.817 1605.9,626.868 1603.25,627.047C1601.86,627.14 1600.48,627.269 1599.11,627.43C1598.19,628.633 1597.16,629.767 1596.02,630.829C1597.57,631.162 1599.1,631.535 1600.62,631.952C1603.23,632.666 1605.81,633.507 1608.34,634.475C1609.73,635.006 1611.1,635.578 1612.46,636.182L1612.55,636.226C1612.62,636.272 1612.64,636.282 1612.71,636.339C1612.86,636.467 1612.97,636.64 1613.02,636.829C1613.13,637.215 1612.99,637.638 1612.67,637.884C1612.59,637.945 1612.51,637.994 1612.41,638.029C1612.32,638.064 1612.23,638.086 1612.13,638.093C1612,638.103 1611.87,638.086 1611.74,638.045C1611.71,638.035 1611.68,638.022 1611.65,638.01C1611.32,637.864 1610.99,637.719 1610.66,637.576C1609.43,637.05 1608.19,636.549 1606.93,636.083C1604.44,635.157 1601.91,634.356 1599.34,633.679C1597.61,633.223 1595.87,632.823 1594.11,632.477C1586.75,638.321 1575.99,641.575 1564.28,641.575C1552.26,641.575 1541.23,638.141 1533.86,631.992C1533.58,632.038 1533.3,632.086 1533.02,632.135C1530.39,632.596 1527.78,633.176 1525.2,633.881C1522.53,634.61 1519.9,635.475 1517.33,636.475C1516.09,636.956 1514.86,637.47 1513.64,638.01L1513.55,638.045C1513.52,638.054 1513.49,638.064 1513.46,638.071C1513.33,638.1 1513.2,638.104 1513.07,638.081C1512.67,638.013 1512.35,637.706 1512.26,637.315C1512.24,637.22 1512.23,637.121 1512.24,637.023C1512.25,636.925 1512.27,636.828 1512.3,636.736C1512.38,636.553 1512.5,636.392 1512.66,636.278C1512.73,636.228 1512.75,636.221 1512.83,636.182C1513.17,636.033 1513.5,635.885 1513.84,635.739C1515.1,635.199 1516.38,634.686 1517.66,634.208C1519.96,633.352 1522.3,632.6 1524.67,631.952C1527.08,631.292 1529.52,630.74 1531.98,630.289C1531.22,629.54 1530.51,628.756 1529.86,627.94C1529.52,627.885 1529.17,627.831 1528.83,627.781C1526.19,627.39 1523.54,627.119 1520.88,626.977C1518.37,626.843 1515.86,626.825 1513.35,626.926C1511.89,626.984 1510.45,627.085 1509,627.22L1508.9,627.224C1508.82,627.219 1508.79,627.221 1508.71,627.204C1508.51,627.164 1508.34,627.067 1508.2,626.927C1508.13,626.857 1508.07,626.777 1508.02,626.69C1507.84,626.336 1507.88,625.893 1508.14,625.585C1508.2,625.51 1508.28,625.443 1508.36,625.389C1508.47,625.317 1508.59,625.267 1508.72,625.242C1508.75,625.236 1508.78,625.233 1508.82,625.228C1509.18,625.194 1509.55,625.162 1509.91,625.131C1510.91,625.053 1511.9,624.988 1512.89,624.943C1513.77,624.904 1514.66,624.88 1515.54,624.867C1516.06,624.862 1516.57,624.861 1517.08,624.863C1517.99,624.87 1518.9,624.889 1519.81,624.925C1521.68,624.998 1523.55,625.134 1525.41,625.331C1526.35,625.431 1527.3,625.546 1528.24,625.675ZM1564.34,620.628C1566.22,620.628 1567.74,621.515 1567.74,622.607C1567.74,623.699 1566.22,625.721 1564.34,625.721C1562.45,625.721 1560.93,623.699 1560.93,622.607C1560.93,621.515 1562.45,620.628 1564.34,620.628ZM1545.91,597.488C1553.17,597.488 1559.06,603.779 1559.06,611.527C1559.06,619.276 1553.17,625.567 1545.91,625.567C1538.64,625.567 1532.75,619.276 1532.75,611.527C1532.75,603.779 1538.64,597.488 1545.91,597.488ZM1582.66,597.488C1589.92,597.488 1595.82,603.779 1595.82,611.527C1595.82,619.276 1589.92,625.567 1582.66,625.567C1575.4,625.567 1569.5,619.276 1569.5,611.527C1569.5,603.779 1575.4,597.488 1582.66,597.488ZM1547.34,602.065C1548.88,602.065 1550.13,606.087 1550.13,611.041C1550.13,615.995 1548.88,620.017 1547.34,620.017C1545.8,620.017 1544.54,615.995 1544.54,611.041C1544.54,606.087 1545.8,602.065 1547.34,602.065ZM1581.23,602.065C1582.77,602.065 1584.02,606.087 1584.02,611.041C1584.02,615.995 1582.77,620.017 1581.23,620.017C1579.69,620.017 1578.43,615.995 1578.43,611.041C1578.43,606.087 1579.69,602.065 1581.23,602.065Z" style="fill:white;"/>
        </g>
    </g>
</svg>
