<?xml version="1.0" encoding="UTF-8" standalone="no"?>
<!DOCTYPE svg PUBLIC "-//W3C//DTD SVG 1.1//EN" "http://www.w3.org/Graphics/SVG/1.1/DTD/svg11.dtd">
<svg width="100%" height="100%" viewBox="0 0 270 302" version="1.1" xmlns="http://www.w3.org/2000/svg" xmlns:xlink="http://www.w3.org/1999/xlink" xml:space="preserve" style="fill-rule:evenodd;clip-rule:evenodd;stroke-linejoin:round;stroke-miterlimit:1.41421;">
    <g transform="matrix(1,0,0,1,-25,-10)">
        <g id="ChatIcon" transform="matrix(4.26217,0,0,4.4709,-1757.61,-5873.33)">
            <path d="M419.5,1329.29C422.738,1321.91 433.727,1317.16 437.116,1316.37C443.092,1314.97 458.045,1317.41 463.883,1321.38C466.904,1323.43 476.058,1332.17 476.672,1336.19C477.287,1340.21 476.131,1348.72 473.745,1352.52C470.563,1357.58 461.446,1361.63 457.01,1362.67C450.443,1364.21 439.858,1363.02 439.858,1363.02L424.425,1378.49L430.124,1360C430.124,1360 422.012,1352.86 420.121,1349.75C418.229,1346.65 417.482,1333.89 419.5,1329.29ZM455.466,1341.39C455.558,1340.62 457.301,1337.92 458.201,1337.6C459.101,1337.29 462.274,1337.67 462.907,1337.98C463.54,1338.29 464.918,1341.35 464.878,1342.13C464.838,1342.92 462.729,1345.53 462.143,1345.91C461.556,1346.3 457.922,1345.95 457.436,1345.54C456.95,1345.14 455.373,1342.16 455.466,1341.39ZM445.94,1335.85C446.709,1335.74 449.767,1336.73 450.301,1337.51C450.836,1338.3 451.294,1341.46 451.159,1342.16C451.024,1342.85 448.427,1344.97 447.655,1345.13C446.884,1345.3 443.82,1343.94 443.294,1343.47C442.768,1343.01 442.171,1339.4 442.436,1338.83C442.701,1338.26 445.171,1335.96 445.94,1335.85ZM435.405,1334.87C436.113,1335.18 438.163,1337.66 438.19,1338.61C438.217,1339.56 436.904,1342.48 436.419,1342.99C435.934,1343.5 432.602,1343.89 431.863,1343.62C431.124,1343.34 429.271,1340.55 429.078,1339.87C428.885,1339.19 430.318,1335.84 430.849,1335.5C431.381,1335.15 434.698,1334.55 435.405,1334.87Z" style="fill:white;"/>
        </g>
    </g>
</svg>
