<?xml version="1.0" encoding="UTF-8" standalone="no"?>
<!DOCTYPE svg PUBLIC "-//W3C//DTD SVG 1.1//EN" "http://www.w3.org/Graphics/SVG/1.1/DTD/svg11.dtd">
<svg width="100%" height="100%" viewBox="0 0 270 277" version="1.1" xmlns="http://www.w3.org/2000/svg" xmlns:xlink="http://www.w3.org/1999/xlink" xml:space="preserve" style="fill-rule:evenodd;clip-rule:evenodd;stroke-linejoin:round;stroke-miterlimit:1.41421;">
    <g transform="matrix(1,0,0,1,-15,-11)">
        <g transform="matrix(2.90396,0,0,2.92322,4.80211,3.75404)">
            <g id="ClockIcon" transform="matrix(1.21731,0,0,1.24,-1341.92,-373.934)">
                <path d="M1143.45,306.552C1148.61,306.552 1166.07,313.679 1168.43,316.9C1170.79,320.12 1178.89,336.538 1178.78,341.881C1178.66,347.225 1171.41,363.851 1168.43,366.863C1165.44,369.876 1149.01,377.171 1143.45,377.211C1137.88,377.252 1123.48,370.831 1118.46,366.863C1113.45,362.895 1107.9,347.247 1108.12,341.881C1108.33,336.516 1115.39,320.186 1118.46,316.9C1121.54,313.613 1138.29,306.552 1143.45,306.552ZM1143.45,314.05C1147.51,314.05 1161.27,319.665 1163.13,322.201C1164.99,324.738 1171.37,337.672 1171.28,341.881C1171.18,346.091 1165.48,359.189 1163.13,361.562C1160.78,363.934 1147.83,369.681 1143.45,369.713C1139.06,369.745 1127.72,364.687 1123.77,361.562C1119.82,358.436 1115.45,346.108 1115.62,341.881C1115.78,337.655 1121.35,324.791 1123.77,322.201C1126.19,319.612 1139.38,314.05 1143.45,314.05Z" style="fill:white;"/>
                <g transform="matrix(1.06655,0,0,1.06655,-76.7354,-22.9551)">
                    <path d="M1138.81,345.834C1138.52,345.246 1139.87,324.436 1140.14,323.579C1140.41,322.721 1148.92,322.249 1148.9,323.711C1148.88,325.172 1145.12,343.036 1145.12,343.036C1145.12,343.036 1159.65,346.413 1160.68,346.723C1161.72,347.033 1160.23,354.489 1158.47,354.532C1156.71,354.575 1139.1,346.421 1138.81,345.834Z" style="fill:white;"/>
                </g>
            </g>
        </g>
    </g>
</svg>
