<?xml version="1.0" encoding="UTF-8" standalone="no"?>
<!DOCTYPE svg PUBLIC "-//W3C//DTD SVG 1.1//EN" "http://www.w3.org/Graphics/SVG/1.1/DTD/svg11.dtd">
<svg width="100%" height="100%" viewBox="0 0 242 294" version="1.1" xmlns="http://www.w3.org/2000/svg" xmlns:xlink="http://www.w3.org/1999/xlink" xml:space="preserve" style="fill-rule:evenodd;clip-rule:evenodd;stroke-linecap:round;stroke-linejoin:round;stroke-miterlimit:1.5;">
    <g transform="matrix(1,0,0,1,-39,-15)">
        <g id="CookingPotIcon" transform="matrix(1.24546,0,0,1.25323,-955.779,-922.417)">
            <g transform="matrix(1,0,0,1.03537,-2.40598,-27.3184)">
                <path d="M957.693,854.421C969.112,861.82 977.391,871.463 978.64,882.332C983.914,928.199 936.031,956.856 889.869,956.856C843.707,956.856 796.762,928.739 801.843,885.425C803.053,875.109 814.615,858.203 824.162,854.917C862.658,874.958 945.674,867.658 957.693,854.421Z" style="fill:white;"/>
            </g>
            <g transform="matrix(0.902069,0,0,0.787525,248.53,191.657)">
                <ellipse cx="709.689" cy="806.005" rx="79.755" ry="31.915" style="fill:none;stroke:white;stroke-width:15.75px;"/>
            </g>
            <g transform="matrix(1,0,0,1,3.53975,14.1311)">
                <circle cx="884.547" cy="787.868" r="20.739" style="fill:white;"/>
            </g>
            <g transform="matrix(1,0,0,1,78.958,75.825)">
                <circle cx="841.165" cy="750.053" r="11.167" style="fill:white;"/>
            </g>
            <g transform="matrix(1,0,0,1,-3.28076,39.1119)">
                <circle cx="926.225" cy="746.477" r="6.975" style="fill:white;"/>
            </g>
            <g transform="matrix(1,0,0,1,8.77763,7.48529)">
                <path d="M853.192,821.983C850.65,815.203 833.456,753.918 826.557,743.914C821.392,736.426 801.286,742.478 805.196,752.467C809.087,762.407 837.963,820.981 839.453,825.22C840.943,829.458 855.733,828.763 853.192,821.983Z" style="fill:white;"/>
            </g>
        </g>
    </g>
</svg>
