<?xml version="1.0" encoding="UTF-8" standalone="no"?>
<!DOCTYPE svg PUBLIC "-//W3C//DTD SVG 1.1//EN" "http://www.w3.org/Graphics/SVG/1.1/DTD/svg11.dtd">
<svg width="100%" height="100%" viewBox="0 0 278 290" version="1.1" xmlns="http://www.w3.org/2000/svg" xmlns:xlink="http://www.w3.org/1999/xlink" xml:space="preserve" style="fill-rule:evenodd;clip-rule:evenodd;stroke-linejoin:round;stroke-miterlimit:1.41421;">
    <g transform="matrix(1,0,0,1,-11,-5)">
        <g transform="matrix(2.90396,0,0,2.92322,4.80211,3.75404)">
            <g id="CrossIcon" transform="matrix(1.32895,0,0,1.32895,-1178.62,-727.7)">
                <path d="M927.874,551.052C928.148,551.846 929.503,560.764 929.503,560.764C929.503,560.764 940.927,561.452 941.244,562.375C941.56,563.297 941.822,568.593 941.244,569.041C940.665,569.488 929.503,570.651 929.503,570.651L929.503,594.404C929.503,594.404 942.809,598.76 944.312,599.963C945.815,601.167 958.252,614.716 957.865,616.504C956.854,621.175 891.578,620.913 891.136,616.504C890.982,614.965 903.03,601.31 903.723,600.621C904.416,599.933 919.498,594.404 919.498,594.404L919.498,570.651C919.498,570.651 908.172,569.266 907.758,569.041C907.343,568.816 907.017,562.65 907.758,562.375C908.498,562.1 919.498,560.764 919.498,560.764C919.498,560.764 920.649,551.77 921.128,551.052C921.606,550.334 927.599,550.259 927.874,551.052Z" style="fill:white;"/>
            </g>
        </g>
    </g>
</svg>
