<?xml version="1.0" encoding="UTF-8" standalone="no"?>
<!DOCTYPE svg PUBLIC "-//W3C//DTD SVG 1.1//EN" "http://www.w3.org/Graphics/SVG/1.1/DTD/svg11.dtd">
<svg width="100%" height="100%" viewBox="0 0 194 225" version="1.1" xmlns="http://www.w3.org/2000/svg" xmlns:xlink="http://www.w3.org/1999/xlink" xml:space="preserve" style="fill-rule:evenodd;clip-rule:evenodd;stroke-linejoin:round;stroke-miterlimit:1.41421;">
    <g transform="matrix(1,0,0,1,-53,-38)">
        <g id="CrowIcon" transform="matrix(3.26034,1.66533e-16,5.82867e-16,3.26034,-5893.21,-1950.5)">
            <path d="M1835.15,639.368C1834.48,637.609 1834.21,635.82 1834.48,634.09C1830.51,634.422 1827.15,635.817 1826.91,634.624C1826.63,633.216 1829.75,628.165 1832.67,625.228C1832.6,621.051 1834.51,616.942 1838.53,614.827C1844.51,611.678 1854.12,614.576 1857.08,620.209C1857.15,620.341 1857.22,620.473 1857.28,620.605C1860.5,621.593 1864.9,623.955 1868.58,629.571C1871.96,634.729 1876.63,656.377 1880.13,665.6C1880.73,667.169 1877.77,667.725 1877.3,667.335C1875.5,665.855 1870.71,658.905 1870.03,658.438C1868.87,657.632 1872.41,662.855 1873.36,665.071C1873.79,666.079 1871.11,666.144 1870.18,665.784C1869.07,665.353 1867.24,663.892 1864.49,661.856C1864.61,662.142 1864.69,662.389 1864.69,662.553C1864.72,663.288 1860.81,672.816 1860.81,672.816C1860.81,672.816 1866.53,673.877 1866.86,674.111C1867.19,674.345 1867.12,675.072 1866.51,674.977C1865.91,674.883 1860.02,673.674 1860.02,673.674C1860.02,673.674 1855.6,674.725 1855.01,674.901C1854.41,675.076 1854.2,674.077 1854.84,673.96C1855.1,673.913 1855.99,673.661 1856.95,673.377C1855.18,673 1851.85,672.265 1851.85,672.265C1851.85,672.265 1847.68,673.332 1847.12,673.51C1846.56,673.688 1846.36,672.673 1846.96,672.555C1847.56,672.437 1851.81,671.04 1851.81,671.04L1854.76,661.086C1854.76,661.086 1838.07,649.628 1835.15,639.368ZM1852.98,654.979C1854.14,656.68 1854.85,657.758 1854.85,657.758C1854.85,657.758 1856.24,660.232 1856.26,660.978C1856.29,661.724 1852.59,671.394 1852.59,671.394C1852.59,671.394 1858,672.471 1858.31,672.708C1858.38,672.761 1858.43,672.839 1858.46,672.927C1859.31,672.67 1859.98,672.467 1859.98,672.467L1863.1,662.659C1863.1,662.659 1858.12,659.477 1852.98,654.979ZM1837.65,627.709C1837.3,627.214 1842.66,620.945 1844.59,621.258C1846.52,621.571 1848.54,624.075 1847.83,625.446C1847.11,626.816 1838.06,628.302 1837.65,627.709Z" style="fill:white;"/>
        </g>
    </g>
</svg>
