<?xml version="1.0" encoding="UTF-8" standalone="no"?>
<!DOCTYPE svg PUBLIC "-//W3C//DTD SVG 1.1//EN" "http://www.w3.org/Graphics/SVG/1.1/DTD/svg11.dtd">
<svg width="100%" height="100%" viewBox="0 0 326 323" version="1.1" xmlns="http://www.w3.org/2000/svg" xmlns:xlink="http://www.w3.org/1999/xlink" xml:space="preserve" style="fill-rule:evenodd;clip-rule:evenodd;stroke-linejoin:round;stroke-miterlimit:1.41421;">
    <g transform="matrix(1,0,0,1,13,11)">
        <g id="ExitIcon" transform="matrix(3,0,0,3,-3.29654,0)">
            <g transform="matrix(0.711715,0,0,0.82965,-88.1481,-1734.84)">
                <path d="M169.752,2151.1C171.965,2143.89 202.759,2117.42 207.881,2118.88C211.732,2119.98 214.279,2139.68 214.279,2139.68C214.279,2139.68 257.145,2144.34 262.377,2145.38C265.25,2145.95 265.529,2156.81 262.377,2157.24C257.091,2157.97 214.279,2162.94 214.279,2162.94C214.279,2162.94 211.732,2182.64 207.881,2183.74C202.759,2185.21 171.965,2158.74 169.752,2151.53C169.721,2151.4 169.714,2151.26 169.752,2151.1Z" style="fill:white;"/>
            </g>
            <g transform="matrix(1,0,0,1,0,-0.710031)">
                <path d="M2.178,85.819L1.999,74.055L2.178,63.053L2.631,49.207L2.178,34.696L1.999,25.335L2.178,15.601L8.145,6.472L19.856,2.268L36.919,1.764L43.013,3.489L43.407,7.302L42.894,10.955L36.939,12.176L18.362,13.23L13.827,21.071L13.229,31.978L13.827,43.868L13.114,53.165L13.827,64.255L13.104,71.846L14.319,81.937L20.808,88.007L37.791,89.327L43.386,90.282L43.828,94.618L43.013,97.931L36.919,99.656L19.856,99.152L8.145,94.948L2.178,85.819Z" style="fill:white;"/>
            </g>
        </g>
    </g>
</svg>
