<?xml version="1.0" encoding="UTF-8" standalone="no"?>
<!DOCTYPE svg PUBLIC "-//W3C//DTD SVG 1.1//EN" "http://www.w3.org/Graphics/SVG/1.1/DTD/svg11.dtd">
<svg width="100%" height="100%" viewBox="0 0 266 293" version="1.1" xmlns="http://www.w3.org/2000/svg" xmlns:xlink="http://www.w3.org/1999/xlink" xml:space="preserve" style="fill-rule:evenodd;clip-rule:evenodd;stroke-linejoin:round;stroke-miterlimit:1.41421;">
    <g transform="matrix(1,0,0,1,-17,-3)">
        <g transform="matrix(2.90396,0,0,2.92322,4.80211,3.75404)">
            <g id="FriendsIcon" transform="matrix(1.28966,0,0,1.28966,-1896.26,-224.139)">
                <g transform="matrix(1,0,0,1,-1.46539,0.698744)">
                    <path d="M1524.21,219.258C1527.52,218.442 1531.3,217.057 1534.35,215.638C1536.02,216.931 1537.33,218.129 1537.98,218.974C1540.31,222.035 1543.64,231.506 1543.12,235.035C1542.76,237.47 1538.37,239.079 1532.38,239.942C1531.04,233.78 1526.92,224.321 1524.21,219.258ZM1509.96,179.579C1513.1,177.806 1517.42,176.055 1520.13,176.055C1523.99,176.055 1532.11,180.228 1533.44,181.721C1534.78,183.215 1539.38,192.462 1538.96,195.402C1538.55,198.342 1535.42,206.998 1533.44,209.083C1531.87,210.747 1526.64,213.367 1522.74,214.355C1524.85,210.675 1527.35,203.468 1527.74,200.718C1528.21,197.417 1523.05,187.037 1521.55,185.36C1520.37,184.046 1514.52,180.885 1509.96,179.579Z" style="fill:white;"/>
                </g>
                <g transform="matrix(1.10959,0,0,1.10959,-492.994,84.822)">
                    <g transform="matrix(1.13744,0,0,1,-247.813,0)">
                        <path d="M1785.78,124.738C1789.54,126.699 1794.47,128.738 1797.39,128.738C1800.36,128.738 1805.57,126.81 1809.35,124.809C1810.67,125.974 1811.71,127.054 1812.22,127.816C1814.07,130.574 1816.7,139.11 1816.29,142.29C1815.36,149.544 1779.47,148.659 1778.44,142.29C1778.04,139.779 1781,129.456 1783.11,127.232C1783.65,126.65 1784.6,125.75 1785.78,124.738Z" style="fill:white;"/>
                    </g>
                    <g transform="matrix(0.818799,0,0,0.841131,323.076,17.4592)">
                        <path d="M1800.58,85.214C1804.83,85.214 1813.77,89.685 1815.24,91.285C1816.71,92.886 1821.77,102.793 1821.31,105.943C1820.85,109.093 1817.42,118.368 1815.24,120.601C1813.06,122.835 1804.6,126.673 1800.58,126.673C1796.57,126.673 1788.4,122.463 1785.92,120.601C1783.44,118.74 1779.75,108.853 1779.85,105.943C1779.95,103.034 1783.38,93.543 1785.92,91.285C1788.47,89.027 1796.33,85.214 1800.58,85.214Z" style="fill:white;"/>
                    </g>
                </g>
            </g>
        </g>
    </g>
</svg>
