<?xml version="1.0" encoding="UTF-8" standalone="no"?>
<!DOCTYPE svg PUBLIC "-//W3C//DTD SVG 1.1//EN" "http://www.w3.org/Graphics/SVG/1.1/DTD/svg11.dtd">
<svg width="100%" height="100%" viewBox="0 0 268 283" version="1.1" xmlns="http://www.w3.org/2000/svg" xmlns:xlink="http://www.w3.org/1999/xlink" xml:space="preserve" style="fill-rule:evenodd;clip-rule:evenodd;stroke-linejoin:round;stroke-miterlimit:1.41421;">
    <g transform="matrix(1,0,0,1,-26,-19)">
        <g id="GhostIcon2" transform="matrix(6.10045,0,0,6.10045,-7903.18,-2146.03)">
            <path d="M1334.76,357.234C1341.53,361.697 1341.33,371.158 1338.45,378.198C1335.67,384.968 1325.74,402.587 1299.85,396.541C1321.15,387.567 1305.02,370.707 1315.21,360.37C1320.55,354.953 1328.41,353.049 1334.76,357.234ZM1327.27,372.284C1324.39,371.831 1324.34,375.53 1324.12,377.493C1323.9,379.456 1324.84,380.719 1326.15,380.758C1327.46,380.798 1328.84,379.488 1329.06,377.525C1329.28,375.562 1329.71,372.67 1327.27,372.284ZM1331.22,364.477C1329.74,364.936 1329.3,366.71 1330.02,369.075C1330.68,371.209 1331.83,372.747 1333.31,372.288C1334.79,371.83 1335.3,370.177 1334.96,367.946C1334.63,365.714 1332.7,364.019 1331.22,364.477ZM1323.94,362.576C1325.42,363.035 1325.86,364.809 1325.13,367.174C1324.48,369.308 1323.33,370.846 1321.85,370.387C1320.37,369.929 1319.86,368.276 1320.2,366.045C1320.53,363.813 1322.46,362.118 1323.94,362.576Z" style="fill:white;"/>
        </g>
    </g>
</svg>
