<?xml version="1.0" encoding="UTF-8" standalone="no"?>
<!DOCTYPE svg PUBLIC "-//W3C//DTD SVG 1.1//EN" "http://www.w3.org/Graphics/SVG/1.1/DTD/svg11.dtd">
<svg width="100%" height="100%" viewBox="0 0 168 213" version="1.1" xmlns="http://www.w3.org/2000/svg" xmlns:xlink="http://www.w3.org/1999/xlink" xml:space="preserve" style="fill-rule:evenodd;clip-rule:evenodd;stroke-linejoin:round;stroke-miterlimit:1.41421;">
    <g transform="matrix(1,0,0,1,-66,-44)">
        <g id="GhostIcon" transform="matrix(0.905294,0,-8.32667e-17,0.798967,-1599.83,-339.777)">
            <path d="M1940.37,495.99C2013.83,502.556 2024.03,537.644 2005.82,629.985C1998.22,668.527 2010.23,697.581 2009.3,709.192C2007.94,726.209 1974.23,732.716 1961.67,717.153C1958.04,733.782 1905.08,736.019 1899.39,717.329C1881.37,722.209 1860.05,715.444 1856.73,706.052C1849.22,684.785 1852.33,645.4 1855.57,618.211C1863.22,554.051 1866.63,489.398 1940.37,495.99ZM1937.24,583.996C1919.41,581.329 1919.08,603.104 1917.71,614.663C1916.34,626.222 1922.19,633.658 1930.31,633.891C1938.44,634.124 1947.01,626.411 1948.38,614.852C1949.76,603.293 1952.41,586.266 1937.24,583.996ZM1961.79,538.029C1952.6,540.727 1949.87,551.176 1954.36,565.102C1958.4,577.664 1965.58,586.718 1974.77,584.02C1983.95,581.322 1987.08,571.59 1985,558.452C1982.92,545.313 1970.98,535.331 1961.79,538.029ZM1916.57,526.837C1925.76,529.535 1928.49,539.983 1924,553.91C1919.96,566.471 1912.78,575.525 1903.59,572.827C1894.41,570.129 1891.28,560.398 1893.36,547.259C1895.44,534.12 1907.38,524.139 1916.57,526.837Z" style="fill:white;"/>
        </g>
    </g>
</svg>
