<?xml version="1.0" encoding="UTF-8" standalone="no"?>
<!DOCTYPE svg PUBLIC "-//W3C//DTD SVG 1.1//EN" "http://www.w3.org/Graphics/SVG/1.1/DTD/svg11.dtd">
<svg width="100%" height="100%" viewBox="0 0 250 300" version="1.1" xmlns="http://www.w3.org/2000/svg" xmlns:xlink="http://www.w3.org/1999/xlink" xml:space="preserve" style="fill-rule:evenodd;clip-rule:evenodd;stroke-linejoin:round;stroke-miterlimit:1.41421;">
    <g transform="matrix(1,0,0,1,-35,-12)">
        <g id="GraveRIPIcon" transform="matrix(0.768036,0,0,0.810279,-453.586,-556.62)">
            <g transform="matrix(0.894894,0,0,1,82.7304,-7.59375)">
                <rect x="619.5" y="954.042" width="332.477" height="95.383" style="fill:white;"/>
            </g>
            <g transform="matrix(1,0,0,1,0.144531,0)">
                <path d="M896.473,980.307L675.004,980.307L675.004,813.042C675.004,751.926 724.623,702.307 785.739,702.307C846.854,702.307 896.473,751.926 896.473,813.042L896.473,980.307ZM740.332,804.896L719.052,804.896L719.052,870.323L733.145,870.323L733.145,845.963L734.079,845.963C737.065,845.963 738.839,846.71 740.052,849.043L750.879,870.323L767.865,870.323L757.879,852.31C754.799,846.803 752.652,844.376 749.199,842.696L749.199,842.323C756.852,840.83 763.012,835.51 763.012,824.123C763.012,810.403 754.799,804.896 740.332,804.896ZM777.012,870.323L791.292,870.323L791.292,804.896L777.012,804.896L777.012,870.323ZM829.559,804.896L807.159,804.896L807.159,870.323L821.439,870.323L821.439,847.083L826.852,847.083C845.985,847.083 852.425,836.536 852.425,824.31C852.425,809.843 842.812,804.896 829.559,804.896ZM826.105,835.416L821.439,835.416L821.439,816.936L827.225,816.936C834.505,816.936 837.679,819.83 837.679,826.27C837.679,831.31 835.625,835.416 826.105,835.416ZM738.559,834.67L733.145,834.67L733.145,816.656L738.745,816.656C744.999,816.656 748.545,819.363 748.545,825.336C748.545,831.403 746.119,834.67 738.559,834.67Z" style="fill:white;"/>
            </g>
        </g>
    </g>
</svg>
