<?xml version="1.0" encoding="UTF-8" standalone="no"?>
<!DOCTYPE svg PUBLIC "-//W3C//DTD SVG 1.1//EN" "http://www.w3.org/Graphics/SVG/1.1/DTD/svg11.dtd">
<svg width="100%" height="100%" viewBox="0 0 186 301" version="1.1" xmlns="http://www.w3.org/2000/svg" xmlns:xlink="http://www.w3.org/1999/xlink" xml:space="preserve" style="fill-rule:evenodd;clip-rule:evenodd;stroke-linejoin:round;stroke-miterlimit:1.41421;">
    <g transform="matrix(1,0,0,1,-57,-2)">
        <g transform="matrix(2.90396,0,0,2.92322,4.80211,3.75404)">
            <g id="HelpIcon" transform="matrix(1.12422,0,0,1.11774,-524.792,-1546.19)">
                <g transform="matrix(2.54552,0,0,2.54552,200.139,-2603.24)">
                    <path d="M112.313,1574.43C112.485,1573.43 115.278,1568.94 116.145,1568.5C117.013,1568.05 125.108,1567.64 125.828,1568.03C126.549,1568.42 131.056,1570.56 131.197,1571.1C131.337,1571.64 132.377,1578.49 132.111,1579.36C131.844,1580.23 125.298,1584.78 124.933,1585.53C124.568,1586.27 123.831,1590.59 123.683,1591.25C123.535,1591.91 118.915,1591.75 118.523,1591.25C118.131,1590.75 118.224,1585.86 118.45,1585.28C118.676,1584.7 125.879,1579.28 125.921,1578.43C125.963,1577.58 124.739,1573.02 124.207,1572.7C123.675,1572.38 121.01,1571.86 120.318,1572.23C119.626,1572.59 117.911,1578.57 117.083,1578.6C116.255,1578.63 112.141,1575.44 112.313,1574.43Z" style="fill:white;"/>
                </g>
                <g transform="matrix(2.42236,0,0,2.44211,215.292,-2438.42)">
                    <path d="M117.875,1594.4C118.292,1593.76 121.836,1593.67 122.276,1594.6C122.866,1595.84 123.066,1598.32 123.032,1599.52C122.998,1600.71 117.184,1600.62 116.685,1599.57C116.238,1598.62 117.301,1595.27 117.875,1594.4Z" style="fill:white;"/>
                </g>
            </g>
        </g>
    </g>
</svg>
