<?xml version="1.0" encoding="UTF-8" standalone="no"?>
<!DOCTYPE svg PUBLIC "-//W3C//DTD SVG 1.1//EN" "http://www.w3.org/Graphics/SVG/1.1/DTD/svg11.dtd">
<svg width="100%" height="100%" viewBox="0 0 263 245" version="1.1" xmlns="http://www.w3.org/2000/svg" xmlns:xlink="http://www.w3.org/1999/xlink" xml:space="preserve" style="fill-rule:evenodd;clip-rule:evenodd;stroke-linejoin:round;stroke-miterlimit:1.41421;">
    <g transform="matrix(1,0,0,1,-19,-28)">
        <g transform="matrix(2.90396,0,0,2.92322,4.80211,3.75404)">
            <g id="LevelsIcon" transform="matrix(1.58709,0,0,1.63577,-530.519,-299.024)">
                <g transform="matrix(2.12101,0,0,1.79725,107.812,-2751.75)">
                    <path d="M118.051,1637.6C118.555,1637.33 132.985,1636.7 133.66,1637.19C134.334,1637.67 133.915,1642.38 133.385,1642.74C132.855,1643.11 119.028,1643.38 118.254,1643.09C117.481,1642.8 117.547,1637.86 118.051,1637.6Z" style="fill:white;"/>
                </g>
                <g transform="matrix(2.12101,0,0,1.79725,107.812,-2751.75)">
                    <path d="M118.457,1646.91C118.953,1646.72 132.908,1646.18 133.388,1646.4C133.868,1646.61 133.57,1651.22 132.882,1651.58C132.195,1651.93 118.707,1651.93 118.162,1651.5C117.617,1651.07 117.96,1647.09 118.457,1646.91Z" style="fill:white;"/>
                </g>
                <g transform="matrix(2.12101,0,0,1.79725,107.812,-2751.75)">
                    <path d="M118.482,1656.29C119.194,1656.04 132.129,1655.9 132.881,1656.55C133.632,1657.19 133.665,1661.52 133.087,1661.9C132.508,1662.27 119.149,1662.53 118.561,1662.13C117.974,1661.74 117.77,1656.54 118.482,1656.29Z" style="fill:white;"/>
                </g>
                <g transform="matrix(0.724747,-0.216822,0.216822,0.724747,54.2167,133.936)">
                    <path d="M346.05,180.696C347.512,180.729 352.84,183.441 353.56,185.032C354.28,186.624 354.047,192.493 353.56,193.705C353.074,194.916 347.535,197.976 346.05,198.041C344.565,198.106 339.355,194.709 338.54,193.705C337.724,192.7 337.853,185.992 338.54,185.032C339.226,184.072 344.588,180.663 346.05,180.696Z" style="fill:white;"/>
                </g>
                <g transform="matrix(0.723383,0.221332,-0.221332,0.723383,137.589,-0.0191741)">
                    <path d="M346.05,180.696C347.512,180.729 352.84,183.441 353.56,185.032C354.28,186.624 354.047,192.493 353.56,193.705C353.074,194.916 347.535,197.976 346.05,198.041C344.565,198.106 339.355,194.709 338.54,193.705C337.724,192.7 337.853,185.992 338.54,185.032C339.226,184.072 344.588,180.663 346.05,180.696Z" style="fill:white;"/>
                </g>
                <g transform="matrix(0.750041,0.0985335,-0.0985335,0.750041,105.184,54.5077)">
                    <path d="M346.05,180.696C347.512,180.729 352.84,183.441 353.56,185.032C354.28,186.624 354.047,192.493 353.56,193.705C353.074,194.916 347.535,197.976 346.05,198.041C344.565,198.106 339.355,194.709 338.54,193.705C337.724,192.7 337.853,185.992 338.54,185.032C339.226,184.072 344.588,180.663 346.05,180.696Z" style="fill:white;"/>
                </g>
            </g>
        </g>
    </g>
</svg>
