<?xml version="1.0" encoding="UTF-8" standalone="no"?>
<!DOCTYPE svg PUBLIC "-//W3C//DTD SVG 1.1//EN" "http://www.w3.org/Graphics/SVG/1.1/DTD/svg11.dtd">
<svg width="100%" height="100%" viewBox="0 0 232 297" version="1.1" xmlns="http://www.w3.org/2000/svg" xmlns:xlink="http://www.w3.org/1999/xlink" xml:space="preserve" style="fill-rule:evenodd;clip-rule:evenodd;stroke-linejoin:round;stroke-miterlimit:1.41421;">
    <g transform="matrix(1,0,0,1,-34,-2)">
        <g transform="matrix(2.90396,0,0,2.92322,4.80211,3.75404)">
            <g id="LockIcon" transform="matrix(1.42652,0,0,1.41713,-368.615,-351.618)">
                <path d="M277.52,274.417C277.395,267.096 277.38,259.373 277.854,258.662C278.773,257.28 283.314,252.347 285.086,251.43C286.857,250.512 300.586,250.568 301.819,251.43C303.051,252.292 308.129,257.066 309.051,258.662C309.524,259.48 309.511,267.148 309.387,274.417L301.888,274.417C302.008,269.924 302.143,262.585 301.782,261.57C301.255,260.093 298.953,258.487 297.92,257.708C296.886,256.93 290.16,257.371 288.985,257.708C287.809,258.046 285.738,260.402 285.123,261.57C284.699,262.376 284.86,269.86 285.001,274.417L277.52,274.417Z" style="fill:white;"/>
                <path d="M318.44,278.66C317.889,277.308 312.579,272.648 310.694,271.824C308.809,271 278.541,271.182 276.471,271.824C274.401,272.466 269.49,276.752 268.725,278.66C267.959,280.569 267.65,307.057 268.725,308.84C269.8,310.623 274.767,315.161 276.471,315.677C278.175,316.193 308.89,316.137 310.694,315.677C312.497,315.216 317.829,310.135 318.44,308.84C319.051,307.545 318.991,280.013 318.44,278.66ZM290.927,297.085C290.927,297.085 286.061,294.74 285.612,294.017C285.164,293.293 285.132,286.196 285.612,284.974C286.092,283.752 291.873,280.453 293.443,280.453C295.013,280.453 300.82,284.207 301.274,284.974C301.727,285.741 301.8,292.982 301.274,294.017C300.748,295.051 295.959,297.085 295.959,297.085C295.959,297.085 298.068,306.023 297.615,306.75C297.162,307.477 289.784,307.178 289.271,306.75C288.757,306.323 290.927,297.085 290.927,297.085Z" style="fill:white;"/>
            </g>
        </g>
    </g>
</svg>
