<?xml version="1.0" encoding="UTF-8" standalone="no"?>
<!DOCTYPE svg PUBLIC "-//W3C//DTD SVG 1.1//EN" "http://www.w3.org/Graphics/SVG/1.1/DTD/svg11.dtd">
<svg width="100%" height="100%" viewBox="0 0 264 194" version="1.1" xmlns="http://www.w3.org/2000/svg" xmlns:xlink="http://www.w3.org/1999/xlink" xml:space="preserve" style="fill-rule:evenodd;clip-rule:evenodd;stroke-linejoin:round;stroke-miterlimit:1.41421;">
    <g transform="matrix(1,0,0,1,-18,-53)">
        <g id="Mail" transform="matrix(3.12988,0,0,3.19982,-2123.69,-6240.76)">
            <path d="M691.283,1971.23C693.182,1968.55 759.345,1968.6 762.456,1971.52C765.567,1974.44 767.11,2019.1 762.277,2022.96C757.443,2026.81 697.542,2024.96 691.319,2022.64C685.432,2020.45 687.185,1977.01 691.283,1971.23ZM711.756,1994.89C708.045,1990.68 704.614,1986.66 700.883,1982.25C698.886,1979.89 696.917,1977.51 694.934,1975.14L694.839,1975.03C694.875,1975.06 694.91,1975.09 694.946,1975.12C701.291,1980.4 702.995,1981.79 709.609,1987.43C712.064,1989.53 715.577,1992.62 717.966,1994.79C721.054,1997.59 721.429,1997.98 723.899,2000.35L723.9,2000.32L725.757,2002.18L725.952,2002.38L725.952,2002.42L727.694,2000.68C728.405,2000.01 729.108,1999.33 729.828,1998.67C731.393,1997.23 732.963,1995.8 734.549,1994.39C737.454,1991.8 741.751,1988.08 744.717,1985.56C747.604,1983.1 750.501,1980.66 753.399,1978.21C754.596,1977.2 755.8,1976.2 757.001,1975.2L757.11,1975.11L757.013,1975.22L753.758,1979.07C751.024,1982.25 748.301,1985.44 745.556,1988.61C744.142,1990.24 742.391,1992.24 740.621,1994.24L760.059,2018.44L737.024,1998.29C736.41,1998.97 735.824,1999.62 735.284,2000.22C733.616,2002.06 731.931,2003.88 730.241,2005.7C729.468,2006.53 728.676,2007.35 727.894,2008.17L727.871,2008.19C727.586,2008.44 727.526,2008.53 727.187,2008.71C726.932,2008.84 726.658,2008.93 726.375,2008.98C726.233,2009.01 726.089,2009.02 725.945,2009.02C725.864,2009.02 725.782,2009.01 725.701,2009C725.639,2009 725.576,2009 725.515,2008.99C725.202,2008.92 724.984,2008.86 724.7,2008.71C724.573,2008.65 724.451,2008.57 724.335,2008.48C724.093,2008.3 723.839,2008.03 723.633,2007.82L721.502,2005.59C718.297,2002.14 717.349,2001.15 715.259,1998.82L692.837,2018.44L711.756,1994.89Z" style="fill:white;"/>
        </g>
    </g>
</svg>
