<?xml version="1.0" encoding="UTF-8" standalone="no"?>
<!DOCTYPE svg PUBLIC "-//W3C//DTD SVG 1.1//EN" "http://www.w3.org/Graphics/SVG/1.1/DTD/svg11.dtd">
<svg width="100%" height="100%" viewBox="0 0 248 265" version="1.1" xmlns="http://www.w3.org/2000/svg" xmlns:xlink="http://www.w3.org/1999/xlink" xml:space="preserve" style="fill-rule:evenodd;clip-rule:evenodd;stroke-linejoin:round;stroke-miterlimit:1.41421;">
    <g transform="matrix(1,0,0,1,-26,-18)">
        <g id="MoreIcon" transform="matrix(4.95963,0,0,4.87633,-2782.89,-102.915)">
            <path d="M610.339,45.731C611.371,46.012 612.191,46.715 612.8,47.84C613.41,48.965 613.832,50.184 614.066,51.496C614.3,52.809 614.277,54.075 613.996,55.293C613.714,56.512 613.152,57.309 612.308,57.684C611.652,57.871 609.918,58.012 607.105,58.106C604.293,58.2 601.058,58.2 597.402,58.106C597.121,62.231 596.839,65.817 596.558,68.864C596.277,71.911 595.949,73.668 595.574,74.137C594.73,75.45 593.535,76.246 591.988,76.528C590.441,76.809 589.339,76.856 588.683,76.668C588.402,76.668 588.121,76.129 587.839,75.051C587.558,73.973 587.277,72.567 586.996,70.832C586.714,69.098 586.457,67.106 586.222,64.856C585.988,62.606 585.777,60.262 585.589,57.825C581.746,57.731 578.324,57.543 575.324,57.262C572.324,56.981 570.589,56.606 570.121,56.137C569.558,55.856 569.16,55.434 568.925,54.871C568.691,54.309 568.55,53.723 568.504,53.114C568.457,52.504 568.48,51.895 568.574,51.286C568.668,50.676 568.761,50.184 568.855,49.809C569.043,49.34 570.707,48.895 573.847,48.473C576.988,48.051 580.668,47.606 584.886,47.137C584.699,43.575 584.605,40.434 584.605,37.715C584.605,34.996 584.699,33.262 584.886,32.512C585.168,31.387 585.918,30.403 587.136,29.559C588.355,28.715 589.691,28.059 591.144,27.59C592.597,27.121 593.957,26.911 595.222,26.957C596.488,27.004 597.308,27.403 597.683,28.153C597.871,28.715 597.988,30.707 598.035,34.129C598.082,37.551 598.011,41.512 597.824,46.012C600.824,45.825 603.472,45.684 605.769,45.59C608.066,45.496 609.589,45.543 610.339,45.731Z" style="fill:white;fill-rule:nonzero;"/>
        </g>
    </g>
</svg>
