<?xml version="1.0" encoding="UTF-8" standalone="no"?>
<!DOCTYPE svg PUBLIC "-//W3C//DTD SVG 1.1//EN" "http://www.w3.org/Graphics/SVG/1.1/DTD/svg11.dtd">
<svg width="100%" height="100%" viewBox="0 0 238 255" version="1.1" xmlns="http://www.w3.org/2000/svg" xmlns:xlink="http://www.w3.org/1999/xlink" xml:space="preserve" style="fill-rule:evenodd;clip-rule:evenodd;stroke-linejoin:round;stroke-miterlimit:1.41421;">
    <g transform="matrix(1,0,0,1,-31,-23)">
        <g id="MusicIcon" transform="matrix(2.23925,0,0,2.29075,-1478.97,-4530.24)">
            <path d="M703.439,2058.43C702.38,2030.57 694.409,2014.34 692.091,2006.57C690.39,2000.87 772.941,1988.26 773.867,1993.45C774.793,1998.63 776.295,2060.32 775.478,2065.14C773.976,2073.99 763.701,2083.32 755.229,2082.07C746.758,2080.82 738.459,2068.96 738.264,2062.57C738.082,2056.63 748.045,2047.99 752.54,2045.52C755.191,2044.07 765.762,2047.99 765.762,2047.99C766.589,2033.72 762.626,2019.49 761.339,2017.13C760.177,2015 710.85,2019.05 710.999,2022.03C711.147,2025 720.028,2070.2 718.97,2077.9C717.717,2087.01 704.322,2093.84 698.884,2093.98C693.445,2094.12 680.027,2084.73 679.277,2077.26C678.527,2069.78 685.052,2057.3 690.782,2056.35C695.378,2055.58 703.439,2058.43 703.439,2058.43Z" style="fill:white;"/>
        </g>
    </g>
</svg>
