<?xml version="1.0" encoding="UTF-8" standalone="no"?>
<!DOCTYPE svg PUBLIC "-//W3C//DTD SVG 1.1//EN" "http://www.w3.org/Graphics/SVG/1.1/DTD/svg11.dtd">
<svg width="100%" height="100%" viewBox="0 0 326 235" version="1.1" xmlns="http://www.w3.org/2000/svg" xmlns:xlink="http://www.w3.org/1999/xlink" xml:space="preserve" style="fill-rule:evenodd;clip-rule:evenodd;stroke-linejoin:round;stroke-miterlimit:1.41421;">
    <g transform="matrix(1,0,0,1,13,-33)">
        <g id="PlayOnIcon" transform="matrix(3.33542,0,0,3.33542,-22.2732,-19.3574)">
            <g transform="matrix(0.948739,0,0,0.949339,-20.4248,2.07714)">
                <path d="M29.202,78.034L29.202,69.047L29.86,61.354L29.202,51.458L29.671,39.791L29.202,32.949L29.202,25.782L32.724,18.908L40.063,20.108L57.299,29.243L72.082,40.874L78.399,46.793L80.622,51.784L78.399,57.023L72.082,62.941L57.299,74.573L40.063,83.707L32.724,84.907L29.202,78.034Z" style="fill:white;"/>
            </g>
            <g transform="matrix(0.948739,0,0,0.949339,19.5298,0.917492)">
                <path d="M29.202,78.034L29.202,69.047L29.86,61.354L29.202,51.458L29.671,39.791L29.202,32.949L29.202,25.782L32.724,18.908L40.063,20.108L57.299,29.243L72.082,40.874L78.399,46.793L80.622,51.784L78.399,57.023L72.082,62.941L57.299,74.573L40.063,83.707L32.724,84.907L29.202,78.034Z" style="fill:white;"/>
            </g>
        </g>
    </g>
</svg>
