<?xml version="1.0" encoding="UTF-8" standalone="no"?>
<!DOCTYPE svg PUBLIC "-//W3C//DTD SVG 1.1//EN" "http://www.w3.org/Graphics/SVG/1.1/DTD/svg11.dtd">
<svg width="100%" height="100%" viewBox="0 0 286 204" version="1.1" xmlns="http://www.w3.org/2000/svg" xmlns:xlink="http://www.w3.org/1999/xlink" xml:space="preserve" style="fill-rule:evenodd;clip-rule:evenodd;stroke-linejoin:round;stroke-miterlimit:1.41421;">
    <g transform="matrix(1,0,0,1,-7,-48)">
        <g transform="matrix(2.90396,0,0,2.92322,4.80211,3.75404)">
            <g id="PlayIconRight2" transform="matrix(-1.27431,0,0,1.35435,1128.58,-241.819)">
                <g id="PlayIcon" transform="matrix(0.851748,0.00739996,-0.00678927,0.781456,817.751,175.393)">
                    <path d="M34.839,81.438C31.576,80.099 30.082,22.3 33.134,20.526C36.826,18.38 76.483,46.61 76.127,49.942C75.708,53.871 38.777,83.054 34.839,81.438Z" style="fill:white;"/>
                </g>
                <g id="PlayIcon1" transform="matrix(0.851748,0.00739996,-0.00678927,0.781456,784.03,175.393)">
                    <path d="M34.839,81.438C31.576,80.099 30.082,22.3 33.134,20.526C36.826,18.38 76.483,46.61 76.127,49.942C75.708,53.871 38.777,83.054 34.839,81.438Z" style="fill:white;"/>
                </g>
            </g>
        </g>
    </g>
</svg>
