<?xml version="1.0" encoding="UTF-8" standalone="no"?>
<!DOCTYPE svg PUBLIC "-//W3C//DTD SVG 1.1//EN" "http://www.w3.org/Graphics/SVG/1.1/DTD/svg11.dtd">
<svg width="100%" height="100%" viewBox="0 0 226 307" version="1.1" xmlns="http://www.w3.org/2000/svg" xmlns:xlink="http://www.w3.org/1999/xlink" xml:space="preserve" style="fill-rule:evenodd;clip-rule:evenodd;stroke-linejoin:round;stroke-miterlimit:1.41421;">
    <g transform="matrix(1,0,0,1,-39,3)">
        <g transform="matrix(2.90396,0,0,2.92322,4.80211,3.75404)">
            <g id="PotionHalfFull" transform="matrix(1.09063,0,0,1.09063,-1463.78,-465.316)">
                <g id="PotionHalfFull1" transform="matrix(1,0,0,1,316.098,-66.1914)">
                    <path d="M1063.98,524.09L1063.98,505.86L1081.04,505.86L1081.04,524.196C1087.25,526.288 1093.84,529.626 1095.35,531.154C1097.64,533.469 1105.54,547.8 1104.82,552.356C1104.11,556.912 1098.75,570.328 1095.35,573.558C1091.96,576.789 1078.75,582.34 1072.49,582.34C1066.22,582.34 1053.49,576.25 1049.62,573.558C1045.75,570.866 1040,556.564 1040.15,552.356C1040.3,548.148 1045.65,534.42 1049.62,531.154C1052.19,529.04 1058.23,525.983 1063.98,524.09ZM1069.26,528.307L1069.26,509.972L1075.76,509.972L1075.76,528.351C1081.55,529.646 1089.58,533.518 1091.12,535.078C1092.99,536.964 1099.42,548.643 1098.84,552.356C1098.26,556.069 1093.89,567.002 1091.12,569.634C1088.36,572.267 1077.6,576.791 1072.49,576.791C1067.38,576.791 1057.01,571.828 1053.86,569.634C1050.7,567.44 1046.01,555.786 1046.14,552.356C1046.26,548.927 1050.62,537.74 1053.86,535.078C1056.52,532.886 1063.77,529.451 1069.26,528.307Z" style="fill:white;"/>
                    <g transform="matrix(1,0,0,1,72.7598,20.6123)">
                        <path d="M1013.16,486.281C1012.91,485.889 1011.63,484.198 1010.85,483.97C1010.07,483.742 989.309,483.643 988.615,483.97C987.921,484.296 986.491,485.931 986.304,486.281C986.117,486.63 986.035,490.37 986.304,490.903C986.574,491.436 987.994,492.848 988.615,493.214C989.236,493.579 1010.4,493.347 1010.85,493.214C1011.31,493.08 1012.88,491.341 1013.16,490.903C1013.45,490.464 1013.42,486.673 1013.16,486.281Z" style="fill:white;"/>
                    </g>
                    <g transform="matrix(1,0,0,1,72.1538,20.6123)">
                        <path d="M1007.77,476.622C1007.44,476.106 1006.09,474.741 1005.75,474.601C1005.4,474.46 995.337,474.4 994.869,474.601C994.402,474.801 992.974,476.1 992.848,476.622C992.722,477.144 992.848,482.686 992.848,482.686L1007.77,482.686C1007.77,482.686 1008.1,477.138 1007.77,476.622Z" style="fill:white;"/>
                    </g>
                </g>
                <path d="M1409.42,486.907C1408.61,490.368 1405.47,497.98 1403.43,499.922C1401.23,502.018 1392.66,505.62 1388.59,505.62C1384.53,505.62 1376.27,501.669 1373.76,499.922C1371.44,498.31 1368.08,490.281 1367.65,486.907L1409.42,486.907Z" style="fill:white;"/>
            </g>
        </g>
    </g>
</svg>
