<?xml version="1.0" encoding="UTF-8" standalone="no"?>
<!DOCTYPE svg PUBLIC "-//W3C//DTD SVG 1.1//EN" "http://www.w3.org/Graphics/SVG/1.1/DTD/svg11.dtd">
<svg width="100%" height="100%" viewBox="0 0 226 307" version="1.1" xmlns="http://www.w3.org/2000/svg" xmlns:xlink="http://www.w3.org/1999/xlink" xml:space="preserve" style="fill-rule:evenodd;clip-rule:evenodd;stroke-linejoin:round;stroke-miterlimit:1.41421;">
    <g transform="matrix(1,0,0,1,-39,3)">
        <g transform="matrix(2.90396,0,0,2.92322,4.80211,3.75404)">
            <g id="PotionEmpty" transform="matrix(1.09063,0,0,1.09063,-1043.21,-515.026)">
                <path d="M994.457,503.477L994.457,485.248L1011.52,485.248L1011.52,503.584C1017.73,505.676 1024.32,509.014 1025.83,510.542C1028.12,512.856 1036.02,527.188 1035.3,531.744C1034.59,536.3 1029.23,549.716 1025.83,552.946C1022.44,556.176 1009.23,561.728 1002.97,561.728C996.701,561.728 983.971,555.638 980.1,552.946C976.23,550.254 970.475,535.952 970.629,531.744C970.783,527.535 976.133,513.808 980.1,510.542C982.668,508.427 988.713,505.37 994.457,503.477ZM999.74,507.695L999.74,489.36L1006.24,489.36L1006.24,507.738C1012.03,509.033 1020.06,512.906 1021.6,514.466C1023.47,516.352 1029.9,528.031 1029.32,531.744C1028.74,535.457 1024.37,546.389 1021.6,549.022C1018.84,551.654 1008.08,556.179 1002.97,556.179C997.864,556.179 987.491,551.216 984.336,549.022C981.182,546.828 976.493,535.173 976.618,531.744C976.744,528.314 981.103,517.128 984.336,514.466C986.999,512.274 994.245,508.839 999.74,507.695Z" style="fill:white;"/>
                <g transform="matrix(1,0,0,1,3.23924,0)">
                    <path d="M1013.16,486.281C1012.91,485.889 1011.63,484.198 1010.85,483.97C1010.07,483.742 989.309,483.643 988.615,483.97C987.921,484.296 986.491,485.931 986.304,486.281C986.117,486.63 986.035,490.37 986.304,490.903C986.574,491.436 987.994,492.848 988.615,493.214C989.236,493.579 1010.4,493.347 1010.85,493.214C1011.31,493.08 1012.88,491.341 1013.16,490.903C1013.45,490.464 1013.42,486.673 1013.16,486.281Z" style="fill:white;"/>
                </g>
                <g transform="matrix(1,0,0,1,2.63328,0)">
                    <path d="M1007.77,476.622C1007.44,476.106 1006.09,474.741 1005.75,474.601C1005.4,474.46 995.337,474.4 994.869,474.601C994.402,474.801 992.974,476.1 992.848,476.622C992.722,477.144 992.848,482.686 992.848,482.686L1007.77,482.686C1007.77,482.686 1008.1,477.138 1007.77,476.622Z" style="fill:white;"/>
                </g>
            </g>
        </g>
    </g>
</svg>
