<?xml version="1.0" encoding="UTF-8" standalone="no"?>
<!DOCTYPE svg PUBLIC "-//W3C//DTD SVG 1.1//EN" "http://www.w3.org/Graphics/SVG/1.1/DTD/svg11.dtd">
<svg width="100%" height="100%" viewBox="0 0 280 176" version="1.1" xmlns="http://www.w3.org/2000/svg" xmlns:xlink="http://www.w3.org/1999/xlink" xml:space="preserve" style="fill-rule:evenodd;clip-rule:evenodd;stroke-linejoin:round;stroke-miterlimit:1.41421;">
    <g transform="matrix(1,0,0,1,-20,-68)">
        <g transform="matrix(3.10923,0,0,3.10923,-1526.17,-3994.06)">
            <g id="ProfileIcon">
                <path d="M580.654,1312.63L573.344,1306.48L559.837,1307.92L537.607,1306.6L524.142,1308.01L505.681,1306.7L497.536,1317.17L498.215,1353.08L503.474,1359.17L516.243,1358.23L534.499,1359.17L553.705,1358.23L572.642,1359.17L580.654,1351.35L580.654,1312.63ZM509.751,1337.52C512.708,1338.87 516.579,1340.28 518.872,1340.28C521.208,1340.28 525.301,1338.95 528.273,1337.57C529.314,1338.37 530.129,1339.12 530.53,1339.65C531.98,1341.55 534.053,1347.45 533.731,1349.65C532.998,1354.66 504.793,1354.05 503.988,1349.65C503.67,1347.91 505.997,1340.78 507.65,1339.24C508.082,1338.84 508.827,1338.22 509.751,1337.52ZM542.081,1342.69C543.455,1342.31 568.433,1342.09 569.884,1343.07C571.335,1344.05 571.399,1350.62 570.282,1351.2C569.165,1351.77 543.368,1352.16 542.234,1351.56C541.1,1350.96 540.707,1343.07 542.081,1342.69ZM542.032,1330.19C542.99,1329.91 569.937,1329.09 570.863,1329.41C571.79,1329.74 571.215,1336.73 569.887,1337.28C568.559,1337.83 542.516,1337.82 541.463,1337.17C540.41,1336.52 541.073,1330.47 542.032,1330.19ZM519.415,1312.92C521.821,1312.92 526.877,1315.52 527.708,1316.45C528.538,1317.38 531.401,1323.14 531.142,1324.97C530.883,1326.8 528.939,1332.19 527.708,1333.49C526.476,1334.78 521.688,1337.02 519.415,1337.02C517.143,1337.02 512.527,1334.57 511.123,1333.49C509.72,1332.4 507.633,1326.66 507.689,1324.97C507.745,1323.28 509.685,1317.76 511.123,1316.45C512.562,1315.14 517.01,1312.92 519.415,1312.92ZM541.249,1316.12C542.221,1315.71 570.086,1314.77 571.388,1315.5C572.69,1316.24 571.882,1323.39 570.858,1323.94C569.835,1324.49 543.134,1324.91 541.641,1324.46C540.147,1324.02 540.276,1316.53 541.249,1316.12Z" style="fill:white;"/>
            </g>
        </g>
    </g>
</svg>
