<?xml version="1.0" encoding="UTF-8" standalone="no"?>
<!DOCTYPE svg PUBLIC "-//W3C//DTD SVG 1.1//EN" "http://www.w3.org/Graphics/SVG/1.1/DTD/svg11.dtd">
<svg width="100%" height="100%" viewBox="0 0 224 213" version="1.1" xmlns="http://www.w3.org/2000/svg" xmlns:xlink="http://www.w3.org/1999/xlink" xml:space="preserve" style="fill-rule:evenodd;clip-rule:evenodd;stroke-linejoin:round;stroke-miterlimit:1.41421;">
    <g transform="matrix(1,0,0,1,-38,-44)">
        <g id="PumpkinIcon" transform="matrix(1.92598,0,0,2.035,-1315.85,-3362.66)">
            <path d="M754.374,1696.1C755.318,1690.73 757.518,1680.24 760.42,1679.15C764.338,1677.68 774.048,1679.85 774.224,1684.14C774.317,1686.39 770.353,1691.5 766.575,1695.84C806.431,1688.82 816.731,1724.41 813.288,1741.75C808.271,1767 783.854,1773.56 759.548,1773.56C735.242,1773.56 712.557,1761.87 708.748,1739.49C705.569,1720.8 718.377,1690.86 754.374,1696.1ZM761.1,1748.59C761.737,1748.58 767.109,1743.7 768.074,1743.63C769.038,1743.57 774.72,1748.8 775.762,1748.8C776.804,1748.8 787.1,1741.06 787.731,1741.36C788.362,1741.66 779.918,1758.18 778.885,1758.33C777.851,1758.48 770.019,1753.11 769.082,1753.11C768.145,1753.11 762.611,1759.17 761.1,1759.17C759.59,1759.17 753.795,1753.11 753.118,1753.11C752.441,1753.11 744.411,1758.33 743.316,1758.33C742.221,1758.33 733.722,1741.59 734.469,1741.36C735.216,1741.12 745.506,1748.8 746.438,1748.8C747.371,1748.8 753.364,1743.65 754.127,1743.63C754.889,1743.62 760.463,1748.59 761.1,1748.59ZM749.34,1732.37C746.241,1734.88 728.934,1734.77 727.808,1731.4C726.682,1728.04 728.062,1714.19 733.567,1715.12C739.466,1716.13 752.44,1729.85 749.34,1732.37ZM772.847,1732.37C775.947,1734.88 793.254,1734.77 794.38,1731.4C795.506,1728.04 794.125,1714.19 788.621,1715.12C782.722,1716.13 769.747,1729.85 772.847,1732.37Z" style="fill:white;"/>
        </g>
    </g>
</svg>
