<?xml version="1.0" encoding="UTF-8" standalone="no"?>
<!DOCTYPE svg PUBLIC "-//W3C//DTD SVG 1.1//EN" "http://www.w3.org/Graphics/SVG/1.1/DTD/svg11.dtd">
<svg width="100%" height="100%" viewBox="0 0 262 242" version="1.1" xmlns="http://www.w3.org/2000/svg" xmlns:xlink="http://www.w3.org/1999/xlink" xml:space="preserve" style="fill-rule:evenodd;clip-rule:evenodd;stroke-linejoin:round;stroke-miterlimit:1.41421;">
    <g transform="matrix(1,0,0,1,-21,-29)">
        <g transform="matrix(2.90396,0,0,2.92322,4.80211,3.75404)">
            <g id="RankingIcon1" transform="matrix(1.33001,0,0,1.33001,-1158.78,-563.775)">
                <g transform="matrix(1.97988e-16,-2.32165,2.80046,1.23126e-16,-3706.2,763.226)">
                    <path d="M118.376,1637.63C118.88,1637.36 132.985,1636.7 133.66,1637.19C134.334,1637.67 133.941,1642.53 133.411,1642.89C132.881,1643.26 119.028,1643.38 118.254,1643.09C117.481,1642.8 117.872,1637.89 118.376,1637.63Z" style="fill:white;"/>
                </g>
                <g transform="matrix(3.09938e-16,-3.63438,3.38889,1.48998e-16,-4679.66,918.06)">
                    <path d="M118.091,1646.54C118.587,1646.36 132.643,1646.09 133.123,1646.3C133.603,1646.51 133.703,1651.52 133.015,1651.88C132.327,1652.24 118.707,1651.93 118.162,1651.5C117.617,1651.07 117.595,1646.73 118.091,1646.54Z" style="fill:white;"/>
                </g>
                <g transform="matrix(1.15208e-16,-1.35107,2.78384,1.2238e-16,-3687.21,648.808)">
                    <path d="M118.482,1656.29C119.194,1656.04 132.353,1655.55 133.104,1656.19C133.855,1656.84 133.71,1661.61 133.131,1661.98C132.553,1662.36 119.149,1662.53 118.561,1662.13C117.974,1661.74 117.77,1656.54 118.482,1656.29Z" style="fill:white;"/>
                </g>
            </g>
        </g>
    </g>
</svg>
