<?xml version="1.0" encoding="UTF-8" standalone="no"?>
<!DOCTYPE svg PUBLIC "-//W3C//DTD SVG 1.1//EN" "http://www.w3.org/Graphics/SVG/1.1/DTD/svg11.dtd">
<svg width="100%" height="100%" viewBox="0 0 222 348" version="1.1" xmlns="http://www.w3.org/2000/svg" xmlns:xlink="http://www.w3.org/1999/xlink" xml:space="preserve" style="fill-rule:evenodd;clip-rule:evenodd;stroke-linejoin:round;stroke-miterlimit:1.41421;">
    <g transform="matrix(1,0,0,1,-39,26)">
        <g id="RankingIcon" transform="matrix(2.71564,0,0,2.71564,-2127.36,-645.884)">
            <g transform="matrix(1,0,0,1,-2.31696,-56.4766)">
                <g>
                    <path d="M819.029,368.431C828.572,373.091 841.014,374.425 852.189,372.448L846.391,404.322L831.032,395.363L813.579,399.129L819.029,368.431ZM865.005,368.35L871.883,381.601L855.109,388.939L857.338,371.274C860.039,370.511 862.617,369.536 865.005,368.35ZM859.655,358.044C859.437,358.076 859.217,358.102 858.998,358.123L859.134,357.041L859.655,358.044Z" style="fill:white;"/>
                </g>
            </g>
            <g transform="matrix(1,0,0,1,-2.31696,-56.4766)">
                <path d="M841.141,308.348C868.595,308.588 876.926,328.978 876.146,343.538C874.433,375.481 808.105,375.655 805.746,343.538C804.678,328.997 813.297,308.588 840.751,308.348L840.751,308.346L840.946,308.347L841.141,308.346L841.141,308.348ZM841.287,354.855C842.245,354.855 844.522,358.967 844.018,359.842C843.56,360.636 839.248,360.833 838.603,359.864C837.967,358.909 840.328,354.855 841.287,354.855ZM821.064,339.292C826.272,335.782 833.215,336.87 836.22,341.264C839.225,345.658 837.52,351.865 832.312,355.375C827.104,358.885 820.436,358.168 817.43,353.774C814.425,349.38 815.856,342.803 821.064,339.292ZM847.678,336.047C852.699,332.402 860.209,333.953 864.362,338.473C868.705,343.199 867.177,350.788 862.156,354.432C857.134,358.076 849.97,356.843 846.167,351.679C842.363,346.515 842.656,339.691 847.678,336.047Z" style="fill:white;"/>
                <g transform="matrix(0.180817,0,0,0.180817,627.448,240.875)">
                    <circle cx="1120.77" cy="574.183" r="11.229" style="fill:white;"/>
                </g>
                <g transform="matrix(0.180817,0,0,0.180817,647.95,240.705)">
                    <circle cx="1120.77" cy="574.183" r="11.229" style="fill:white;"/>
                </g>
            </g>
            <g transform="matrix(0.5349,0.0460853,-0.0778737,0.903859,162.749,-420.846)">
                <path d="M1320.85,667.329L1321,667.323L1321.14,667.316L1321.28,667.31L1321.43,667.305L1321.57,667.3L1321.71,667.295L1321.85,667.29L1321.99,667.286L1322.13,667.282L1322.28,667.279L1322.41,667.276L1322.56,667.273L1322.69,667.271L1322.83,667.269L1322.97,667.267L1323.11,667.266L1323.25,667.265L1323.38,667.264L1323.52,667.264L1323.66,667.264L1323.8,667.265L1323.93,667.265L1324.07,667.266L1324.2,667.268L1324.34,667.269L1324.47,667.272L1324.61,667.274L1324.74,667.277L1324.87,667.28L1325.01,667.283L1325.14,667.287L1325.27,667.291L1325.4,667.295L1325.53,667.3L1325.66,667.305L1325.8,667.31L1325.92,667.316L1326.06,667.321L1326.18,667.328L1326.31,667.334L1326.44,667.341L1326.57,667.348L1326.7,667.356L1326.83,667.363L1326.95,667.371L1327.08,667.38L1327.21,667.388L1327.33,667.397L1327.46,667.406L1327.59,667.416L1327.71,667.426L1327.84,667.436L1328.08,667.457L1328.33,667.479L1328.58,667.502L1328.82,667.527L1329.06,667.552L1329.3,667.579L1329.54,667.607L1329.78,667.635L1330.02,667.665L1330.25,667.696L1330.48,667.728L1330.72,667.76L1330.95,667.794L1331.17,667.829L1331.4,667.865L1331.63,667.901L1331.85,667.939L1332.08,667.978L1332.3,668.017L1332.52,668.057L1332.74,668.099L1332.95,668.141L1333.17,668.184L1333.38,668.228L1333.59,668.272L1333.8,668.318L1334.01,668.364L1334.22,668.411L1334.43,668.459L1334.63,668.507L1334.84,668.556L1335.04,668.607L1335.24,668.657L1335.44,668.709L1335.63,668.761L1335.83,668.814L1336.02,668.867L1336.22,668.921L1336.41,668.976L1336.6,669.031L1336.79,669.087L1336.97,669.144L1337.16,669.201L1337.34,669.258L1337.53,669.317L1337.71,669.375L1337.89,669.435L1338.07,669.494L1338.24,669.555L1338.42,669.615L1338.59,669.677L1338.76,669.738L1338.93,669.8L1339.1,669.863L1339.27,669.926L1339.44,669.989L1339.6,670.053L1339.76,670.116L1339.93,670.181L1340.09,670.246L1340.25,670.311L1340.4,670.376L1340.56,670.441L1340.71,670.507L1340.87,670.573L1341.02,670.64L1341.17,670.706L1341.32,670.773L1341.46,670.84L1341.61,670.907L1341.75,670.975L1341.9,671.042L1342.04,671.11L1342.18,671.178L1342.32,671.246L1342.45,671.314L1342.59,671.382L1342.72,671.45L1342.86,671.518L1342.99,671.587L1343.12,671.655L1343.25,671.723L1343.37,671.792L1343.5,671.86L1343.62,671.928L1343.75,671.997L1343.87,672.065L1343.99,672.133L1344.11,672.201L1344.23,672.269L1344.34,672.337L1344.46,672.405L1344.57,672.472L1344.68,672.54L1344.79,672.607L1344.9,672.674L1345.01,672.741L1345.11,672.808L1345.22,672.874L1345.32,672.941L1345.42,673.007L1345.53,673.073L1345.62,673.138L1345.72,673.203L1345.82,673.268L1345.91,673.333L1346.01,673.397L1346.1,673.461L1346.19,673.525L1346.28,673.588L1346.37,673.651L1346.46,673.713L1346.54,673.775L1346.63,673.836L1346.71,673.898L1346.79,673.959L1346.95,674.078L1347.11,674.196L1347.26,674.312L1347.4,674.425L1347.54,674.537L1347.67,674.646L1347.8,674.752L1347.92,674.856L1348.04,674.957L1348.15,675.055L1348.26,675.15L1348.37,675.242L1348.46,675.331L1348.56,675.416L1348.64,675.498L1348.73,675.577L1348.8,675.652L1348.88,675.723L1348.94,675.791L1349.01,675.854L1349.07,675.914L1349.12,675.97L1349.21,676.066L1349.29,676.146L1349.34,676.206L1349.37,676.247L1349.39,676.262L1349.39,676.265L1349.45,677.104L1348.49,677.724L1348.48,677.728L1347.06,677.761L1346.01,677.196L1346.01,677.192L1346.01,677.186L1345.99,677.164L1345.96,677.122L1345.91,677.061L1345.85,676.981L1345.82,676.936L1345.77,676.886L1345.73,676.832L1345.68,676.773L1345.63,676.711L1345.57,676.645L1345.51,676.575L1345.44,676.502L1345.37,676.425L1345.3,676.344L1345.22,676.261L1345.13,676.174L1345.05,676.084L1344.95,675.991L1344.86,675.896L1344.76,675.797L1344.65,675.696L1344.54,675.592L1344.43,675.486L1344.31,675.378L1344.19,675.267L1344.06,675.153L1343.99,675.097L1343.92,675.039L1343.86,674.981L1343.79,674.922L1343.72,674.863L1343.64,674.804L1343.57,674.744L1343.5,674.684L1343.42,674.623L1343.35,674.562L1343.27,674.5L1343.19,674.438L1343.11,674.376L1343.03,674.313L1342.94,674.25L1342.86,674.187L1342.78,674.124L1342.69,674.06L1342.6,673.996L1342.51,673.932L1342.42,673.867L1342.33,673.802L1342.24,673.737L1342.14,673.672L1342.05,673.606L1341.95,673.541L1341.86,673.475L1341.76,673.409L1341.66,673.343L1341.56,673.277L1341.45,673.21L1341.35,673.144L1341.24,673.077L1341.14,673.011L1341.03,672.944L1340.92,672.877L1340.81,672.811L1340.7,672.744L1340.58,672.677L1340.47,672.61L1340.35,672.543L1340.24,672.476L1340.12,672.41L1340,672.343L1339.88,672.276L1339.75,672.21L1339.63,672.143L1339.51,672.077L1339.38,672.01L1339.25,671.944L1339.12,671.878L1338.99,671.812L1338.86,671.746L1338.73,671.681L1338.59,671.615L1338.45,671.55L1338.32,671.485L1338.18,671.42L1338.04,671.356L1337.89,671.292L1337.75,671.228L1337.61,671.164L1337.46,671.1L1337.31,671.037L1337.16,670.974L1337.01,670.912L1336.86,670.85L1336.71,670.788L1336.55,670.726L1336.4,670.665L1336.24,670.604L1336.08,670.544L1335.92,670.484L1335.76,670.425L1335.59,670.366L1335.43,670.307L1335.26,670.249L1335.09,670.191L1334.92,670.134L1334.75,670.077L1334.58,670.021L1334.41,669.965L1334.23,669.91L1334.05,669.856L1333.87,669.802L1333.69,669.748L1333.51,669.695L1333.33,669.643L1333.14,669.592L1332.96,669.541L1332.77,669.49L1332.58,669.44L1332.39,669.391L1332.19,669.343L1332,669.295L1331.8,669.248L1331.6,669.202L1331.4,669.157L1331.2,669.112L1331,669.068L1330.8,669.025L1330.59,668.982L1330.38,668.94L1330.17,668.9L1329.96,668.86L1329.75,668.82L1329.53,668.782L1329.32,668.745L1329.1,668.708L1328.88,668.672L1328.66,668.637L1328.43,668.604L1328.21,668.571L1327.98,668.539L1327.76,668.508L1327.52,668.477L1327.41,668.463L1327.29,668.448L1327.18,668.434L1327.06,668.42L1326.94,668.407L1326.82,668.393L1326.71,668.38L1326.59,668.367L1326.47,668.355L1326.35,668.342L1326.23,668.33L1326.11,668.318L1325.99,668.307L1325.87,668.295L1325.74,668.284L1325.62,668.274L1325.5,668.263L1325.37,668.253L1325.25,668.243L1325.13,668.233L1325,668.224L1324.88,668.215L1324.75,668.206L1324.62,668.197L1324.5,668.189L1324.37,668.181L1324.24,668.174L1324.12,668.166L1323.99,668.159L1323.86,668.153L1323.73,668.146L1323.6,668.14L1323.47,668.134L1323.34,668.129L1323.21,668.123L1323.08,668.118L1322.94,668.114L1322.81,668.109L1322.68,668.105L1322.55,668.102L1322.41,668.098L1322.28,668.095L1322.14,668.093L1322.01,668.09L1321.87,668.088L1321.74,668.086L1321.6,668.085L1321.46,668.084L1321.32,668.083L1321.19,668.083L1321.05,668.083L1320.91,668.083L1320.77,668.083L1320.63,668.084L1320.49,668.086L1320.35,668.087L1320.21,668.089L1320.06,668.092L1319.92,668.094L1319.78,668.097L1319.63,668.101L1319.49,668.104L1319.35,668.108L1319.2,668.113L1319.06,668.118L1318.91,668.123L1318.77,668.128L1318.62,668.134L1318.47,668.14L1318.32,668.147L1318.17,668.154L1318.03,668.161L1317.88,668.169L1317.73,668.177L1317.58,668.186L1317.43,668.195L1317.28,668.204L1317.12,668.214L1316.97,668.224L1316.82,668.234L1316.67,668.245L1316.51,668.256L1316.36,668.268L1316.2,668.28L1316.05,668.292L1315.89,668.305L1315.74,668.318L1315.58,668.332L1315.42,668.346L1315.27,668.36L1315.11,668.375L1314.95,668.39L1314.79,668.406L1314.63,668.422L1314.47,668.438L1314.31,668.455L1314.15,668.472L1313.99,668.49L1313.82,668.508L1313.66,668.527L1313.5,668.546L1313.34,668.565L1313.17,668.585L1313.01,668.605L1312.84,668.626L1312.68,668.647L1312.51,668.669L1312.34,668.691L1312.18,668.713L1312.01,668.736L1311.84,668.759L1311.67,668.783L1311.5,668.807L1311.33,668.832L1311.16,668.857L1310.99,668.883L1310.82,668.909L1310.65,668.935L1310.48,668.962L1310.3,668.99L1310.13,669.018L1309.96,669.046L1309.78,669.075L1309.61,669.104L1309.43,669.134L1309.26,669.164L1309.08,669.195L1308.9,669.226L1308.73,669.257L1308.55,669.289L1308.37,669.322L1308.19,669.355L1308.01,669.389L1307.83,669.423L1307.65,669.457L1307.47,669.492L1307.29,669.528L1307.11,669.564L1306.92,669.6L1306.74,669.637L1306.56,669.674L1306.38,669.712L1306.19,669.751L1306.01,669.79L1305.82,669.829L1305.63,669.869L1305.45,669.91L1305.26,669.951L1305.07,669.992L1304.88,670.034L1304.69,670.077L1304.51,670.12L1304.69,670.068L1304.87,670.018L1305.05,669.967L1305.24,669.918L1305.42,669.868L1305.6,669.82L1305.78,669.771L1305.96,669.724L1306.14,669.677L1306.32,669.63L1306.5,669.584L1306.68,669.538L1306.86,669.493L1307.03,669.448L1307.21,669.404L1307.39,669.361L1307.57,669.318L1307.74,669.275L1307.92,669.233L1308.09,669.191L1308.27,669.15L1308.44,669.11L1308.62,669.069L1308.79,669.03L1308.96,668.991L1309.14,668.952L1309.31,668.914L1309.48,668.876L1309.65,668.839L1309.83,668.802L1310,668.766L1310.17,668.73L1310.34,668.695L1310.51,668.66L1310.68,668.626L1310.85,668.592L1311.02,668.558L1311.18,668.525L1311.35,668.493L1311.52,668.461L1311.69,668.429L1311.85,668.398L1312.02,668.367L1312.18,668.337L1312.35,668.308L1312.52,668.278L1312.68,668.249L1312.84,668.221L1313.01,668.193L1313.17,668.166L1313.34,668.139L1313.5,668.112L1313.66,668.086L1313.82,668.06L1313.98,668.035L1314.14,668.01L1314.31,667.986L1314.47,667.962L1314.63,667.938L1314.79,667.915L1314.94,667.893L1315.1,667.87L1315.26,667.849L1315.42,667.827L1315.58,667.806L1315.74,667.786L1315.89,667.766L1316.05,667.746L1316.2,667.727L1316.36,667.708L1316.52,667.69L1316.67,667.672L1316.83,667.654L1316.98,667.637L1317.13,667.62L1317.29,667.604L1317.44,667.588L1317.59,667.572L1317.74,667.557L1317.9,667.542L1318.05,667.528L1318.2,667.514L1318.35,667.5L1318.5,667.487L1318.65,667.475L1318.8,667.462L1318.95,667.45L1319.1,667.439L1319.25,667.427L1319.39,667.417L1319.54,667.406L1319.69,667.396L1319.84,667.386L1319.98,667.377L1320.13,667.368L1320.27,667.36L1320.42,667.352L1320.57,667.344L1320.71,667.336L1320.85,667.329Z" style="fill:white;"/>
            </g>
            <g transform="matrix(0.5349,0.0460853,-0.0778737,0.903859,165.352,-421.78)">
                <path d="M1341.04,661.999L1341.16,662.074L1341.28,662.149L1341.4,662.224L1341.52,662.299L1341.64,662.375L1341.76,662.45L1341.87,662.526L1341.99,662.602L1342.1,662.678L1342.22,662.754L1342.33,662.83L1342.44,662.906L1342.56,662.983L1342.66,663.059L1342.78,663.136L1342.88,663.213L1342.99,663.29L1343.1,663.367L1343.21,663.444L1343.31,663.521L1343.42,663.598L1343.53,663.676L1343.63,663.753L1343.73,663.831L1343.83,663.908L1343.94,663.986L1344.04,664.064L1344.14,664.142L1344.24,664.22L1344.34,664.297L1344.43,664.375L1344.53,664.454L1344.63,664.532L1344.72,664.61L1344.82,664.688L1344.91,664.766L1345.01,664.845L1345.1,664.923L1345.19,665.001L1345.28,665.08L1345.37,665.158L1345.46,665.236L1345.55,665.315L1345.64,665.393L1345.73,665.472L1345.82,665.55L1345.9,665.628L1345.99,665.707L1346.08,665.785L1346.16,665.864L1346.24,665.942L1346.33,666.02L1346.41,666.099L1346.49,666.177L1346.57,666.255L1346.65,666.334L1346.73,666.412L1346.81,666.49L1346.89,666.568L1346.97,666.646L1347.05,666.725L1347.2,666.88L1347.35,667.036L1347.5,667.191L1347.64,667.346L1347.78,667.501L1347.92,667.656L1348.06,667.81L1348.19,667.963L1348.33,668.116L1348.45,668.269L1348.58,668.421L1348.71,668.573L1348.83,668.724L1348.95,668.875L1349.07,669.024L1349.18,669.174L1349.29,669.322L1349.4,669.47L1349.51,669.617L1349.62,669.764L1349.72,669.909L1349.83,670.054L1349.92,670.198L1350.02,670.341L1350.12,670.483L1350.21,670.625L1350.3,670.765L1350.39,670.904L1350.48,671.043L1350.56,671.18L1350.64,671.316L1350.73,671.451L1350.81,671.585L1350.88,671.718L1350.96,671.85L1351.03,671.98L1351.1,672.11L1351.17,672.238L1351.24,672.364L1351.31,672.49L1351.37,672.614L1351.43,672.736L1351.49,672.858L1351.55,672.977L1351.61,673.096L1351.66,673.213L1351.72,673.328L1351.77,673.442L1351.82,673.554L1351.87,673.665L1351.92,673.774L1351.96,673.881L1352.01,673.987L1352.05,674.09L1352.09,674.193L1352.13,674.293L1352.17,674.392L1352.21,674.489L1352.25,674.584L1352.28,674.677L1352.31,674.768L1352.34,674.857L1352.38,674.945L1352.4,675.03L1352.43,675.114L1352.49,675.274L1352.53,675.426L1352.58,675.57L1352.62,675.704L1352.65,675.83L1352.68,675.946L1352.71,676.053L1352.73,676.151L1352.75,676.238L1352.77,676.315L1352.78,676.382L1352.79,676.439L1352.81,676.517L1352.81,676.545L1352.81,676.549L1352.31,677.335L1351.02,677.686L1351.01,677.686L1349.68,677.391L1349.09,676.628L1349.09,676.624L1349.09,676.607L1349.09,676.549L1349.1,676.507L1349.1,676.452L1349.1,676.388L1349.1,676.313L1349.1,676.228L1349.1,676.134L1349.09,676.03L1349.09,675.917L1349.08,675.795L1349.07,675.663L1349.06,675.523L1349.05,675.374L1349.04,675.297L1349.03,675.217L1349.02,675.136L1349.01,675.052L1349,674.967L1348.99,674.879L1348.98,674.79L1348.96,674.698L1348.95,674.605L1348.93,674.51L1348.92,674.413L1348.9,674.314L1348.88,674.213L1348.86,674.111L1348.84,674.006L1348.82,673.9L1348.8,673.793L1348.77,673.683L1348.75,673.573L1348.72,673.46L1348.7,673.346L1348.67,673.23L1348.64,673.113L1348.61,672.994L1348.57,672.873L1348.54,672.751L1348.5,672.628L1348.47,672.503L1348.43,672.377L1348.39,672.249L1348.35,672.12L1348.3,671.99L1348.26,671.858L1348.21,671.725L1348.16,671.591L1348.11,671.456L1348.06,671.319L1348.01,671.181L1347.95,671.042L1347.9,670.902L1347.84,670.76L1347.78,670.618L1347.71,670.474L1347.65,670.329L1347.59,670.184L1347.52,670.037L1347.45,669.889L1347.37,669.741L1347.3,669.591L1347.22,669.441L1347.14,669.289L1347.07,669.137L1346.98,668.984L1346.9,668.83L1346.81,668.675L1346.72,668.519L1346.63,668.363L1346.53,668.206L1346.44,668.048L1346.34,667.89L1346.24,667.731L1346.13,667.571L1346.03,667.41L1345.92,667.249L1345.81,667.088L1345.75,667.007L1345.69,666.926L1345.63,666.844L1345.58,666.763L1345.52,666.682L1345.46,666.6L1345.4,666.518L1345.34,666.436L1345.27,666.354L1345.21,666.272L1345.15,666.19L1345.08,666.108L1345.02,666.025L1344.95,665.943L1344.89,665.86L1344.82,665.778L1344.75,665.695L1344.68,665.612L1344.62,665.529L1344.55,665.446L1344.48,665.363L1344.4,665.28L1344.33,665.196L1344.26,665.113L1344.19,665.03L1344.11,664.946L1344.04,664.863L1343.96,664.779L1343.89,664.696L1343.81,664.612L1343.73,664.528L1343.65,664.444L1343.58,664.361L1343.49,664.277L1343.41,664.193L1343.33,664.109L1343.25,664.025L1343.17,663.941L1343.08,663.857L1343,663.773L1342.91,663.689L1342.83,663.605L1342.74,663.521L1342.65,663.436L1342.56,663.352L1342.47,663.268L1342.38,663.184L1342.29,663.1L1342.2,663.016L1342.1,662.932L1342.01,662.848L1341.92,662.764L1341.82,662.68L1341.72,662.596L1341.63,662.511L1341.53,662.427L1341.43,662.344L1341.33,662.26L1341.23,662.176L1341.13,662.092L1341.02,662.008L1340.92,661.924L1341.04,661.999Z" style="fill:white;"/>
            </g>
            <g transform="matrix(0.5349,0.0460853,-0.0778737,0.903859,164.204,-421.972)">
                <path d="M1385.08,668.345L1385.26,668.338L1385.45,668.332L1385.64,668.326L1385.82,668.322L1386.01,668.318L1386.2,668.316L1386.38,668.314L1386.57,668.314L1386.76,668.315L1386.95,668.316L1387.14,668.319L1387.33,668.323L1387.52,668.328L1387.71,668.334L1387.91,668.341L1388.1,668.35L1388.29,668.359L1388.48,668.37L1388.68,668.381L1388.87,668.394L1389.07,668.408L1389.26,668.423L1389.45,668.44L1389.65,668.457L1389.85,668.476L1390.04,668.495L1390.24,668.516L1390.43,668.539L1390.63,668.562L1390.83,668.587L1391.03,668.613L1391.23,668.64L1391.42,668.668L1391.62,668.698L1391.82,668.728L1392.02,668.761L1392.22,668.794L1392.42,668.829L1392.62,668.865L1392.82,668.902L1393.02,668.94L1393.22,668.98L1393.42,669.022L1393.63,669.064L1393.83,669.108L1394.03,669.153L1394.23,669.2L1394.44,669.248L1394.64,669.297L1394.84,669.348L1395.05,669.4L1395.25,669.453L1395.45,669.508L1395.66,669.564L1395.86,669.622L1396.07,669.681L1396.17,669.711L1396.27,669.741L1396.38,669.772L1396.48,669.803L1396.37,669.778L1396.26,669.754L1396.16,669.73L1396.05,669.706L1395.84,669.66L1395.62,669.615L1395.41,669.571L1395.2,669.529L1394.99,669.488L1394.78,669.449L1394.57,669.411L1394.36,669.374L1394.15,669.339L1393.95,669.305L1393.74,669.272L1393.54,669.241L1393.33,669.211L1393.13,669.183L1392.92,669.156L1392.72,669.13L1392.52,669.105L1392.32,669.082L1392.12,669.06L1391.91,669.039L1391.72,669.019L1391.52,669.001L1391.32,668.984L1391.12,668.968L1390.93,668.953L1390.73,668.939L1390.54,668.927L1390.34,668.916L1390.15,668.906L1389.96,668.897L1389.77,668.889L1389.57,668.882L1389.38,668.877L1389.19,668.872L1389.01,668.869L1388.82,668.867L1388.63,668.866L1388.44,668.866L1388.26,668.867L1388.07,668.869L1387.89,668.872L1387.71,668.876L1387.52,668.881L1387.34,668.887L1387.16,668.894L1386.98,668.902L1386.8,668.911L1386.62,668.921L1386.44,668.932L1386.27,668.944L1386.09,668.957L1385.92,668.971L1385.74,668.986L1385.57,669.001L1385.39,669.018L1385.22,669.035L1385.05,669.054L1384.88,669.073L1384.71,669.093L1384.54,669.114L1384.37,669.135L1384.2,669.158L1384.04,669.181L1383.87,669.205L1383.7,669.23L1383.54,669.256L1383.38,669.283L1383.21,669.31L1383.05,669.338L1382.89,669.367L1382.73,669.396L1382.57,669.427L1382.41,669.458L1382.25,669.49L1382.1,669.522L1381.94,669.555L1381.78,669.589L1381.63,669.624L1381.47,669.659L1381.32,669.695L1381.17,669.731L1381.02,669.769L1380.87,669.806L1380.71,669.845L1380.57,669.884L1380.42,669.924L1380.27,669.964L1380.12,670.005L1379.98,670.046L1379.83,670.088L1379.69,670.131L1379.54,670.174L1379.4,670.218L1379.26,670.262L1379.12,670.307L1378.98,670.352L1378.84,670.398L1378.7,670.444L1378.56,670.491L1378.42,670.539L1378.29,670.586L1378.15,670.635L1378.02,670.683L1377.88,670.733L1377.75,670.782L1377.62,670.832L1377.49,670.883L1377.36,670.934L1377.23,670.985L1377.1,671.037L1376.97,671.089L1376.85,671.141L1376.72,671.194L1376.6,671.247L1376.47,671.301L1376.35,671.355L1376.23,671.409L1376.11,671.463L1375.98,671.518L1375.86,671.573L1375.75,671.629L1375.63,671.685L1375.51,671.741L1375.39,671.797L1375.28,671.854L1375.16,671.91L1375.05,671.967L1374.94,672.025L1374.83,672.082L1374.72,672.14L1374.61,672.198L1374.5,672.256L1374.39,672.314L1374.28,672.373L1374.17,672.432L1374.07,672.491L1373.97,672.55L1373.86,672.609L1373.76,672.668L1373.66,672.727L1373.56,672.787L1373.46,672.847L1373.36,672.906L1373.26,672.966L1373.16,673.026L1373.07,673.086L1372.97,673.146L1372.88,673.206L1372.79,673.266L1372.69,673.326L1372.6,673.386L1372.51,673.447L1372.42,673.507L1372.34,673.567L1372.25,673.627L1372.16,673.687L1372.08,673.747L1371.99,673.807L1371.91,673.867L1371.83,673.927L1371.75,673.987L1371.67,674.047L1371.59,674.106L1371.51,674.166L1371.43,674.225L1371.36,674.285L1371.28,674.344L1371.21,674.403L1371.13,674.462L1371.06,674.52L1370.99,674.579L1370.92,674.637L1370.85,674.695L1370.79,674.753L1370.72,674.811L1370.65,674.868L1370.59,674.926L1370.53,674.982L1370.46,675.039L1370.4,675.096L1370.34,675.152L1370.28,675.208L1370.22,675.263L1370.17,675.318L1370.11,675.373L1370.06,675.428L1370,675.482L1369.95,675.535L1369.9,675.589L1369.85,675.642L1369.8,675.694L1369.75,675.747L1369.7,675.798L1369.66,675.85L1369.61,675.9L1369.57,675.951L1369.53,676.001L1369.48,676.05L1369.44,676.099L1369.4,676.147L1369.37,676.195L1369.33,676.242L1369.29,676.288L1369.26,676.334L1369.23,676.38L1369.19,676.424L1369.16,676.469L1369.13,676.512L1369.1,676.555L1369.08,676.597L1369.05,676.638L1369.03,676.678L1369,676.718L1368.98,676.757L1368.96,676.795L1368.94,676.832L1368.92,676.869L1368.9,676.904L1368.88,676.939L1368.87,676.972L1368.85,677.005L1368.84,677.036L1368.83,677.066L1368.82,677.096L1368.81,677.124L1368.8,677.151L1368.79,677.176L1368.79,677.2L1368.78,677.223L1368.78,677.245L1368.77,677.265L1368.77,677.284L1368.77,677.284L1368.78,677.291L1368.77,677.29L1368.77,677.289L1368.77,677.291L1368.79,677.33L1368.78,677.326L1368.78,677.321L1368.79,677.358L1368.79,677.351L1368.78,677.342L1368.79,677.376L1368.79,677.365L1368.78,677.353L1368.79,677.384L1368.78,677.369L1368.78,677.368L1368.78,677.365L1368.77,677.359L1368.77,677.351L1368.77,677.341L1368.77,677.329L1368.77,677.316L1368.77,677.301L1368.77,677.291L1368.77,677.289L1368.77,677.289L1368.77,677.284L1368.75,677.247L1368.76,677.268L1368.73,677.222L1368.75,677.243L1368.71,677.195L1368.87,678.023L1367.99,678.681L1367.98,678.685L1366.57,678.777L1365.45,678.256L1365.45,678.253L1365.41,678.209L1365.36,678.141L1365.31,678.072L1365.27,678.005L1365.23,677.938L1365.2,677.872L1365.18,677.807L1365.16,677.743L1365.14,677.68L1365.13,677.618L1365.12,677.557L1365.12,677.497L1365.11,677.438L1365.11,677.38L1365.12,677.322L1365.12,677.266L1365.13,677.21L1365.14,677.154L1365.15,677.099L1365.17,677.044L1365.18,676.99L1365.2,676.936L1365.22,676.882L1365.24,676.829L1365.26,676.775L1365.29,676.722L1365.31,676.669L1365.34,676.616L1365.36,676.563L1365.39,676.51L1365.42,676.457L1365.45,676.404L1365.49,676.35L1365.52,676.297L1365.56,676.244L1365.59,676.19L1365.63,676.136L1365.67,676.082L1365.71,676.028L1365.75,675.974L1365.8,675.92L1365.84,675.865L1365.89,675.81L1365.93,675.755L1365.98,675.7L1366.03,675.645L1366.08,675.589L1366.13,675.533L1366.18,675.477L1366.24,675.421L1366.29,675.365L1366.35,675.308L1366.4,675.251L1366.46,675.194L1366.52,675.137L1366.58,675.079L1366.64,675.022L1366.7,674.964L1366.77,674.906L1366.83,674.847L1366.9,674.789L1366.97,674.73L1367.04,674.671L1367.11,674.612L1367.18,674.553L1367.25,674.494L1367.32,674.434L1367.39,674.375L1367.47,674.315L1367.55,674.255L1367.62,674.195L1367.7,674.135L1367.78,674.074L1367.86,674.014L1367.94,673.953L1368.03,673.893L1368.11,673.832L1368.19,673.771L1368.28,673.71L1368.37,673.649L1368.46,673.588L1368.55,673.527L1368.63,673.466L1368.73,673.405L1368.82,673.344L1368.91,673.283L1369.01,673.221L1369.1,673.16L1369.2,673.099L1369.3,673.038L1369.39,672.976L1369.5,672.915L1369.6,672.854L1369.7,672.793L1369.8,672.732L1369.9,672.671L1370.01,672.61L1370.11,672.549L1370.22,672.488L1370.33,672.427L1370.44,672.367L1370.55,672.306L1370.66,672.246L1370.77,672.185L1370.88,672.125L1371,672.065L1371.11,672.005L1371.23,671.945L1371.34,671.886L1371.46,671.826L1371.58,671.767L1371.7,671.708L1371.82,671.649L1371.94,671.591L1372.06,671.532L1372.19,671.474L1372.31,671.416L1372.44,671.359L1372.56,671.301L1372.69,671.244L1372.82,671.187L1372.95,671.131L1373.08,671.074L1373.21,671.018L1373.34,670.962L1373.47,670.907L1373.61,670.852L1373.74,670.797L1373.88,670.743L1374.01,670.689L1374.15,670.635L1374.29,670.582L1374.42,670.529L1374.56,670.476L1374.7,670.424L1374.85,670.372L1374.99,670.321L1375.13,670.27L1375.28,670.22L1375.42,670.17L1375.57,670.12L1375.71,670.071L1375.86,670.022L1376.01,669.974L1376.16,669.927L1376.31,669.879L1376.46,669.833L1376.61,669.787L1376.76,669.741L1376.91,669.696L1377.07,669.651L1377.22,669.607L1377.38,669.564L1377.53,669.521L1377.69,669.479L1377.85,669.437L1378,669.396L1378.16,669.356L1378.32,669.316L1378.48,669.277L1378.64,669.238L1378.81,669.2L1378.97,669.163L1379.13,669.126L1379.3,669.091L1379.46,669.055L1379.63,669.021L1379.79,668.987L1379.96,668.954L1380.13,668.921L1380.3,668.89L1380.46,668.859L1380.63,668.829L1380.81,668.799L1380.98,668.771L1381.15,668.743L1381.32,668.716L1381.49,668.69L1381.67,668.664L1381.84,668.639L1382.02,668.616L1382.19,668.593L1382.37,668.571L1382.55,668.549L1382.72,668.529L1382.9,668.509L1383.08,668.491L1383.26,668.473L1383.44,668.456L1383.62,668.44L1383.8,668.425L1383.98,668.411L1384.16,668.397L1384.34,668.385L1384.53,668.374L1384.71,668.363L1384.89,668.354L1385.08,668.345ZM1368.71,677.195L1368.73,677.215L1368.71,677.194L1368.71,677.195Z" style="fill:white;"/>
            </g>
        </g>
    </g>
</svg>
