<?xml version="1.0" encoding="UTF-8" standalone="no"?>
<!DOCTYPE svg PUBLIC "-//W3C//DTD SVG 1.1//EN" "http://www.w3.org/Graphics/SVG/1.1/DTD/svg11.dtd">
<svg width="100%" height="100%" viewBox="0 0 242 282" version="1.1" xmlns="http://www.w3.org/2000/svg" xmlns:xlink="http://www.w3.org/1999/xlink" xml:space="preserve" style="fill-rule:evenodd;clip-rule:evenodd;stroke-linejoin:round;stroke-miterlimit:1.41421;">
    <g transform="matrix(1,0,0,1,-29,-8)">
        <g transform="matrix(2.90396,0,0,2.92322,4.80211,3.75404)">
            <g id="ReloadIcon2" transform="matrix(1.32895,0,0,1.32895,-2084.54,-101.031)">
                <g transform="matrix(1.62004,-0.648017,-0.658105,-1.64526,2236.23,2250.32)">
                    <path d="M110.902,1256.23C110.492,1255.28 104.311,1258.16 104.92,1259.27C105.53,1260.38 117.125,1270.14 118.657,1270.36C120.189,1270.57 130.853,1263.13 130.853,1263.13C130.853,1263.13 134.434,1265.51 135.148,1265.63C135.861,1265.76 138.301,1252.54 137.226,1251.67C136.151,1250.81 123.701,1252.98 123.664,1253.58C123.628,1254.19 126.06,1258.12 126.06,1258.12C126.06,1258.12 120.267,1263.23 119.42,1263.28C118.572,1263.32 111.312,1257.18 110.902,1256.23Z" style="fill:white;"/>
                </g>
                <g transform="matrix(-1.62004,0.648017,0.658105,1.64526,976.127,-2023.03)">
                    <path d="M110.902,1256.23C110.492,1255.28 104.311,1258.16 104.92,1259.27C105.53,1260.38 117.125,1270.14 118.657,1270.36C120.189,1270.57 130.853,1263.13 130.853,1263.13C130.853,1263.13 134.434,1265.51 135.148,1265.63C135.861,1265.76 138.301,1252.54 137.226,1251.67C136.151,1250.81 123.701,1252.98 123.664,1253.58C123.628,1254.19 126.06,1258.12 126.06,1258.12C126.06,1258.12 120.267,1263.23 119.42,1263.28C118.572,1263.32 111.312,1257.18 110.902,1256.23Z" style="fill:white;"/>
                </g>
            </g>
        </g>
    </g>
</svg>
