<?xml version="1.0" encoding="UTF-8" standalone="no"?>
<!DOCTYPE svg PUBLIC "-//W3C//DTD SVG 1.1//EN" "http://www.w3.org/Graphics/SVG/1.1/DTD/svg11.dtd">
<svg width="100%" height="100%" viewBox="0 0 278 310" version="1.1" xmlns="http://www.w3.org/2000/svg" xmlns:xlink="http://www.w3.org/1999/xlink" xml:space="preserve" style="fill-rule:evenodd;clip-rule:evenodd;stroke-linejoin:round;stroke-miterlimit:1.41421;">
    <g transform="matrix(1,0,0,1,-5,2)">
        <g id="ReloadIcon" transform="matrix(3,0,0,3,0,0)">
            <g>
                <g transform="matrix(-0.583771,-0.407124,0.402453,-0.577074,-673.185,1345.11)">
                    <path d="M174.285,2151.17L176.858,2145.8L184.341,2138.51L193.158,2132L203.936,2124.48L206.96,2122.6L208.902,2126.65L208.942,2171.95L209.013,2175.15L207.603,2179.1L202.323,2177.22L190.956,2169.62L181.207,2159.93L177.041,2155L174.285,2151.17Z" style="fill:white;"/>
                </g>
                <g transform="matrix(1,0,0,1,-0.634496,1.17403)">
                    <path d="M76.09,13.068L64.365,7.97L45.813,6.59L25.949,11.001L13.596,22.992L7.953,34.98L5.895,43.355L9.189,49.731L14.763,51.171L19.979,48.013L22.999,37.613L29.737,25.929L41.424,20.255L55.868,19.504L66.898,24.163L76.09,13.068Z" style="fill:white;"/>
                </g>
            </g>
            <g transform="matrix(-1,0,0,-1,96.0779,101.933)">
                <g transform="matrix(-0.583771,-0.407124,0.402453,-0.577074,-673.185,1345.11)">
                    <path d="M174.285,2151.17L176.858,2145.8L184.341,2138.51L193.158,2132L203.936,2124.48L206.96,2122.6L208.902,2126.65L208.942,2171.95L209.013,2175.15L207.603,2179.1L202.323,2177.22L190.956,2169.62L181.207,2159.93L177.041,2155L174.285,2151.17Z" style="fill:white;"/>
                </g>
                <g transform="matrix(1,0,0,1,-0.634496,1.17403)">
                    <path d="M76.09,13.068L64.365,7.97L45.813,6.59L25.949,11.001L13.596,22.992L7.953,34.98L5.895,43.355L9.189,49.731L14.763,51.171L19.979,48.013L22.999,37.613L29.737,25.929L41.424,20.255L55.868,19.504L66.898,24.163L76.09,13.068Z" style="fill:white;"/>
                </g>
            </g>
        </g>
    </g>
</svg>
