<?xml version="1.0" encoding="UTF-8" standalone="no"?>
<!DOCTYPE svg PUBLIC "-//W3C//DTD SVG 1.1//EN" "http://www.w3.org/Graphics/SVG/1.1/DTD/svg11.dtd">
<svg width="100%" height="100%" viewBox="0 0 298 272" version="1.1" xmlns="http://www.w3.org/2000/svg" xmlns:xlink="http://www.w3.org/1999/xlink" xml:space="preserve" style="fill-rule:evenodd;clip-rule:evenodd;stroke-linejoin:round;stroke-miterlimit:1.41421;">
    <g transform="matrix(1,0,0,1,-1,-14)">
        <g id="SettingsIcon" transform="matrix(3.40509,0,0,3.40509,-600.812,-7113.94)">
            <path d="M202.368,2113.43C197.108,2106.75 193.991,2107.19 193.954,2104.32C193.906,2100.57 203.416,2095.13 206.396,2096.3C208.99,2097.32 209.137,2102.39 212.061,2108.1C214.666,2107.3 217.442,2106.86 220.322,2106.86C223.933,2106.86 227.38,2107.55 230.534,2108.79C234.87,2101.17 233.119,2098.52 235.827,2097.31C239.323,2095.75 248.263,2102.05 248.37,2105.18C248.461,2107.88 243.897,2110.03 239.772,2114.81C243.596,2118.61 246.244,2123.52 247.147,2128.99C255.514,2128.68 256.962,2126.03 259.341,2127.66C262.486,2129.82 261.443,2140.53 258.728,2142.21C256.483,2143.59 252.492,2141.09 246.569,2139.96C245.164,2145.05 242.22,2149.53 238.251,2152.91C243.571,2159.82 246.751,2159.36 246.774,2162.26C246.803,2166.01 237.264,2171.41 234.291,2170.22C231.675,2169.18 231.579,2164.01 228.596,2158.21C225.987,2159.02 223.206,2159.45 220.322,2159.45C217.383,2159.45 214.552,2159 211.9,2158.16C207.658,2165.9 209.475,2168.54 206.781,2169.8C203.314,2171.41 194.261,2165.27 194.097,2162.14C193.96,2159.52 198.247,2157.33 202.201,2152.74C198.32,2149.38 195.445,2144.95 194.066,2139.93C186.321,2141.4 185.257,2144.07 182.725,2142.81C179.301,2141.1 178.795,2130.35 181.243,2128.32C183.257,2126.65 187.535,2128.55 193.515,2128.88C194.55,2122.76 197.768,2117.36 202.368,2113.43ZM220.322,2116.74C229.684,2116.74 237.284,2124.1 237.284,2133.16C237.284,2142.22 229.684,2149.58 220.322,2149.58C210.96,2149.58 203.359,2142.22 203.359,2133.16C203.359,2124.1 210.96,2116.74 220.322,2116.74Z" style="fill:white;"/>
        </g>
    </g>
</svg>
