<?xml version="1.0" encoding="UTF-8" standalone="no"?>
<!DOCTYPE svg PUBLIC "-//W3C//DTD SVG 1.1//EN" "http://www.w3.org/Graphics/SVG/1.1/DTD/svg11.dtd">
<svg width="100%" height="100%" viewBox="0 0 260 229" version="1.1" xmlns="http://www.w3.org/2000/svg" xmlns:xlink="http://www.w3.org/1999/xlink" xml:space="preserve" style="fill-rule:evenodd;clip-rule:evenodd;stroke-linejoin:round;stroke-miterlimit:1.41421;">
    <g transform="matrix(1,0,0,1,-22,-36)">
        <g transform="matrix(2.90396,0,0,2.92322,4.80211,3.75404)">
            <g id="ShopIcon" transform="matrix(1.33001,0,0,1.33001,-1408.61,-623.065)">
                <g transform="matrix(0.869981,0,0.0150791,0.891908,777.758,356.636)">
                    <path d="M346.05,180.696C347.512,180.729 352.84,183.441 353.56,185.032C354.28,186.624 354.047,192.493 353.56,193.705C353.074,194.916 347.535,197.976 346.05,198.041C344.565,198.106 339.355,194.709 338.54,193.705C337.724,192.7 337.853,185.992 338.54,185.032C339.226,184.072 344.588,180.663 346.05,180.696Z" style="fill:white;"/>
                </g>
                <g transform="matrix(0.869981,0,0.0150791,0.891908,800.873,356.636)">
                    <path d="M346.05,180.696C347.512,180.729 352.84,183.441 353.56,185.032C354.28,186.624 354.047,192.493 353.56,193.705C353.074,194.916 347.535,197.976 346.05,198.041C344.565,198.106 339.355,194.709 338.54,193.705C337.724,192.7 337.853,185.992 338.54,185.032C339.226,184.072 344.588,180.663 346.05,180.696Z" style="fill:white;"/>
                </g>
                <path d="M1127.28,479.03C1125.71,478.573 1115.21,479.374 1114.3,480.036C1113.39,480.697 1106.35,506.54 1105.59,506.787C1104.83,507.034 1081.62,507.074 1080.68,506.555C1079.75,506.036 1074.55,494.656 1075.23,493.632C1075.9,492.609 1103.01,492.374 1104.31,492.369C1105.62,492.363 1106.15,483.453 1104.75,483.716C1103.35,483.978 1067.28,487.201 1066.27,487.871C1065.26,488.54 1073.22,513.07 1074.8,514.094C1076.38,515.117 1109.99,514.99 1110.93,514.226C1111.87,513.461 1119.86,486.699 1120.19,486.363C1120.53,486.027 1126,487.888 1127.1,487.215C1128.21,486.543 1128.85,479.486 1127.28,479.03Z" style="fill:white;"/>
            </g>
        </g>
    </g>
</svg>
