<?xml version="1.0" encoding="UTF-8" standalone="no"?>
<!DOCTYPE svg PUBLIC "-//W3C//DTD SVG 1.1//EN" "http://www.w3.org/Graphics/SVG/1.1/DTD/svg11.dtd">
<svg width="100%" height="100%" viewBox="0 0 224 208" version="1.1" xmlns="http://www.w3.org/2000/svg" xmlns:xlink="http://www.w3.org/1999/xlink" xml:space="preserve" style="fill-rule:evenodd;clip-rule:evenodd;stroke-linejoin:round;stroke-miterlimit:1.41421;">
    <g transform="matrix(1,0,0,1,-38,-46)">
        <g id="SkullIcon" transform="matrix(2.44675,0,0,2.5667,-1806.39,-506.061)">
            <path d="M782.382,281.788C770.37,278.288 759.673,271.679 758.261,260.115C756.182,243.087 767.214,218.953 799.776,218.953C832.337,218.953 842.609,242.822 841.003,260.814C839.966,272.433 829.16,278.308 817.121,281.802C816.652,285.536 816.163,287.532 815.78,288.938C815.254,290.867 809.693,291.529 808.53,289.404C807.767,288.01 807.486,286.82 806.567,283.814C806.33,283.834 804.839,283.855 804.601,283.873C804.158,287.943 803.713,289.539 803.437,290.721C802.985,292.65 797.316,292.867 796.434,290.77C795.928,289.566 795.18,287.075 794.68,283.834C794.361,283.81 792.778,283.796 792.461,283.767C792.047,286.64 791.773,288.352 791.349,289.625C790.695,291.586 785.17,291.669 784.214,289.226C783.627,287.728 783.14,285.924 782.382,281.788ZM800.502,267.253C802.463,266.919 804.666,272.225 803.879,273.187C803.092,274.15 798.626,274.599 797.125,273.187C795.624,271.776 798.542,267.586 800.502,267.253ZM791.328,249.109C779.982,242.974 768.502,256.254 768.894,263.775C769.286,271.296 775.611,272.777 782.369,271.217C789.127,269.657 800.731,254.194 791.328,249.109ZM809.303,249.882C822.705,243.243 830.331,255.995 830.296,263.937C830.265,271.152 824.011,272.564 817.687,271.069C811.363,269.575 800.262,254.361 809.303,249.882Z" style="fill:white;"/>
        </g>
    </g>
</svg>
