<?xml version="1.0" encoding="UTF-8" standalone="no"?>
<!DOCTYPE svg PUBLIC "-//W3C//DTD SVG 1.1//EN" "http://www.w3.org/Graphics/SVG/1.1/DTD/svg11.dtd">
<svg width="100%" height="100%" viewBox="0 0 288 225" version="1.1" xmlns="http://www.w3.org/2000/svg" xmlns:xlink="http://www.w3.org/1999/xlink" xml:space="preserve" style="fill-rule:evenodd;clip-rule:evenodd;stroke-linejoin:round;stroke-miterlimit:1.41421;">
    <g transform="matrix(1,0,0,1,-6,-38)">
        <g id="SoundIcon" transform="matrix(3.32627,0,0,3.88717,-3632.75,-2243.76)">
            <g transform="matrix(0.71109,0,0,0.71109,398.327,-837.437)">
                <path d="M1014.02,2025.91C1014.02,2025.91 991.948,2025.35 985.712,2027.09C981.041,2028.39 981.836,2062.65 987.692,2063.35C997.887,2064.55 1014.72,2062.82 1014.72,2062.82C1014.72,2062.82 1038.81,2080.16 1044.86,2081.41C1054.65,2083.43 1053.86,2005.2 1043.66,2005.93C1037.22,2006.39 1014.02,2025.91 1014.02,2025.91Z" style="fill:white;"/>
            </g>
            <g transform="matrix(0.781492,0,0,0.703853,391.798,-790.398)">
                <path d="M990.284,1967.52C990.386,1967.53 990.488,1967.53 990.59,1967.54C990.793,1967.56 990.994,1967.59 991.192,1967.64C991.887,1967.8 992.537,1968.12 993.076,1968.57C993.229,1968.7 993.374,1968.83 993.508,1968.98C993.575,1969.05 993.636,1969.13 993.701,1969.21C994.085,1969.69 994.465,1970.17 994.843,1970.66C996.871,1973.29 998.851,1975.96 1000.67,1978.72C1001.31,1979.69 1001.92,1980.67 1002.49,1981.67C1003.02,1982.59 1003.51,1983.53 1003.89,1984.51C1004.02,1984.85 1004.13,1985.18 1004.23,1985.52C1004.35,1985.98 1004.44,1986.44 1004.52,1986.91C1004.61,1987.47 1004.69,1988.03 1004.75,1988.59C1004.96,1990.38 1005.07,1992.17 1005.14,1993.97C1005.19,1995.32 1005.22,1996.68 1005.21,1998.03C1005.21,1999.35 1005.17,2000.66 1005.1,2001.97C1005.04,2003.04 1004.95,2004.1 1004.8,2005.16C1004.71,2005.86 1004.59,2006.56 1004.4,2007.24C1004.24,2007.81 1004.02,2008.37 1003.79,2008.92C1003.55,2009.5 1003.27,2010.06 1002.99,2010.62C1002.3,2011.99 1001.53,2013.33 1000.73,2014.65C999.671,2016.41 998.562,2018.14 997.429,2019.86C996.165,2021.78 994.869,2023.67 993.546,2025.56L993.436,2025.71C993.277,2025.92 993.243,2025.98 993.061,2026.17C992.585,2026.68 991.982,2027.07 991.313,2027.32C990.259,2027.7 989.07,2027.68 988.025,2027.28C987.647,2027.13 987.29,2026.94 986.968,2026.7C986.645,2026.46 986.357,2026.18 986.115,2025.87C985.811,2025.48 985.578,2025.04 985.429,2024.58C985.251,2024.02 985.194,2023.43 985.263,2022.85C985.321,2022.37 985.467,2021.9 985.691,2021.46C985.811,2021.23 985.853,2021.18 985.997,2020.96C986.38,2020.42 986.758,2019.88 987.135,2019.33C988.358,2017.56 989.562,2015.77 990.73,2013.96C991.56,2012.68 992.375,2011.38 993.156,2010.07C993.773,2009.04 994.373,2007.99 994.916,2006.92C995.098,2006.56 995.274,2006.2 995.434,2005.83C995.546,2005.58 995.657,2005.32 995.733,2005.05C995.775,2004.9 995.801,2004.74 995.828,2004.59C995.887,2004.27 995.932,2003.94 995.971,2003.61C996.065,2002.81 996.122,2002.01 996.163,2001.21C996.275,1999.02 996.269,1996.81 996.192,1994.62C996.136,1993 996.043,1991.38 995.868,1989.77C995.819,1989.33 995.763,1988.88 995.694,1988.44C995.667,1988.27 995.638,1988.1 995.606,1987.93C995.589,1987.85 995.574,1987.75 995.551,1987.67C995.524,1987.57 995.488,1987.48 995.451,1987.39C995.318,1987.06 995.157,1986.74 994.991,1986.42C994.777,1986.01 994.548,1985.61 994.312,1985.21C993.733,1984.24 993.111,1983.28 992.472,1982.34C991.468,1980.87 990.418,1979.41 989.346,1977.98C988.433,1976.75 987.503,1975.54 986.551,1974.34L986.375,1974.11C986.234,1973.88 986.192,1973.83 986.076,1973.6C985.857,1973.16 985.718,1972.69 985.666,1972.21C985.625,1971.82 985.64,1971.43 985.71,1971.05C985.867,1970.18 986.308,1969.38 986.96,1968.76C987.322,1968.42 987.745,1968.13 988.206,1967.93C988.575,1967.76 988.967,1967.64 989.37,1967.58C989.638,1967.53 989.707,1967.54 989.978,1967.52C990.08,1967.52 990.182,1967.52 990.284,1967.52Z" style="fill:white;fill-rule:nonzero;"/>
            </g>
            <g transform="matrix(0.591923,0,0,0.533117,568.786,-448.755)">
                <path d="M990.644,1966.17C990.763,1966.19 990.881,1966.2 990.999,1966.21C991.353,1966.26 991.702,1966.35 992.04,1966.46C992.83,1966.71 993.56,1967.13 994.17,1967.67C994.433,1967.9 994.659,1968.16 994.882,1968.43C995.371,1969.06 995.852,1969.69 996.332,1970.32C998.325,1972.97 1000.28,1975.64 1002.08,1978.41C1002.78,1979.48 1003.46,1980.58 1004.08,1981.7C1004.55,1982.55 1004.98,1983.42 1005.33,1984.32C1005.63,1985.13 1005.83,1985.98 1005.98,1986.83C1006.08,1987.41 1006.16,1987.99 1006.23,1988.57C1006.46,1990.48 1006.58,1992.4 1006.64,1994.32C1006.73,1997.13 1006.71,1999.94 1006.49,2002.75C1006.41,2003.75 1006.3,2004.76 1006.15,2005.76C1006.04,2006.48 1005.91,2007.19 1005.71,2007.88C1005.37,2009.1 1004.87,2010.28 1004.31,2011.42C1003.6,2012.88 1002.8,2014.3 1001.96,2015.7C1000.89,2017.47 999.752,2019.2 998.585,2020.92C997.314,2022.79 995.999,2024.63 994.649,2026.45L994.535,2026.6C994.343,2026.84 994.3,2026.9 994.086,2027.13C993.603,2027.63 993.025,2028.05 992.386,2028.35C991.748,2028.66 991.051,2028.86 990.34,2028.93C989.629,2029 988.905,2028.95 988.213,2028.77C986.587,2028.37 985.194,2027.3 984.435,2025.87C984.166,2025.37 983.979,2024.82 983.88,2024.26C983.782,2023.71 983.773,2023.13 983.854,2022.57C983.951,2021.9 984.177,2021.24 984.519,2020.65C984.661,2020.4 984.824,2020.17 984.996,2019.94C985.439,2019.34 985.878,2018.74 986.314,2018.14C988.271,2015.41 990.175,2012.64 991.886,2009.77C992.431,2008.86 992.956,2007.93 993.431,2006.98C993.633,2006.58 993.826,2006.17 993.998,2005.75C994.104,2005.5 994.205,2005.24 994.281,2004.97C994.322,2004.83 994.347,2004.67 994.374,2004.52C994.422,2004.25 994.463,2003.98 994.5,2003.7C994.591,2003.01 994.655,2002.32 994.705,2001.63C994.855,1999.53 994.879,1997.41 994.829,1995.31C994.79,1993.64 994.706,1991.98 994.528,1990.33C994.476,1989.84 994.414,1989.35 994.333,1988.86C994.308,1988.71 994.281,1988.56 994.251,1988.4C994.229,1988.3 994.211,1988.18 994.17,1988.08C994.068,1987.82 993.941,1987.57 993.811,1987.32C993.617,1986.95 993.409,1986.58 993.195,1986.22C992.641,1985.28 992.046,1984.36 991.434,1983.45C989.629,1980.77 987.707,1978.16 985.734,1975.59C985.613,1975.43 985.491,1975.28 985.369,1975.12C985.188,1974.87 985.137,1974.81 984.98,1974.55C984.685,1974.06 984.47,1973.52 984.343,1972.97C984.217,1972.42 984.178,1971.85 984.231,1971.28C984.357,1969.92 985.014,1968.63 986.057,1967.69C986.49,1967.3 986.985,1966.98 987.52,1966.73C988.162,1966.43 988.861,1966.24 989.573,1966.18C989.89,1966.15 989.97,1966.15 990.287,1966.15C990.406,1966.16 990.525,1966.17 990.644,1966.17Z" style="fill:white;fill-rule:nonzero;"/>
            </g>
        </g>
    </g>
</svg>
