<?xml version="1.0" encoding="UTF-8" standalone="no"?>
<!DOCTYPE svg PUBLIC "-//W3C//DTD SVG 1.1//EN" "http://www.w3.org/Graphics/SVG/1.1/DTD/svg11.dtd">
<svg width="100%" height="100%" viewBox="0 0 228 239" version="1.1" xmlns="http://www.w3.org/2000/svg" xmlns:xlink="http://www.w3.org/1999/xlink" xml:space="preserve" style="fill-rule:evenodd;clip-rule:evenodd;stroke-linejoin:round;stroke-miterlimit:1.41421;">
    <g transform="matrix(1,0,0,1,-36,-31)">
        <g id="SpiderIcon" transform="matrix(1.99465,1.66533e-16,1.66533e-16,1.99465,-3605.2,-966.098)">
            <path d="M1890.1,546.881C1892.06,543.979 1894.02,541.08 1896,538.191C1896.98,536.766 1897.97,535.349 1898.95,533.928L1898.75,531.115C1898.6,528.836 1898.45,526.66 1898.36,524.382C1898.33,523.416 1898.3,522.451 1898.29,521.485C1898.27,520.514 1898.27,519.542 1898.28,518.571C1898.3,516.765 1898.33,514.959 1898.38,513.154C1898.44,510.851 1898.51,509.638 1898.61,507.625L1898.62,507.538C1898.63,507.566 1898.63,507.594 1898.64,507.622C1898.78,508.107 1898.91,508.59 1899.04,509.076C1899.4,510.414 1899.76,511.749 1900.09,513.092C1900.81,516.035 1901.46,518.817 1902.04,521.758C1902.52,524.132 1902.8,525.816 1903.18,528.225C1903.69,531.405 1903.79,532.163 1904.22,535.161L1901.38,539.942C1899.89,542.396 1898.42,544.852 1896.93,547.303C1896.65,547.763 1896.37,548.222 1896.09,548.681C1898.93,547.917 1901.78,547.157 1904.62,546.408C1906.11,546.016 1907.6,545.637 1909.09,545.252L1911.74,542.968C1913.48,541.498 1915.07,540.137 1916.83,538.709C1918.73,537.175 1919.3,536.763 1921.17,535.339L1921.12,534.856C1920.99,533.116 1920.84,531.376 1920.71,529.635C1920.55,527.443 1920.47,526.02 1920.35,524.027L1920.35,523.936C1920.36,523.964 1920.37,523.993 1920.38,524.021C1921.17,526.143 1921.57,527.166 1922.44,529.732C1923.13,531.759 1923.78,533.799 1924.44,535.833L1924.62,536.429C1922.83,538.438 1922.51,538.824 1920.53,540.892C1919.67,541.792 1918.8,542.68 1917.92,543.566C1915.28,546.247 1914.36,547.128 1911.67,549.784L1907.08,551.298C1904.26,552.203 1901.45,553.112 1898.64,554.012C1898.17,554.162 1897.7,554.31 1897.24,554.459C1900.2,555.202 1903.17,555.938 1906.13,556.693C1909.31,557.501 1912.48,558.331 1915.64,559.15L1917.27,559.584C1918.73,561.586 1919.75,562.962 1921.22,565.066C1921.92,566.058 1922.61,567.057 1923.28,568.062C1925.21,570.932 1926.97,573.717 1928.81,576.691C1929.64,578.045 1930.45,579.416 1931.27,580.783C1931.56,581.28 1931.85,581.782 1932.14,582.281L1932.19,582.368L1932.12,582.3L1930.87,581.114C1929.76,580.038 1928.64,578.973 1927.54,577.886C1925.26,575.636 1923.02,573.39 1920.83,571.057C1920.07,570.247 1919.32,569.43 1918.58,568.604C1917.01,566.856 1916,565.663 1914.52,563.946L1912.92,563.652C1909.86,563.059 1906.8,562.476 1903.74,561.872C1902.86,561.699 1901.98,561.525 1901.1,561.35L1911.96,566.684L1914.7,568.047C1914.36,574.321 1914.2,577.636 1913.82,583.445C1913.71,585.094 1913.6,586.744 1913.47,588.392C1913.36,589.891 1913.22,591.387 1913.09,592.885L1913.02,593.513C1912.56,594.663 1912.12,595.819 1911.64,596.963C1910.63,599.402 1909.61,601.837 1908.57,604.263C1907.25,607.356 1906.58,608.809 1905.39,611.442L1905.34,611.551L1905.36,611.433L1905.76,609.38C1906.14,607.53 1906.5,605.677 1906.89,603.831C1908.19,597.728 1908.2,597.732 1909.36,592.884L1909.33,592.316C1909.29,590.998 1909.24,589.681 1909.21,588.363C1909.18,586.954 1909.17,585.545 1909.15,584.136C1909.11,579.285 1909.14,576.695 1909.16,571.446L1906.68,570.362C1903.95,569.156 1901.23,567.952 1898.51,566.745C1898.97,568.026 1899.23,569.384 1899.23,570.791C1899.23,578.5 1891.66,584.76 1882.35,584.76C1873.03,584.76 1865.47,578.5 1865.47,570.791C1865.47,569.492 1865.68,568.235 1866.09,567.042C1863.59,568.15 1861.09,569.255 1858.59,570.362L1856.1,571.446L1856.13,579.334L1856.11,584.136C1856.06,588.227 1856.06,588.226 1855.93,592.316L1855.91,592.884L1856.73,596.347L1858.37,603.831C1858.75,605.681 1859.13,607.529 1859.5,609.38C1859.64,610.063 1859.77,610.748 1859.9,611.433L1859.92,611.551L1859.87,611.442L1859.01,609.529C1858.24,607.774 1857.45,606.026 1856.69,604.263C1854.12,598.275 1854.14,598.267 1852.24,593.513L1852.18,592.885C1852.05,591.387 1851.91,589.891 1851.79,588.392C1851.66,586.744 1851.55,585.094 1851.44,583.445C1851.06,577.636 1850.91,574.321 1850.56,568.047L1853.3,566.684C1856.92,564.905 1860.54,563.122 1864.17,561.347C1863.29,561.523 1862.41,561.699 1861.53,561.872C1858.47,562.476 1855.4,563.059 1852.34,563.652L1850.75,563.946L1849.07,565.894L1846.68,568.604C1844.86,570.591 1844.01,571.55 1842.12,573.477C1840.66,574.957 1839.2,576.428 1837.73,577.886C1835.85,579.747 1834.83,580.706 1833.15,582.3L1833.08,582.368L1833.12,582.281L1834,580.783C1834.82,579.419 1835.62,578.045 1836.46,576.691C1838.3,573.717 1840.05,570.932 1841.98,568.062C1842.66,567.057 1843.35,566.058 1844.04,565.066C1845.52,562.962 1846.54,561.586 1848,559.584L1849.62,559.15C1852.79,558.331 1855.96,557.501 1859.13,556.693C1861.97,555.97 1864.81,555.257 1867.65,554.55C1864.27,553.473 1860.89,552.393 1857.52,551.298C1855.99,550.8 1854.46,550.289 1852.93,549.784L1849.75,546.655C1847.83,544.73 1845.94,542.855 1844.06,540.892C1842.08,538.824 1841.77,538.438 1839.97,536.429L1840.15,535.833C1840.82,533.799 1841.47,531.759 1842.15,529.732C1843.03,527.166 1843.42,526.143 1844.22,524.021L1844.25,523.936C1844.25,523.966 1844.25,523.996 1844.24,524.027C1844.13,526.02 1844.05,527.443 1843.89,529.635C1843.76,531.376 1843.61,533.116 1843.47,534.856L1843.42,535.339L1845.44,536.872L1847.76,538.709C1848.56,539.372 1849.37,540.03 1850.17,540.698C1852.54,542.675 1853.17,543.241 1855.51,545.252L1859.98,546.408C1862.67,547.125 1865.37,547.839 1868.06,548.56C1868.47,548.672 1868.89,548.783 1869.3,548.894C1867.49,545.915 1865.68,542.933 1863.89,539.942C1862.93,538.352 1862,536.754 1861.05,535.161L1861.49,532.112C1861.87,529.643 1862.21,527.307 1862.64,524.853C1862.82,523.82 1863.02,522.788 1863.22,521.758C1863.81,518.817 1864.46,516.035 1865.18,513.092C1865.51,511.749 1865.87,510.414 1866.22,509.076C1866.35,508.59 1866.49,508.107 1866.62,507.622L1866.64,507.538C1866.65,507.567 1866.65,507.596 1866.65,507.625C1866.75,509.638 1866.82,510.851 1866.88,513.154C1866.93,514.959 1866.97,516.765 1866.99,518.571C1867,519.542 1866.99,520.514 1866.98,521.485C1866.96,522.451 1866.94,523.416 1866.9,524.382C1866.82,526.327 1866.65,529.217 1866.52,531.115C1866.46,532.053 1866.38,532.991 1866.31,533.928L1869.26,538.191C1870.74,540.36 1872.22,542.528 1873.69,544.7C1874.13,545.35 1874.57,546.001 1875.01,546.652C1875.74,545.726 1876.7,544.943 1877.84,544.366L1876.03,539.501L1881.49,536.259C1880.47,537.493 1879.46,538.726 1878.45,539.96L1881.31,543.345C1881.69,543.304 1882.08,543.283 1882.47,543.283C1883.15,543.283 1883.8,543.345 1884.44,543.465L1887.4,539.96L1884.36,536.259C1886.18,537.34 1888,538.42 1889.82,539.501L1887.85,544.791C1888.75,545.361 1889.52,546.071 1890.1,546.881Z" style="fill:white;"/>
        </g>
    </g>
</svg>
