<?xml version="1.0" encoding="UTF-8" standalone="no"?>
<!DOCTYPE svg PUBLIC "-//W3C//DTD SVG 1.1//EN" "http://www.w3.org/Graphics/SVG/1.1/DTD/svg11.dtd">
<svg width="100%" height="100%" viewBox="0 0 288 292" version="1.1" xmlns="http://www.w3.org/2000/svg" xmlns:xlink="http://www.w3.org/1999/xlink" xml:space="preserve" style="fill-rule:evenodd;clip-rule:evenodd;stroke-linejoin:round;stroke-miterlimit:1.41421;">
    <g transform="matrix(1,0,0,1,-16,-14)">
        <g id="SpiralIcon" transform="matrix(3.31143,-2.70606e-18,-1.36753e-17,2.90002,-5742.86,-1376.39)">
            <path d="M1777.96,480.163L1778.09,480.164L1778.21,480.165L1778.34,480.167L1778.46,480.168L1778.59,480.17L1778.72,480.173L1778.84,480.176L1778.97,480.179L1779.1,480.183L1779.22,480.187L1779.35,480.191L1779.47,480.196L1779.6,480.201L1779.73,480.206L1779.85,480.212L1779.98,480.218L1780.11,480.225L1780.23,480.231L1780.36,480.239L1780.48,480.246L1780.61,480.254L1780.74,480.263L1780.86,480.271L1780.99,480.28L1781.12,480.29L1781.24,480.299L1781.37,480.309L1781.49,480.32L1781.62,480.331L1781.75,480.342L1781.87,480.354L1782,480.365L1782.12,480.378L1782.25,480.39L1782.38,480.403L1782.5,480.417L1782.63,480.43L1782.75,480.444L1782.88,480.459L1783,480.474L1783.13,480.489L1783.26,480.504L1783.38,480.52L1783.51,480.536L1783.63,480.553L1783.76,480.57L1783.88,480.587L1784.01,480.605L1784.13,480.623L1784.26,480.641L1784.38,480.66L1784.51,480.679L1784.63,480.698L1784.76,480.718L1784.88,480.738L1785.01,480.758L1785.13,480.779L1785.26,480.8L1785.38,480.822L1785.51,480.844L1785.63,480.866L1785.76,480.889L1785.88,480.911L1786.01,480.935L1786.13,480.958L1786.26,480.982L1786.38,481.007L1786.51,481.031L1786.63,481.056L1786.76,481.082L1786.88,481.108L1787.01,481.134L1787.13,481.16L1787.25,481.187L1787.38,481.214L1787.5,481.242L1787.62,481.27L1787.75,481.298L1787.87,481.326L1788,481.355L1788.12,481.385L1788.24,481.414L1788.37,481.444L1788.49,481.475L1788.61,481.505L1788.74,481.536L1788.86,481.568L1788.98,481.599L1789.11,481.631L1789.23,481.664L1789.35,481.697L1789.47,481.73L1789.6,481.763L1789.72,481.797L1789.84,481.831L1789.96,481.866L1790.09,481.901L1790.21,481.936L1790.33,481.972L1790.45,482.008L1790.58,482.044L1790.7,482.08L1790.82,482.117L1790.94,482.155L1791.06,482.192L1791.18,482.23L1791.3,482.269L1791.43,482.308L1791.55,482.347L1791.67,482.386L1791.79,482.426L1791.91,482.466L1792.03,482.506L1792.15,482.547L1792.27,482.588L1792.39,482.63L1792.51,482.672L1792.63,482.714L1792.75,482.757L1792.87,482.8L1792.99,482.843L1793.11,482.886L1793.23,482.93L1793.35,482.975L1793.47,483.019L1793.59,483.064L1793.71,483.11L1793.83,483.155L1793.95,483.202L1794.07,483.248L1794.18,483.295L1794.3,483.342L1794.42,483.389L1794.54,483.437L1794.66,483.485L1794.78,483.534L1794.89,483.582L1795.01,483.632L1795.13,483.681L1795.25,483.731L1795.37,483.781L1795.48,483.832L1795.6,483.883L1795.72,483.934L1795.83,483.986L1795.95,484.038L1796.07,484.09L1796.18,484.143L1796.3,484.196L1796.42,484.249L1796.53,484.303L1796.65,484.357L1796.76,484.411L1796.88,484.466L1797,484.521L1797.11,484.577L1797.23,484.632L1797.34,484.689L1797.46,484.745L1797.57,484.802L1797.68,484.859L1797.8,484.917L1797.91,484.975L1798.03,485.033L1798.14,485.091L1798.26,485.15L1798.37,485.21L1798.48,485.269L1798.6,485.329L1798.71,485.39L1798.82,485.45L1798.93,485.511L1799.05,485.573L1799.16,485.634L1799.27,485.697L1799.38,485.759L1799.5,485.822L1799.61,485.885L1799.72,485.948L1799.83,486.012L1799.94,486.076L1800.05,486.141L1800.16,486.206L1800.28,486.271L1800.39,486.337L1800.5,486.403L1800.61,486.469L1800.72,486.536L1800.83,486.603L1800.94,486.67L1801.05,486.738L1801.15,486.806L1801.26,486.874L1801.37,486.943L1801.48,487.012L1801.55,487.057L1801.59,487.081L1801.7,487.152L1801.81,487.223L1801.91,487.294L1802.02,487.365L1802.13,487.437L1802.24,487.509L1802.34,487.582L1802.45,487.654L1802.56,487.728L1802.66,487.801L1802.77,487.875L1802.87,487.949L1802.98,488.024L1803.08,488.099L1803.19,488.174L1803.29,488.25L1803.4,488.326L1803.5,488.402L1803.61,488.479L1803.71,488.556L1803.82,488.633L1803.92,488.711L1804.02,488.789L1804.13,488.867L1804.23,488.946L1804.33,489.025L1804.43,489.105L1804.54,489.185L1804.64,489.265L1804.74,489.345L1804.84,489.426L1804.94,489.507L1805.04,489.589L1805.14,489.671L1805.25,489.753L1805.35,489.836L1805.45,489.919L1805.55,490.002L1805.64,490.086L1805.75,490.17L1805.84,490.254L1805.94,490.339L1806.04,490.424L1806.14,490.51L1806.24,490.596L1806.34,490.682L1806.43,490.768L1806.53,490.855L1806.63,490.942L1806.73,491.03L1806.82,491.118L1806.92,491.206L1807.02,491.295L1807.11,491.384L1807.21,491.473L1807.3,491.563L1807.4,491.653L1807.49,491.743L1807.59,491.834L1807.68,491.925L1807.77,492.016L1807.87,492.108L1807.96,492.2L1808.05,492.293L1808.15,492.386L1808.24,492.479L1808.33,492.572L1808.42,492.666L1808.52,492.761L1808.61,492.855L1808.7,492.95L1808.79,493.046L1808.88,493.141L1808.97,493.237L1809.06,493.334L1809.15,493.43L1809.24,493.527L1809.33,493.625L1809.42,493.723L1809.51,493.821L1809.6,493.919L1809.68,494.018L1809.77,494.117L1809.86,494.217L1809.94,494.317L1810.03,494.417L1810.12,494.518L1810.2,494.619L1810.29,494.72L1810.38,494.822L1810.46,494.924L1810.55,495.026L1810.63,495.129L1810.71,495.232L1810.8,495.335L1810.88,495.439L1810.97,495.543L1811.05,495.648L1811.13,495.753L1811.21,495.858L1811.3,495.963L1811.38,496.069L1811.46,496.175L1811.54,496.282L1811.62,496.389L1811.7,496.496L1811.78,496.604L1811.86,496.712L1811.94,496.82L1812.02,496.929L1812.1,497.038L1812.16,497.127L1812.17,497.147L1812.25,497.258L1812.33,497.368L1812.4,497.479L1812.48,497.59L1812.56,497.702L1812.63,497.813L1812.71,497.926L1812.78,498.038L1812.86,498.151L1812.93,498.264L1813.01,498.378L1813.08,498.492L1813.15,498.606L1813.23,498.721L1813.3,498.836L1813.37,498.951L1813.44,499.067L1813.51,499.183L1813.58,499.299L1813.65,499.416L1813.72,499.533L1813.79,499.65L1813.86,499.768L1813.93,499.886L1814,500.004L1814.07,500.123L1814.14,500.242L1814.2,500.361L1814.27,500.481L1814.34,500.601L1814.4,500.721L1814.47,500.842L1814.54,500.963L1814.6,501.084L1814.66,501.206L1814.73,501.328L1814.79,501.45L1814.86,501.573L1814.92,501.696L1814.98,501.819L1815.04,501.943L1815.1,502.067L1815.17,502.191L1815.23,502.316L1815.29,502.441L1815.35,502.566L1815.41,502.692L1815.47,502.818L1815.52,502.944L1815.58,503.071L1815.64,503.198L1815.7,503.325L1815.76,503.453L1815.81,503.581L1815.87,503.712L1815.93,503.844L1815.98,503.98L1816.04,504.117L1816.1,504.254L1816.15,504.392L1816.21,504.531L1816.26,504.67L1816.31,504.81L1816.37,504.95L1816.42,505.091L1816.47,505.233L1816.52,505.375L1816.57,505.518L1816.62,505.662L1816.66,505.806L1816.71,505.95L1816.76,506.096L1816.8,506.242L1816.85,506.388L1816.89,506.535L1816.94,506.683L1816.98,506.831L1817.02,506.98L1817.06,507.129L1817.11,507.279L1817.15,507.43L1817.19,507.581L1817.23,507.733L1817.26,507.885L1817.3,508.038L1817.34,508.191L1817.38,508.345L1817.41,508.5L1817.45,508.655L1817.48,508.81L1817.52,508.967L1817.55,509.123L1817.58,509.281L1817.62,509.439L1817.65,509.597L1817.68,509.756L1817.71,509.916L1817.74,510.076L1817.77,510.236L1817.8,510.397L1817.83,510.559L1817.86,510.721L1817.88,510.884L1817.91,511.047L1817.94,511.211L1817.96,511.375L1817.99,511.54L1818.01,511.705L1818.03,511.841L1818.04,511.871L1818.06,512.037L1818.08,512.204L1818.1,512.372L1818.12,512.54L1818.15,512.708L1818.17,512.877L1818.18,513.046L1818.2,513.216L1818.22,513.386L1818.24,513.557L1818.26,513.728L1818.28,513.899L1818.29,514.071L1818.31,514.244L1818.32,514.417L1818.34,514.59L1818.35,514.764L1818.36,514.938L1818.38,515.113L1818.39,515.288L1818.4,515.463L1818.41,515.639L1818.42,515.815L1818.43,515.992L1818.44,516.169L1818.45,516.346L1818.46,516.524L1818.47,516.702L1818.48,516.881L1818.49,517.06L1818.49,517.239L1818.5,517.419L1818.5,517.599L1818.51,517.779L1818.51,517.96L1818.52,518.141L1818.52,518.323L1818.52,518.504L1818.53,518.686L1818.53,518.869L1818.53,519.052L1818.53,519.235L1818.53,519.418L1818.53,519.601L1818.53,519.785L1818.53,519.97L1818.53,520.154L1818.52,520.339L1818.52,520.524L1818.52,520.709L1818.51,520.895L1818.51,521.081L1818.5,521.267L1818.5,521.453L1818.49,521.64L1818.48,521.827L1818.48,522.014L1818.47,522.201L1818.46,522.389L1818.45,522.576L1818.44,522.764L1818.43,522.953L1818.42,523.141L1818.41,523.33L1818.4,523.518L1818.39,523.707L1818.37,523.896L1818.36,524.086L1818.35,524.275L1818.33,524.465L1818.32,524.655L1818.3,524.845L1818.29,525.035L1818.27,525.225L1818.25,525.415L1818.23,525.606L1818.22,525.797L1818.2,525.987L1818.18,526.178L1818.16,526.369L1818.14,526.56L1818.12,526.752L1818.09,526.943L1818.07,527.134L1818.05,527.326L1818.03,527.517L1818,527.709L1817.98,527.901L1817.95,528.092L1817.93,528.284L1817.9,528.476L1817.87,528.668L1817.85,528.86L1817.82,529.051L1817.79,529.243L1817.76,529.435L1817.73,529.627L1817.7,529.819L1817.67,530.011L1817.64,530.203L1817.61,530.395L1817.58,530.587L1817.54,530.779L1817.51,530.971L1817.48,531.163L1817.44,531.355L1817.4,531.547L1817.37,531.738L1817.33,531.93L1817.3,532.122L1817.26,532.313L1817.22,532.505L1817.18,532.696L1817.14,532.887L1817.1,533.078L1817.06,533.27L1817.02,533.46L1816.98,533.651L1816.93,533.842L1816.89,534.033L1816.85,534.223L1816.8,534.414L1816.76,534.604L1816.71,534.794L1816.67,534.984L1816.62,535.174L1816.57,535.363L1816.53,535.553L1816.48,535.742L1816.43,535.931L1816.38,536.12L1816.33,536.309L1816.28,536.497L1816.23,536.686L1816.17,536.874L1816.12,537.062L1816.07,537.249L1816.01,537.437L1815.96,537.624L1815.9,537.811L1815.85,537.997L1815.79,538.184L1815.73,538.37L1815.68,538.556L1815.62,538.742L1815.56,538.927L1815.5,539.112L1815.44,539.297L1815.38,539.481L1815.32,539.665L1815.25,539.849L1815.21,539.97L1815.19,540.033L1815.12,540.215L1815.06,540.398L1814.99,540.58L1814.93,540.762L1814.86,540.943L1814.79,541.124L1814.72,541.305L1814.65,541.485L1814.58,541.665L1814.51,541.845L1814.44,542.024L1814.37,542.202L1814.3,542.381L1814.22,542.559L1814.15,542.736L1814.08,542.913L1814,543.09L1813.92,543.266L1813.85,543.441L1813.77,543.617L1813.69,543.792L1813.61,543.966L1813.53,544.14L1813.45,544.313L1813.37,544.486L1813.29,544.658L1813.21,544.83L1813.13,545.001L1813.04,545.172L1812.96,545.343L1812.87,545.512L1812.79,545.681L1812.7,545.85L1812.61,546.018L1812.53,546.186L1812.44,546.353L1812.35,546.519L1812.26,546.685L1812.17,546.85L1812.08,547.015L1811.98,547.179L1811.89,547.342L1811.8,547.505L1811.7,547.667L1811.61,547.829L1811.51,547.99L1811.41,548.15L1811.32,548.31L1811.22,548.469L1811.12,548.625L1811,548.823L1810.87,549.019L1810.75,549.213L1810.62,549.406L1810.5,549.598L1810.37,549.789L1810.24,549.978L1810.12,550.167L1809.99,550.354L1809.86,550.541L1809.74,550.726L1809.61,550.911L1809.48,551.094L1809.35,551.276L1809.23,551.457L1809.1,551.637L1808.97,551.815L1808.84,551.993L1808.71,552.17L1808.58,552.345L1808.45,552.52L1808.32,552.693L1808.19,552.866L1808.06,553.037L1807.93,553.207L1807.8,553.377L1807.67,553.545L1807.54,553.712L1807.41,553.878L1807.27,554.043L1807.14,554.207L1807.01,554.37L1806.88,554.531L1806.75,554.692L1806.61,554.852L1806.48,555.011L1806.35,555.168L1806.21,555.325L1806.08,555.481L1805.94,555.635L1805.81,555.789L1805.68,555.941L1805.54,556.093L1805.41,556.243L1805.27,556.393L1805.14,556.541L1805,556.689L1804.87,556.835L1804.73,556.98L1804.59,557.125L1804.46,557.268L1804.32,557.411L1804.19,557.552L1804.05,557.693L1803.91,557.832L1803.78,557.971L1803.64,558.108L1803.5,558.244L1803.36,558.38L1803.23,558.514L1803.09,558.648L1802.95,558.781L1802.81,558.912L1802.67,559.043L1802.55,559.162L1802.54,559.172L1802.4,559.3L1802.26,559.427L1802.12,559.553L1801.98,559.678L1801.84,559.802L1801.7,559.925L1801.56,560.047L1801.42,560.168L1801.28,560.288L1801.14,560.408L1801,560.526L1800.86,560.643L1800.72,560.76L1800.58,560.875L1800.44,560.99L1800.3,561.103L1800.15,561.216L1800.01,561.328L1799.87,561.438L1799.73,561.548L1799.59,561.657L1799.45,561.765L1799.31,561.873L1799.17,561.979L1799.02,562.084L1798.88,562.189L1798.74,562.292L1798.6,562.395L1798.46,562.497L1798.32,562.597L1798.17,562.697L1798.03,562.797L1797.89,562.895L1797.75,562.992L1797.6,563.089L1797.46,563.184L1797.32,563.279L1797.18,563.373L1797.03,563.466L1796.89,563.558L1796.75,563.649L1796.61,563.739L1796.46,563.829L1796.32,563.918L1796.18,564.005L1796.04,564.092L1795.89,564.178L1795.75,564.264L1795.61,564.348L1795.46,564.432L1795.32,564.515L1795.18,564.597L1795.04,564.678L1794.89,564.758L1794.75,564.838L1794.61,564.916L1794.46,564.994L1794.32,565.071L1794.18,565.148L1794.04,565.223L1793.89,565.298L1793.75,565.372L1793.61,565.445L1793.46,565.517L1793.32,565.588L1793.18,565.659L1793.04,565.729L1792.89,565.798L1792.75,565.867L1792.61,565.934L1792.46,566.001L1792.32,566.067L1792.18,566.132L1792.04,566.197L1791.89,566.261L1791.75,566.324L1791.61,566.386L1791.47,566.447L1791.32,566.508L1791.18,566.568L1791.04,566.628L1790.9,566.686L1790.76,566.744L1790.61,566.801L1790.47,566.858L1790.33,566.913L1790.19,566.968L1790.05,567.022L1789.9,567.076L1789.76,567.129L1789.62,567.181L1789.48,567.232L1789.34,567.283L1789.26,567.311L1789.19,567.33L1789.05,567.374L1788.91,567.417L1788.77,567.459L1788.62,567.501L1788.48,567.542L1788.34,567.582L1788.2,567.622L1788.05,567.661L1787.91,567.699L1787.77,567.736L1787.63,567.773L1787.49,567.81L1787.35,567.845L1787.2,567.88L1787.06,567.914L1786.92,567.948L1786.78,567.981L1786.64,568.013L1786.5,568.045L1786.36,568.076L1786.22,568.107L1786.08,568.136L1785.94,568.166L1785.8,568.194L1785.66,568.222L1785.52,568.25L1785.38,568.276L1785.24,568.303L1785.11,568.328L1784.97,568.353L1784.83,568.377L1784.69,568.401L1784.55,568.425L1784.41,568.447L1784.28,568.469L1784.14,568.491L1784,568.512L1783.86,568.532L1783.73,568.552L1783.59,568.571L1783.45,568.59L1783.32,568.608L1783.18,568.625L1783.05,568.642L1782.91,568.659L1782.77,568.675L1782.64,568.69L1782.5,568.705L1782.37,568.719L1782.23,568.733L1782.1,568.746L1781.97,568.759L1781.83,568.771L1781.7,568.783L1781.56,568.794L1781.43,568.805L1781.3,568.815L1781.16,568.825L1781.03,568.834L1780.9,568.843L1780.77,568.851L1780.63,568.859L1780.5,568.866L1780.37,568.873L1780.24,568.88L1780.11,568.886L1779.98,568.891L1779.85,568.896L1779.72,568.9L1779.59,568.904L1779.45,568.908L1779.33,568.911L1779.19,568.914L1779.07,568.916L1778.94,568.918L1778.81,568.919L1778.68,568.92L1778.55,568.921L1778.42,568.921L1778.3,568.92L1778.17,568.92L1778.04,568.918L1777.91,568.917L1777.79,568.915L1777.66,568.912L1777.54,568.909L1777.41,568.906L1777.28,568.903L1777.16,568.899L1777.03,568.894L1776.91,568.889L1776.78,568.884L1776.66,568.879L1776.54,568.873L1776.41,568.867L1776.29,568.86L1776.16,568.853L1776.04,568.845L1775.92,568.838L1775.8,568.83L1775.67,568.821L1775.55,568.812L1775.43,568.803L1775.31,568.794L1775.19,568.784L1775.07,568.773L1774.95,568.763L1774.83,568.752L1774.71,568.741L1774.59,568.729L1774.47,568.718L1774.35,568.705L1774.23,568.693L1774.12,568.68L1774,568.667L1773.88,568.654L1773.76,568.64L1773.64,568.626L1773.53,568.612L1773.41,568.597L1773.3,568.582L1773.18,568.567L1773.07,568.552L1772.95,568.536L1772.84,568.52L1772.72,568.504L1772.61,568.487L1772.49,568.47L1772.38,568.453L1772.27,568.436L1772.15,568.418L1772.04,568.4L1771.93,568.382L1771.92,568.381L1771.82,568.363L1771.71,568.343L1771.6,568.322L1771.49,568.302L1771.38,568.281L1771.27,568.26L1771.16,568.239L1771.05,568.218L1770.94,568.196L1770.83,568.174L1770.72,568.152L1770.61,568.13L1770.51,568.107L1770.4,568.085L1770.29,568.062L1770.19,568.039L1770.08,568.016L1769.97,567.992L1769.76,567.945L1769.56,567.897L1769.35,567.848L1769.14,567.798L1768.94,567.748L1768.74,567.697L1768.54,567.646L1768.34,567.594L1768.14,567.541L1767.94,567.488L1767.75,567.434L1767.55,567.38L1767.36,567.326L1767.17,567.271L1766.98,567.215L1766.8,567.16L1766.61,567.103L1766.43,567.047L1766.25,566.99L1766.07,566.933L1765.89,566.876L1765.71,566.818L1765.54,566.76L1765.36,566.703L1765.19,566.644L1765.02,566.586L1764.86,566.528L1764.69,566.469L1764.53,566.411L1764.36,566.352L1764.2,566.294L1764.04,566.235L1763.89,566.176L1763.73,566.118L1763.58,566.059L1763.43,566.001L1763.28,565.943L1763.13,565.885L1762.99,565.827L1762.84,565.769L1762.7,565.712L1762.56,565.654L1762.42,565.597L1762.29,565.541L1762.15,565.484L1762.02,565.428L1761.89,565.373L1761.77,565.317L1761.64,565.263L1761.52,565.208L1761.39,565.154L1761.28,565.101L1761.16,565.048L1761.04,564.995L1760.93,564.943L1760.82,564.892L1760.71,564.841L1760.6,564.791L1760.5,564.742L1760.4,564.693L1760.3,564.645L1760.2,564.598L1760.1,564.551L1760.01,564.505L1759.92,564.46L1759.83,564.416L1759.75,564.372L1759.66,564.33L1759.58,564.288L1759.42,564.208L1759.27,564.131L1759.14,564.058L1759.01,563.99L1758.89,563.925L1758.78,563.866L1758.68,563.811L1758.59,563.761L1758.52,563.719L1758.51,563.717L1758.44,563.677L1758.39,563.643L1758.34,563.615L1758.27,563.577L1758.25,563.563L1758.28,563.572L1758.34,563.597L1758.4,563.615L1758.46,563.637L1758.54,563.663L1758.62,563.69L1758.71,563.722L1758.82,563.756L1758.93,563.793L1759.06,563.833L1759.19,563.875L1759.34,563.92L1759.5,563.966L1759.66,564.015L1759.75,564.039L1759.84,564.065L1759.93,564.09L1760.02,564.116L1760.12,564.143L1760.22,564.169L1760.32,564.196L1760.42,564.224L1760.52,564.251L1760.63,564.279L1760.74,564.307L1760.85,564.335L1760.96,564.364L1761.08,564.392L1761.2,564.421L1761.32,564.45L1761.44,564.479L1761.56,564.508L1761.69,564.537L1761.82,564.566L1761.95,564.595L1762.08,564.624L1762.21,564.653L1762.35,564.682L1762.49,564.711L1762.63,564.74L1762.77,564.769L1762.91,564.797L1763.06,564.826L1763.2,564.854L1763.35,564.882L1763.51,564.91L1763.66,564.938L1763.81,564.965L1763.97,564.992L1764.13,565.019L1764.29,565.046L1764.45,565.072L1764.61,565.097L1764.78,565.123L1764.94,565.148L1765.11,565.172L1765.28,565.197L1765.45,565.22L1765.63,565.243L1765.8,565.266L1765.98,565.288L1766.15,565.31L1766.33,565.331L1766.51,565.351L1766.7,565.371L1766.88,565.39L1767.07,565.409L1767.25,565.427L1767.44,565.444L1767.63,565.46L1767.82,565.476L1768.01,565.491L1768.2,565.505L1768.4,565.519L1768.59,565.531L1768.79,565.543L1768.99,565.554L1769.19,565.564L1769.39,565.573L1769.59,565.582L1769.79,565.589L1770,565.595L1770.2,565.601L1770.31,565.603L1770.41,565.605L1770.51,565.607L1770.62,565.609L1770.72,565.61L1770.83,565.611L1770.93,565.612L1771.04,565.612L1771.14,565.613L1771.25,565.613L1771.35,565.612L1771.46,565.612L1771.56,565.611L1771.67,565.61L1771.78,565.609L1771.88,565.607L1771.99,565.605L1772.09,565.603L1772.1,565.603L1772.2,565.602L1772.31,565.6L1772.42,565.598L1772.53,565.596L1772.64,565.594L1772.75,565.592L1772.86,565.589L1772.96,565.585L1773.07,565.582L1773.18,565.578L1773.29,565.574L1773.4,565.57L1773.51,565.565L1773.62,565.56L1773.73,565.554L1773.85,565.549L1773.96,565.542L1774.07,565.536L1774.18,565.529L1774.29,565.522L1774.4,565.515L1774.51,565.507L1774.63,565.499L1774.74,565.491L1774.85,565.482L1774.96,565.473L1775.08,565.463L1775.19,565.454L1775.3,565.443L1775.42,565.433L1775.53,565.422L1775.64,565.411L1775.76,565.399L1775.87,565.387L1775.99,565.375L1776.1,565.362L1776.22,565.349L1776.33,565.335L1776.44,565.322L1776.56,565.307L1776.67,565.293L1776.79,565.278L1776.9,565.262L1777.02,565.247L1777.14,565.23L1777.25,565.214L1777.37,565.197L1777.48,565.179L1777.6,565.162L1777.72,565.144L1777.83,565.125L1777.95,565.106L1778.07,565.087L1778.18,565.067L1778.3,565.047L1778.42,565.026L1778.54,565.005L1778.65,564.983L1778.77,564.961L1778.89,564.939L1779,564.916L1779.12,564.893L1779.24,564.869L1779.36,564.845L1779.48,564.821L1779.59,564.796L1779.71,564.771L1779.83,564.745L1779.95,564.718L1780.07,564.692L1780.18,564.665L1780.3,564.637L1780.42,564.609L1780.54,564.58L1780.66,564.551L1780.78,564.522L1780.9,564.492L1781.02,564.462L1781.13,564.431L1781.25,564.399L1781.37,564.368L1781.49,564.335L1781.61,564.303L1781.73,564.269L1781.85,564.236L1781.97,564.201L1782.09,564.167L1782.21,564.132L1782.33,564.096L1782.45,564.06L1782.57,564.023L1782.68,563.986L1782.8,563.948L1782.92,563.91L1783.04,563.872L1783.16,563.832L1783.28,563.793L1783.4,563.753L1783.52,563.712L1783.64,563.671L1783.76,563.629L1783.88,563.587L1784,563.544L1784.12,563.501L1784.24,563.457L1784.36,563.413L1784.48,563.368L1784.6,563.323L1784.72,563.277L1784.84,563.23L1784.96,563.183L1785.08,563.136L1785.2,563.088L1785.32,563.039L1785.43,562.99L1785.56,562.94L1785.67,562.89L1785.79,562.84L1785.91,562.788L1786.03,562.736L1786.15,562.684L1786.27,562.631L1786.39,562.577L1786.51,562.523L1786.63,562.469L1786.75,562.413L1786.87,562.358L1786.99,562.301L1787.11,562.244L1787.23,562.187L1787.34,562.129L1787.46,562.07L1787.58,562.011L1787.63,561.984L1787.7,561.954L1787.82,561.899L1787.94,561.844L1788.06,561.788L1788.18,561.731L1788.3,561.674L1788.42,561.617L1788.54,561.558L1788.66,561.499L1788.78,561.44L1788.9,561.379L1789.03,561.319L1789.14,561.257L1789.27,561.195L1789.38,561.132L1789.51,561.069L1789.62,561.005L1789.75,560.941L1789.87,560.876L1789.99,560.81L1790.11,560.743L1790.22,560.676L1790.34,560.609L1790.46,560.54L1790.58,560.471L1790.7,560.401L1790.82,560.331L1790.94,560.26L1791.06,560.189L1791.18,560.116L1791.3,560.043L1791.42,559.97L1791.54,559.896L1791.66,559.821L1791.78,559.745L1791.89,559.669L1792.01,559.592L1792.13,559.514L1792.25,559.436L1792.37,559.357L1792.49,559.277L1792.61,559.197L1792.72,559.116L1792.84,559.034L1792.96,558.952L1793.08,558.869L1793.2,558.785L1793.31,558.7L1793.43,558.615L1793.55,558.529L1793.67,558.442L1793.79,558.355L1793.9,558.267L1794.02,558.178L1794.14,558.089L1794.25,557.998L1794.37,557.907L1794.49,557.816L1794.6,557.723L1794.72,557.63L1794.84,557.536L1794.95,557.442L1795.07,557.346L1795.19,557.25L1795.3,557.153L1795.42,557.055L1795.53,556.957L1795.65,556.858L1795.77,556.758L1795.88,556.657L1796,556.556L1796.11,556.454L1796.23,556.351L1796.34,556.247L1796.46,556.142L1796.57,556.037L1796.68,555.931L1796.8,555.824L1796.91,555.716L1797.03,555.608L1797.14,555.499L1797.26,555.389L1797.37,555.278L1797.48,555.166L1797.6,555.054L1797.71,554.94L1797.82,554.826L1797.94,554.711L1798.05,554.596L1798.16,554.479L1798.28,554.362L1798.39,554.244L1798.5,554.125L1798.61,554.005L1798.62,553.995L1798.72,553.885L1798.84,553.764L1798.95,553.643L1799.06,553.52L1799.17,553.397L1799.29,553.273L1799.4,553.148L1799.51,553.022L1799.62,552.895L1799.73,552.768L1799.84,552.639L1799.95,552.51L1800.06,552.38L1800.17,552.249L1800.28,552.117L1800.39,551.984L1800.5,551.85L1800.61,551.716L1800.72,551.58L1800.83,551.444L1800.94,551.307L1801.05,551.168L1801.16,551.029L1801.27,550.889L1801.38,550.748L1801.49,550.606L1801.59,550.464L1801.7,550.32L1801.81,550.175L1801.92,550.03L1802.02,549.883L1802.13,549.736L1802.24,549.587L1802.35,549.438L1802.45,549.288L1802.56,549.136L1802.66,548.984L1802.77,548.831L1802.88,548.677L1802.98,548.522L1803.09,548.366L1803.19,548.209L1803.3,548.051L1803.4,547.892L1803.51,547.732L1803.61,547.571L1803.71,547.409L1803.82,547.246L1803.92,547.082L1804.02,546.917L1804.13,546.751L1804.23,546.584L1804.33,546.416L1804.43,546.248L1804.54,546.078L1804.64,545.907L1804.74,545.735L1804.84,545.562L1804.94,545.388L1805.04,545.212L1805.14,545.036L1805.25,544.859L1805.35,544.681L1805.44,544.502L1805.54,544.323L1805.62,544.193L1805.68,544.064L1805.75,543.934L1805.82,543.804L1805.89,543.673L1805.96,543.541L1806.02,543.409L1806.09,543.276L1806.16,543.142L1806.22,543.008L1806.29,542.873L1806.35,542.737L1806.41,542.601L1806.48,542.464L1806.54,542.327L1806.6,542.189L1806.66,542.05L1806.73,541.911L1806.79,541.771L1806.85,541.631L1806.91,541.49L1806.97,541.349L1807.03,541.206L1807.08,541.064L1807.14,540.921L1807.2,540.777L1807.26,540.633L1807.31,540.488L1807.37,540.343L1807.42,540.197L1807.48,540.05L1807.53,539.904L1807.58,539.756L1807.64,539.608L1807.69,539.46L1807.74,539.311L1807.79,539.162L1807.85,539.012L1807.9,538.862L1807.95,538.712L1808,538.56L1808.05,538.409L1808.09,538.257L1808.14,538.105L1808.19,537.952L1808.24,537.799L1808.28,537.645L1808.33,537.491L1808.37,537.337L1808.42,537.182L1808.43,537.129L1808.47,537.027L1808.51,536.872L1808.55,536.717L1808.6,536.561L1808.64,536.404L1808.68,536.248L1808.73,536.091L1808.77,535.934L1808.81,535.776L1808.85,535.618L1808.89,535.46L1808.93,535.302L1808.97,535.143L1809.01,534.984L1809.05,534.825L1809.09,534.665L1809.12,534.505L1809.16,534.345L1809.2,534.184L1809.23,534.024L1809.27,533.863L1809.3,533.702L1809.34,533.54L1809.37,533.379L1809.4,533.217L1809.44,533.055L1809.47,532.892L1809.5,532.73L1809.53,532.567L1809.57,532.405L1809.6,532.242L1809.62,532.079L1809.65,531.915L1809.68,531.752L1809.71,531.588L1809.74,531.425L1809.77,531.261L1809.79,531.097L1809.82,530.933L1809.85,530.769L1809.87,530.604L1809.9,530.44L1809.92,530.276L1809.94,530.111L1809.97,529.947L1809.99,529.782L1810.01,529.617L1810.04,529.453L1810.06,529.288L1810.08,529.123L1810.1,528.958L1810.12,528.793L1810.14,528.629L1810.16,528.464L1810.17,528.299L1810.19,528.134L1810.21,527.969L1810.23,527.805L1810.25,527.64L1810.26,527.475L1810.28,527.311L1810.29,527.146L1810.31,526.982L1810.32,526.817L1810.33,526.653L1810.35,526.489L1810.36,526.325L1810.37,526.16L1810.38,525.997L1810.39,525.833L1810.41,525.669L1810.42,525.506L1810.43,525.342L1810.44,525.179L1810.44,525.016L1810.45,524.853L1810.46,524.69L1810.47,524.528L1810.48,524.365L1810.48,524.203L1810.49,524.041L1810.5,523.88L1810.5,523.718L1810.51,523.557L1810.51,523.396L1810.51,523.235L1810.52,523.074L1810.52,522.914L1810.52,522.754L1810.52,522.594L1810.53,522.435L1810.53,522.276L1810.53,522.117L1810.53,521.958L1810.53,521.8L1810.53,521.642L1810.53,521.484L1810.52,521.327L1810.52,521.17L1810.52,521.014L1810.52,520.857L1810.51,520.702L1810.51,520.546L1810.51,520.391L1810.5,520.236L1810.5,520.082L1810.49,519.928L1810.48,519.775L1810.48,519.622L1810.47,519.469L1810.46,519.317L1810.45,519.165L1810.45,519.014L1810.44,518.863L1810.43,518.713L1810.42,518.563L1810.41,518.414L1810.4,518.265L1810.39,518.117L1810.38,517.969L1810.37,517.822L1810.36,517.675L1810.34,517.529L1810.33,517.384L1810.32,517.239L1810.3,517.094L1810.29,516.95L1810.28,516.807L1810.26,516.664L1810.25,516.522L1810.23,516.381L1810.22,516.24L1810.2,516.1L1810.18,515.96L1810.17,515.821L1810.15,515.683L1810.13,515.545L1810.11,515.408L1810.09,515.272L1810.08,515.137L1810.06,515.002L1810.04,514.868L1810.02,514.734L1810,514.602L1809.98,514.47L1809.95,514.339L1809.93,514.208L1809.91,514.078L1809.89,513.95L1809.87,513.822L1809.85,513.694L1809.82,513.568L1809.82,513.545L1809.8,513.442L1809.78,513.317L1809.75,513.193L1809.73,513.069L1809.7,512.947L1809.68,512.825L1809.66,512.705L1809.63,512.585L1809.61,512.466L1809.58,512.348L1809.56,512.231L1809.53,512.114L1809.5,511.999L1809.48,511.885L1809.45,511.771L1809.42,511.659L1809.39,511.547L1809.37,511.437L1809.34,511.327L1809.31,511.219L1809.28,511.111L1809.25,511.005L1809.22,510.899L1809.19,510.795L1809.17,510.692L1809.14,510.589L1809.11,510.488L1809.08,510.388L1809.05,510.289L1809.02,510.191L1808.99,510.094L1808.95,509.999L1808.92,509.904L1808.89,509.811L1808.86,509.719L1808.83,509.628L1808.8,509.538L1808.77,509.45L1808.73,509.362L1808.7,509.276L1808.67,509.191L1808.64,509.108L1808.61,509.025L1808.57,508.944L1808.54,508.865L1808.51,508.786L1808.48,508.709L1808.44,508.633L1808.41,508.558L1808.38,508.485L1808.35,508.413L1808.31,508.343L1808.28,508.274L1808.25,508.202L1808.2,508.116L1808.16,508.026L1808.12,507.936L1808.07,507.846L1808.03,507.757L1807.98,507.668L1807.94,507.579L1807.89,507.49L1807.85,507.401L1807.8,507.313L1807.75,507.225L1807.71,507.137L1807.66,507.05L1807.61,506.962L1807.57,506.875L1807.52,506.788L1807.47,506.702L1807.42,506.615L1807.37,506.529L1807.32,506.443L1807.27,506.357L1807.22,506.272L1807.17,506.186L1807.12,506.101L1807.07,506.016L1807.02,505.932L1806.97,505.847L1806.92,505.763L1806.87,505.679L1806.81,505.595L1806.76,505.512L1806.71,505.428L1806.66,505.345L1806.6,505.262L1806.55,505.18L1806.5,505.097L1806.44,505.015L1806.39,504.933L1806.33,504.851L1806.28,504.769L1806.22,504.688L1806.16,504.607L1806.11,504.526L1806.05,504.445L1806,504.365L1805.94,504.284L1805.88,504.204L1805.83,504.125L1805.77,504.045L1805.71,503.966L1805.65,503.886L1805.59,503.807L1805.53,503.729L1805.47,503.65L1805.41,503.572L1805.4,503.558L1805.36,503.494L1805.3,503.415L1805.24,503.337L1805.18,503.259L1805.12,503.182L1805.06,503.104L1804.99,503.027L1804.93,502.95L1804.87,502.874L1804.81,502.797L1804.75,502.721L1804.68,502.645L1804.62,502.569L1804.56,502.493L1804.5,502.418L1804.43,502.343L1804.37,502.268L1804.31,502.193L1804.24,502.118L1804.18,502.044L1804.11,501.97L1804.05,501.896L1803.98,501.822L1803.92,501.749L1803.85,501.676L1803.78,501.602L1803.72,501.53L1803.65,501.457L1803.58,501.385L1803.52,501.313L1803.45,501.241L1803.38,501.169L1803.31,501.098L1803.25,501.026L1803.18,500.955L1803.11,500.885L1803.04,500.814L1802.97,500.744L1802.9,500.674L1802.83,500.604L1802.76,500.534L1802.69,500.465L1802.62,500.395L1802.55,500.326L1802.48,500.258L1802.4,500.189L1802.33,500.121L1802.26,500.053L1802.19,499.985L1802.12,499.917L1802.04,499.85L1801.97,499.783L1801.9,499.716L1801.83,499.649L1801.75,499.583L1801.68,499.517L1801.6,499.451L1801.53,499.385L1801.45,499.319L1801.38,499.254L1801.31,499.189L1801.23,499.124L1801.15,499.059L1801.08,498.995L1801,498.931L1800.93,498.867L1800.85,498.803L1800.77,498.74L1800.69,498.677L1800.62,498.614L1800.54,498.551L1800.46,498.488L1800.38,498.426L1800.31,498.364L1800.23,498.302L1800.15,498.241L1800.07,498.179L1799.99,498.118L1799.91,498.058L1799.83,497.997L1799.75,497.937L1799.67,497.876L1799.59,497.817L1799.51,497.757L1799.43,497.698L1799.35,497.638L1799.27,497.579L1799.19,497.521L1799.11,497.462L1799.03,497.404L1798.94,497.346L1798.86,497.289L1798.78,497.231L1798.7,497.174L1798.62,497.117L1798.53,497.06L1798.45,497.004L1798.37,496.948L1798.28,496.892L1798.2,496.836L1798.11,496.78L1798.03,496.725L1797.95,496.67L1797.86,496.615L1797.78,496.561L1797.69,496.507L1797.61,496.453L1797.52,496.399L1797.43,496.345L1797.35,496.292L1797.26,496.239L1797.18,496.186L1797.15,496.168L1797.09,496.134L1797.01,496.081L1796.92,496.028L1796.83,495.976L1796.75,495.924L1796.66,495.872L1796.57,495.82L1796.48,495.769L1796.4,495.718L1796.31,495.667L1796.22,495.617L1796.13,495.566L1796.04,495.516L1795.95,495.466L1795.87,495.417L1795.78,495.367L1795.69,495.318L1795.6,495.27L1795.51,495.221L1795.42,495.173L1795.33,495.125L1795.24,495.077L1795.15,495.03L1795.06,494.982L1794.97,494.935L1794.88,494.889L1794.79,494.842L1794.7,494.796L1794.61,494.75L1794.52,494.704L1794.42,494.659L1794.33,494.614L1794.24,494.569L1794.15,494.524L1794.06,494.48L1793.96,494.436L1793.87,494.392L1793.78,494.348L1793.69,494.305L1793.59,494.262L1793.5,494.219L1793.41,494.177L1793.32,494.134L1793.22,494.092L1793.13,494.051L1793.03,494.009L1792.94,493.968L1792.85,493.927L1792.75,493.886L1792.66,493.846L1792.56,493.806L1792.47,493.766L1792.37,493.727L1792.28,493.687L1792.18,493.648L1792.09,493.609L1791.99,493.571L1791.9,493.533L1791.8,493.495L1791.71,493.457L1791.61,493.42L1791.52,493.382L1791.42,493.345L1791.32,493.309L1791.23,493.273L1791.13,493.236L1791.03,493.201L1790.94,493.165L1790.84,493.13L1790.74,493.095L1790.65,493.06L1790.55,493.026L1790.45,492.992L1790.36,492.958L1790.26,492.924L1790.16,492.891L1790.06,492.858L1789.96,492.825L1789.87,492.793L1789.77,492.76L1789.67,492.728L1789.57,492.697L1789.47,492.665L1789.38,492.634L1789.28,492.603L1789.18,492.573L1789.08,492.543L1788.98,492.513L1788.88,492.483L1788.78,492.453L1788.68,492.424L1788.58,492.395L1788.49,492.367L1788.39,492.338L1788.29,492.31L1788.19,492.283L1788.09,492.255L1787.99,492.228L1787.89,492.201L1787.79,492.174L1787.69,492.148L1787.59,492.122L1787.49,492.096L1787.39,492.071L1787.29,492.046L1787.19,492.021L1787.09,491.996L1786.99,491.972L1786.88,491.947L1786.78,491.924L1786.68,491.9L1786.58,491.877L1786.48,491.854L1786.38,491.831L1786.28,491.809L1786.18,491.787L1786.08,491.765L1785.98,491.744L1785.88,491.722L1785.77,491.701L1785.67,491.681L1785.57,491.66L1785.47,491.64L1785.37,491.62L1785.27,491.601L1785.16,491.582L1785.06,491.563L1784.96,491.544L1784.86,491.526L1784.76,491.508L1784.65,491.49L1784.55,491.472L1784.45,491.455L1784.35,491.438L1784.25,491.422L1784.14,491.405L1784.04,491.389L1783.94,491.373L1783.84,491.358L1783.74,491.343L1783.63,491.328L1783.53,491.313L1783.43,491.299L1783.33,491.285L1783.23,491.271L1783.12,491.258L1783.02,491.245L1782.92,491.232L1782.82,491.219L1782.71,491.207L1782.61,491.195L1782.51,491.183L1782.4,491.172L1782.3,491.161L1782.2,491.15L1782.1,491.139L1781.99,491.129L1781.89,491.119L1781.79,491.11L1781.69,491.1L1781.58,491.091L1781.48,491.082L1781.38,491.074L1781.28,491.066L1781.17,491.058L1781.07,491.05L1780.97,491.043L1780.86,491.036L1780.76,491.029L1780.66,491.023L1780.56,491.017L1780.45,491.011L1780.35,491.005L1780.25,491L1780.14,490.995L1780.04,490.99L1779.94,490.986L1779.84,490.982L1779.73,490.978L1779.63,490.975L1779.53,490.972L1779.43,490.969L1779.32,490.966L1779.22,490.964L1779.12,490.962L1779.02,490.96L1778.91,490.959L1778.81,490.958L1778.71,490.957L1778.61,490.956L1778.5,490.956L1778.4,490.956L1778.3,490.956L1778.2,490.957L1778.09,490.958L1777.99,490.959L1777.89,490.961L1777.79,490.963L1777.75,490.963L1777.68,490.965L1777.58,490.967L1777.48,490.969L1777.38,490.972L1777.28,490.975L1777.17,490.978L1777.07,490.982L1776.97,490.986L1776.87,490.99L1776.77,490.994L1776.66,490.999L1776.56,491.004L1776.46,491.01L1776.36,491.015L1776.26,491.021L1776.16,491.028L1776.06,491.034L1775.95,491.041L1775.85,491.048L1775.75,491.056L1775.65,491.063L1775.55,491.071L1775.45,491.08L1775.35,491.088L1775.25,491.097L1775.14,491.107L1775.04,491.116L1774.94,491.126L1774.84,491.136L1774.74,491.147L1774.64,491.157L1774.54,491.168L1774.44,491.18L1774.34,491.191L1774.24,491.203L1774.14,491.215L1774.04,491.228L1773.94,491.241L1773.84,491.254L1773.74,491.267L1773.64,491.281L1773.54,491.295L1773.44,491.309L1773.34,491.324L1773.24,491.338L1773.14,491.354L1773.04,491.369L1772.94,491.385L1772.84,491.401L1772.75,491.417L1772.65,491.434L1772.55,491.451L1772.45,491.468L1772.35,491.486L1772.25,491.503L1772.15,491.522L1772.06,491.54L1771.96,491.559L1771.86,491.578L1771.76,491.597L1771.66,491.617L1771.57,491.637L1771.47,491.657L1771.37,491.677L1771.27,491.698L1771.17,491.719L1771.08,491.74L1770.98,491.762L1770.88,491.784L1770.79,491.806L1770.69,491.829L1770.59,491.852L1770.5,491.875L1770.4,491.898L1770.3,491.922L1770.21,491.946L1770.11,491.97L1770.02,491.995L1769.92,492.02L1769.82,492.045L1769.73,492.071L1769.63,492.096L1769.54,492.122L1769.44,492.149L1769.35,492.175L1769.25,492.202L1769.16,492.23L1769.06,492.257L1768.97,492.285L1768.88,492.313L1768.78,492.342L1768.69,492.37L1768.59,492.399L1768.5,492.429L1768.4,492.458L1768.31,492.488L1768.22,492.518L1768.12,492.549L1768.03,492.579L1767.94,492.61L1767.85,492.642L1767.75,492.673L1767.66,492.705L1767.57,492.737L1767.48,492.77L1767.39,492.803L1767.29,492.836L1767.2,492.869L1767.11,492.903L1767.02,492.937L1766.93,492.971L1766.84,493.005L1766.75,493.04L1766.66,493.075L1766.57,493.111L1766.48,493.146L1766.38,493.182L1766.3,493.218L1766.2,493.255L1766.12,493.292L1766.03,493.329L1765.94,493.366L1765.85,493.404L1765.76,493.442L1765.67,493.48L1765.58,493.518L1765.49,493.557L1765.4,493.596L1765.32,493.636L1765.23,493.675L1765.14,493.715L1765.05,493.756L1764.97,493.796L1764.88,493.837L1764.79,493.878L1764.7,493.919L1764.62,493.961L1764.53,494.003L1764.45,494.045L1764.36,494.088L1764.27,494.13L1764.19,494.173L1764.1,494.217L1764.02,494.26L1763.93,494.304L1763.85,494.348L1763.77,494.392L1763.64,494.458L1763.52,494.524L1763.4,494.59L1763.28,494.656L1763.16,494.724L1763.04,494.791L1762.92,494.86L1762.8,494.928L1762.68,494.998L1762.56,495.068L1762.45,495.138L1762.33,495.209L1762.22,495.28L1762.1,495.352L1761.99,495.425L1761.87,495.498L1761.76,495.571L1761.64,495.645L1761.53,495.719L1761.42,495.794L1761.31,495.87L1761.2,495.946L1761.09,496.022L1760.98,496.099L1760.87,496.176L1760.76,496.254L1760.65,496.333L1760.55,496.411L1760.44,496.491L1760.33,496.57L1760.23,496.651L1760.12,496.731L1760.02,496.812L1759.91,496.894L1759.81,496.976L1759.71,497.059L1759.6,497.142L1759.5,497.225L1759.4,497.309L1759.3,497.393L1759.2,497.478L1759.1,497.563L1759,497.649L1758.9,497.735L1758.8,497.821L1758.71,497.908L1758.61,497.996L1758.51,498.083L1758.42,498.172L1758.32,498.26L1758.23,498.349L1758.13,498.439L1758.04,498.529L1757.94,498.619L1757.85,498.71L1757.76,498.801L1757.67,498.892L1757.57,498.984L1757.48,499.076L1757.39,499.169L1757.3,499.262L1757.21,499.356L1757.13,499.449L1757.04,499.544L1756.95,499.638L1756.86,499.733L1756.78,499.829L1756.69,499.924L1756.6,500.021L1756.52,500.117L1756.43,500.214L1756.35,500.311L1756.27,500.409L1756.18,500.507L1756.1,500.605L1756.02,500.704L1755.94,500.803L1755.86,500.902L1755.78,501.002L1755.7,501.102L1755.62,501.203L1755.54,501.304L1755.46,501.405L1755.38,501.506L1755.31,501.608L1755.23,501.71L1755.15,501.813L1755.08,501.916L1755,502.019L1755,502.021L1754.93,502.122L1754.85,502.226L1754.78,502.33L1754.7,502.434L1754.63,502.538L1754.56,502.643L1754.49,502.749L1754.42,502.854L1754.35,502.96L1754.28,503.066L1754.21,503.173L1754.14,503.279L1754.07,503.386L1754,503.494L1753.93,503.601L1753.87,503.709L1753.8,503.817L1753.73,503.926L1753.67,504.035L1753.6,504.144L1753.54,504.253L1753.47,504.363L1753.41,504.472L1753.35,504.583L1753.28,504.693L1753.22,504.804L1753.16,504.915L1753.1,505.026L1753.04,505.137L1752.98,505.249L1752.92,505.361L1752.86,505.473L1752.8,505.586L1752.75,505.698L1752.69,505.811L1752.63,505.924L1752.57,506.038L1752.52,506.151L1752.46,506.265L1752.41,506.379L1752.35,506.494L1752.3,506.608L1752.25,506.723L1752.19,506.838L1752.14,506.953L1752.09,507.069L1752.04,507.184L1751.99,507.3L1751.94,507.416L1751.89,507.532L1751.84,507.649L1751.79,507.765L1751.74,507.882L1751.69,507.999L1751.65,508.116L1751.6,508.234L1751.56,508.351L1751.51,508.469L1751.47,508.587L1751.42,508.705L1751.38,508.823L1751.33,508.941L1751.29,509.06L1751.25,509.179L1751.21,509.298L1751.16,509.417L1751.12,509.536L1751.08,509.655L1751.04,509.775L1751,509.894L1750.97,510.014L1750.93,510.134L1750.89,510.254L1750.85,510.374L1750.82,510.494L1750.78,510.615L1750.74,510.735L1750.71,510.856L1750.67,510.977L1750.64,511.098L1750.61,511.219L1750.57,511.34L1750.54,511.461L1750.51,511.583L1750.48,511.704L1750.45,511.825L1750.42,511.947L1750.39,512.069L1750.36,512.191L1750.33,512.312L1750.3,512.434L1750.27,512.556L1750.24,512.679L1750.22,512.801L1750.19,512.923L1750.16,513.045L1750.14,513.168L1750.12,513.29L1750.09,513.413L1750.07,513.535L1750.04,513.658L1750.02,513.78L1750,513.903L1749.98,514.026L1749.96,514.149L1749.94,514.271L1749.92,514.394L1749.9,514.517L1749.88,514.64L1749.86,514.763L1749.84,514.886L1749.82,515.009L1749.81,515.132L1749.79,515.255L1749.78,515.378L1749.76,515.501L1749.75,515.624L1749.73,515.747L1749.72,515.87L1749.7,515.993L1749.69,516.116L1749.68,516.239L1749.67,516.362L1749.66,516.485L1749.64,516.607L1749.63,516.73L1749.63,516.853L1749.62,516.976L1749.61,517.099L1749.6,517.221L1749.59,517.344L1749.59,517.467L1749.58,517.589L1749.57,517.712L1749.57,517.834L1749.56,517.957L1749.56,518.079L1749.56,518.202L1749.55,518.324L1749.55,518.446L1749.55,518.568L1749.54,518.69L1749.54,518.812L1749.54,518.934L1749.54,519.056L1749.54,519.177L1749.54,519.299L1749.54,519.421L1749.55,519.542L1749.55,519.663L1749.55,519.785L1749.56,519.906L1749.56,520.027L1749.56,520.148L1749.57,520.268L1749.57,520.389L1749.58,520.51L1749.59,520.63L1749.59,520.75L1749.6,520.87L1749.61,520.991L1749.62,521.11L1749.63,521.23L1749.63,521.35L1749.64,521.469L1749.66,521.589L1749.67,521.708L1749.68,521.827L1749.69,521.946L1749.7,522.064L1749.72,522.183L1749.73,522.301L1749.74,522.42L1749.76,522.538L1749.77,522.656L1749.79,522.773L1749.81,522.891L1749.82,523.008L1749.84,523.125L1749.86,523.242L1749.88,523.359L1749.89,523.476L1749.91,523.592L1749.93,523.708L1749.95,523.824L1749.97,523.94L1750,524.056L1750.02,524.171L1750.04,524.287L1750.06,524.402L1750.09,524.516L1750.11,524.631L1750.13,524.745L1750.16,524.859L1750.18,524.973L1750.21,525.087L1750.24,525.2L1750.26,525.314L1750.29,525.426L1750.32,525.539L1750.35,525.652L1750.37,525.764L1750.4,525.876L1750.43,525.988L1750.46,526.099L1750.49,526.211L1750.53,526.322L1750.56,526.432L1750.59,526.543L1750.62,526.653L1750.65,526.763L1750.69,526.873L1750.72,526.982L1750.76,527.091L1750.79,527.2L1750.83,527.309L1750.86,527.417L1750.9,527.525L1750.94,527.633L1750.98,527.741L1751.01,527.848L1751.05,527.955L1751.09,528.062L1751.13,528.168L1751.17,528.274L1751.21,528.38L1751.25,528.485L1751.29,528.591L1751.34,528.695L1751.38,528.8L1751.42,528.904L1751.47,529.008L1751.51,529.112L1751.55,529.215L1751.6,529.318L1751.64,529.421L1751.69,529.524L1751.74,529.626L1751.78,529.728L1751.83,529.829L1751.88,529.93L1751.93,530.031L1751.98,530.132L1752.03,530.232L1752.08,530.332L1752.12,530.431L1752.18,530.53L1752.23,530.629L1752.28,530.728L1752.33,530.826L1752.38,530.924L1752.44,531.022L1752.49,531.119L1752.55,531.216L1752.6,531.312L1752.65,531.408L1752.71,531.504L1752.77,531.6L1752.82,531.695L1752.88,531.789L1752.94,531.884L1753,531.978L1753.06,532.072L1753.11,532.165L1753.17,532.258L1753.23,532.351L1753.29,532.443L1753.36,532.535L1753.42,532.627L1753.48,532.718L1753.54,532.809L1753.61,532.899L1753.67,532.989L1753.73,533.079L1753.8,533.168L1753.86,533.257L1753.93,533.346L1753.99,533.434L1754.06,533.522L1754.13,533.609L1754.19,533.697L1754.26,533.783L1754.33,533.87L1754.4,533.956L1754.47,534.041L1754.54,534.126L1754.61,534.211L1754.68,534.296L1754.75,534.38L1754.83,534.463L1754.9,534.547L1754.97,534.63L1755.05,534.712L1755.12,534.794L1755.19,534.876L1755.27,534.957L1755.35,535.038L1755.42,535.118L1755.5,535.199L1755.58,535.278L1755.65,535.357L1755.73,535.436L1755.81,535.515L1755.89,535.593L1755.97,535.67L1756.05,535.748L1756.13,535.824L1756.21,535.901L1756.3,535.977L1756.38,536.052L1756.46,536.127L1756.55,536.202L1756.63,536.276L1756.72,536.35L1756.8,536.424L1756.89,536.497L1756.97,536.569L1757.06,536.641L1757.15,536.713L1757.24,536.784L1757.33,536.855L1757.41,536.925L1757.51,536.995L1757.6,537.065L1757.69,537.134L1757.78,537.202L1757.87,537.271L1757.96,537.338L1758.06,537.405L1758.15,537.472L1758.25,537.538L1758.34,537.604L1758.44,537.67L1758.53,537.735L1758.63,537.799L1758.73,537.863L1758.83,537.926L1758.92,537.989L1759.02,538.052L1759.12,538.114L1759.22,538.175L1759.33,538.236L1759.43,538.297L1759.53,538.357L1759.63,538.417L1759.74,538.476L1759.84,538.534L1759.94,538.592L1760.05,538.65L1760.16,538.707L1760.26,538.763L1760.37,538.819L1760.48,538.875L1760.59,538.93L1760.69,538.984L1760.81,539.038L1760.92,539.092L1761.03,539.144L1761.14,539.197L1761.25,539.249L1761.36,539.3L1761.48,539.35L1761.59,539.401L1761.71,539.45L1761.82,539.499L1761.94,539.548L1762.06,539.595L1762.17,539.643L1762.29,539.689L1762.41,539.736L1762.53,539.781L1762.65,539.826L1762.77,539.871L1762.89,539.914L1763.02,539.958L1763.14,540L1763.26,540.042L1763.39,540.084L1763.51,540.124L1763.64,540.165L1763.77,540.204L1763.89,540.243L1764.02,540.281L1764.15,540.319L1764.28,540.356L1764.41,540.392L1764.54,540.428L1764.67,540.463L1764.8,540.498L1764.93,540.532L1765.07,540.565L1765.2,540.597L1765.34,540.629L1765.47,540.66L1765.61,540.691L1765.75,540.721L1765.88,540.75L1766.02,540.778L1766.16,540.806L1766.3,540.833L1766.44,540.859L1766.58,540.885L1766.73,540.91L1766.87,540.934L1767.01,540.958L1767.16,540.98L1767.3,541.002L1767.45,541.024L1767.59,541.044L1767.74,541.064L1767.89,541.083L1768.04,541.101L1768.19,541.119L1768.34,541.136L1768.49,541.152L1768.64,541.167L1768.79,541.182L1768.94,541.196L1769.1,541.209L1769.25,541.221L1769.41,541.232L1769.57,541.243L1769.72,541.253L1769.83,541.258L1769.93,541.264L1770.04,541.269L1770.14,541.273L1770.25,541.276L1770.35,541.279L1770.46,541.282L1770.56,541.284L1770.67,541.285L1770.78,541.286L1770.88,541.286L1770.99,541.286L1771.1,541.285L1771.21,541.283L1771.32,541.281L1771.42,541.279L1771.53,541.275L1771.64,541.272L1771.75,541.267L1771.86,541.262L1771.97,541.257L1772.08,541.251L1772.19,541.244L1772.3,541.237L1772.41,541.23L1772.52,541.221L1772.63,541.213L1772.74,541.203L1772.85,541.193L1772.96,541.183L1773.07,541.172L1773.18,541.16L1773.3,541.148L1773.41,541.135L1773.52,541.122L1773.63,541.108L1773.74,541.094L1773.86,541.079L1773.97,541.064L1774.08,541.048L1774.19,541.032L1774.3,541.015L1774.42,540.997L1774.53,540.979L1774.64,540.96L1774.75,540.941L1774.87,540.922L1774.98,540.901L1775.09,540.881L1775.2,540.859L1775.32,540.838L1775.43,540.815L1775.54,540.793L1775.66,540.769L1775.77,540.746L1775.88,540.721L1776,540.696L1776.11,540.671L1776.22,540.645L1776.33,540.619L1776.45,540.592L1776.56,540.565L1776.67,540.537L1776.78,540.509L1776.9,540.48L1777.01,540.45L1777.12,540.421L1777.23,540.39L1777.35,540.36L1777.46,540.328L1777.57,540.297L1777.68,540.264L1777.8,540.232L1777.86,540.213L1777.91,540.199L1778.02,540.165L1778.13,540.131L1778.24,540.097L1778.35,540.062L1778.46,540.027L1778.58,539.991L1778.69,539.955L1778.8,539.918L1778.91,539.881L1779.02,539.844L1779.13,539.806L1779.24,539.768L1779.35,539.729L1779.46,539.69L1779.57,539.65L1779.68,539.61L1779.79,539.569L1779.89,539.528L1780,539.487L1780.11,539.445L1780.22,539.403L1780.33,539.36L1780.44,539.317L1780.54,539.274L1780.65,539.23L1780.76,539.186L1780.87,539.141L1780.97,539.096L1781.08,539.051L1781.18,539.005L1781.29,538.959L1781.39,538.913L1781.5,538.866L1781.61,538.819L1781.71,538.771L1781.81,538.723L1781.92,538.675L1782.02,538.626L1782.12,538.577L1782.23,538.528L1782.33,538.478L1782.43,538.428L1782.53,538.378L1782.63,538.327L1782.74,538.276L1782.84,538.224L1782.94,538.173L1783.04,538.121L1783.13,538.068L1783.23,538.016L1783.33,537.963L1783.43,537.91L1783.53,537.856L1783.63,537.802L1783.72,537.748L1783.82,537.694L1783.92,537.639L1784.01,537.584L1784.11,537.529L1784.2,537.473L1784.3,537.418L1784.39,537.362L1784.48,537.305L1784.58,537.249L1784.67,537.192L1784.76,537.135L1784.85,537.078L1784.94,537.02L1785.03,536.963L1785.12,536.905L1785.21,536.847L1785.3,536.788L1785.39,536.73L1785.48,536.671L1785.56,536.612L1785.65,536.553L1785.74,536.494L1785.82,536.434L1785.91,536.375L1785.99,536.315L1786.08,536.255L1786.16,536.195L1786.24,536.134L1786.32,536.074L1786.4,536.013L1786.49,535.953L1786.57,535.892L1786.65,535.831L1786.73,535.77L1786.8,535.708L1786.88,535.647L1786.96,535.586L1787.03,535.524L1787.11,535.463L1787.18,535.401L1787.26,535.339L1787.33,535.278L1787.41,535.216L1787.48,535.154L1787.55,535.092L1787.62,535.03L1787.69,534.968L1787.76,534.906L1787.83,534.844L1787.9,534.782L1787.97,534.72L1788.03,534.658L1788.1,534.596L1788.16,534.534L1788.23,534.472L1788.29,534.41L1788.36,534.348L1788.42,534.286L1788.48,534.225L1788.54,534.163L1788.6,534.101L1788.66,534.04L1788.72,533.978L1788.78,533.917L1788.84,533.856L1788.89,533.795L1788.95,533.734L1789,533.674L1789.06,533.613L1789.11,533.553L1789.16,533.493L1789.21,533.433L1789.26,533.373L1789.31,533.313L1789.36,533.254L1789.41,533.195L1789.46,533.136L1789.5,533.077L1789.55,533.019L1789.59,532.961L1789.64,532.903L1789.68,532.846L1789.72,532.789L1789.77,532.732L1789.81,532.675L1789.85,532.619L1789.88,532.563L1789.92,532.508L1789.96,532.453L1790,532.398L1790.03,532.344L1790.07,532.29L1790.1,532.237L1790.13,532.184L1790.17,532.132L1790.2,532.08L1790.23,532.028L1790.26,531.977L1790.29,531.927L1790.32,531.877L1790.34,531.827L1790.37,531.778L1790.4,531.73L1790.42,531.682L1790.44,531.635L1790.47,531.589L1790.49,531.543L1790.51,531.497L1790.53,531.452L1790.56,531.408L1790.57,531.365L1790.59,531.322L1790.61,531.28L1790.63,531.238L1790.64,531.198L1790.66,531.157L1790.68,531.118L1790.69,531.079L1790.71,531.034L1790.71,531.023L1790.72,531.004L1790.73,530.986L1790.73,530.967L1790.74,530.949L1790.74,530.932L1790.75,530.914L1790.76,530.896L1790.76,530.879L1790.77,530.862L1790.77,530.845L1790.78,530.828L1790.78,530.812L1790.79,530.795L1790.79,530.779L1790.8,530.763L1790.8,530.731L1790.81,530.699L1790.82,530.666L1790.83,530.634L1790.84,530.601L1790.85,530.569L1790.85,530.536L1790.86,530.503L1790.87,530.471L1790.88,530.438L1790.88,530.405L1790.89,530.372L1790.9,530.339L1790.91,530.305L1790.91,530.272L1790.92,530.239L1790.93,530.205L1790.93,530.172L1790.94,530.138L1790.94,530.104L1790.95,530.071L1790.96,530.037L1790.96,530.003L1790.97,529.969L1790.97,529.934L1790.98,529.9L1790.98,529.866L1790.99,529.831L1790.99,529.797L1791,529.762L1791,529.727L1791.01,529.692L1791.01,529.657L1791.02,529.622L1791.02,529.587L1791.02,529.551L1791.03,529.516L1791.03,529.48L1791.03,529.445L1791.04,529.409L1791.04,529.373L1791.04,529.337L1791.05,529.301L1791.05,529.264L1791.05,529.228L1791.05,529.191L1791.05,529.155L1791.06,529.118L1791.06,529.081L1791.06,529.044L1791.06,529.007L1791.06,528.97L1791.06,528.932L1791.07,528.895L1791.07,528.857L1791.07,528.819L1791.07,528.781L1791.07,528.743L1791.07,528.705L1791.07,528.667L1791.07,528.629L1791.07,528.59L1791.07,528.551L1791.07,528.513L1791.07,528.474L1791.07,528.435L1791.07,528.396L1791.07,528.356L1791.06,528.317L1791.06,528.277L1791.06,528.238L1791.06,528.198L1791.06,528.158L1791.06,528.118L1791.05,528.078L1791.05,528.038L1791.05,527.997L1791.05,527.957L1791.04,527.916L1791.04,527.875L1791.04,527.834L1791.03,527.793L1791.03,527.752L1791.03,527.711L1791.02,527.67L1791.02,527.628L1791.01,527.586L1791.01,527.545L1791.01,527.503L1791,527.461L1791,527.419L1790.99,527.377L1790.99,527.334L1790.98,527.292L1790.97,527.249L1790.97,527.206L1790.96,527.164L1790.96,527.121L1790.95,527.078L1790.94,527.035L1790.94,526.991L1790.93,526.948L1790.92,526.905L1790.92,526.861L1790.91,526.817L1790.9,526.773L1790.89,526.73L1790.89,526.686L1790.88,526.641L1790.87,526.597L1790.86,526.553L1790.86,526.514L1790.84,526.419L1790.82,526.33L1790.8,526.24L1790.78,526.15L1790.76,526.059L1790.74,525.968L1790.72,525.876L1790.7,525.785L1790.67,525.693L1790.65,525.6L1790.63,525.508L1790.6,525.414L1790.58,525.321L1790.55,525.228L1790.52,525.134L1790.49,525.039L1790.47,524.945L1790.44,524.85L1790.41,524.755L1790.38,524.66L1790.34,524.565L1790.31,524.469L1790.28,524.373L1790.25,524.277L1790.21,524.181L1790.18,524.084L1790.14,523.988L1790.11,523.891L1790.07,523.794L1790.03,523.697L1789.99,523.6L1789.95,523.503L1789.92,523.405L1789.88,523.308L1789.84,523.21L1789.79,523.113L1789.75,523.015L1789.71,522.917L1789.67,522.819L1789.62,522.721L1789.58,522.624L1789.53,522.526L1789.49,522.428L1789.44,522.33L1789.39,522.232L1789.35,522.134L1789.3,522.036L1789.25,521.938L1789.2,521.84L1789.15,521.742L1789.1,521.645L1789.05,521.547L1789,521.449L1788.95,521.352L1788.89,521.255L1788.84,521.157L1788.79,521.06L1788.73,520.963L1788.68,520.866L1788.62,520.769L1788.57,520.673L1788.51,520.576L1788.45,520.48L1788.4,520.384L1788.34,520.288L1788.28,520.192L1788.22,520.097L1788.16,520.002L1788.1,519.907L1788.04,519.812L1787.98,519.717L1787.92,519.623L1787.86,519.529L1787.8,519.435L1787.73,519.341L1787.67,519.248L1787.61,519.155L1787.54,519.063L1787.48,518.97L1787.41,518.878L1787.35,518.786L1787.28,518.695L1787.22,518.604L1787.15,518.513L1787.09,518.423L1787.02,518.333L1786.95,518.243L1786.88,518.154L1786.82,518.065L1786.75,517.977L1786.68,517.889L1786.61,517.801L1786.54,517.714L1786.47,517.627L1786.4,517.541L1786.33,517.455L1786.26,517.37L1786.19,517.285L1786.12,517.2L1786.05,517.116L1785.98,517.033L1785.9,516.95L1785.83,516.867L1785.76,516.785L1785.69,516.704L1785.62,516.623L1785.54,516.542L1785.47,516.462L1785.4,516.383L1785.32,516.304L1785.25,516.226L1785.17,516.148L1785.1,516.071L1785.03,515.994L1784.95,515.918L1784.88,515.843L1784.8,515.768L1784.73,515.694L1784.65,515.62L1784.58,515.547L1784.51,515.475L1784.43,515.403L1784.36,515.332L1784.28,515.261L1784.21,515.191L1784.13,515.122L1784.06,515.054L1783.98,514.986L1783.91,514.919L1783.83,514.853L1783.76,514.787L1783.68,514.722L1783.61,514.657L1783.53,514.594L1783.45,514.531L1783.38,514.469L1783.31,514.407L1783.23,514.347L1783.16,514.287L1783.08,514.227L1783.01,514.169L1782.93,514.111L1782.86,514.054L1782.79,513.998L1782.71,513.943L1782.64,513.888L1782.56,513.834L1782.49,513.781L1782.42,513.729L1782.35,513.677L1782.27,513.627L1782.2,513.577L1782.13,513.528L1782.06,513.479L1781.98,513.432L1781.91,513.385L1781.84,513.34L1781.77,513.295L1781.7,513.251L1781.63,513.208L1781.56,513.165L1781.49,513.124L1781.42,513.083L1781.35,513.043L1781.29,513.004L1781.22,512.966L1781.15,512.929L1781.08,512.892L1781.02,512.857L1780.95,512.822L1780.89,512.788L1780.82,512.756L1780.76,512.724L1780.69,512.692L1780.63,512.662L1780.57,512.633L1780.51,512.604L1780.44,512.576L1780.38,512.549L1780.32,512.523L1780.26,512.498L1780.2,512.474L1780.15,512.451L1780.09,512.428L1780.03,512.406L1779.98,512.386L1779.92,512.366L1779.87,512.346L1779.81,512.328L1779.76,512.31L1779.71,512.294L1779.65,512.278L1779.6,512.263L1779.56,512.248L1779.51,512.235L1779.46,512.222L1779.41,512.21L1779.37,512.199L1779.32,512.188L1779.27,512.177L1779.22,512.166L1779.16,512.154L1779.11,512.143L1779.05,512.132L1779,512.121L1778.94,512.111L1778.89,512.101L1778.83,512.092L1778.78,512.082L1778.72,512.074L1778.67,512.065L1778.62,512.057L1778.56,512.049L1778.51,512.041L1778.46,512.034L1778.4,512.027L1778.35,512.021L1778.3,512.015L1778.25,512.009L1778.2,512.003L1778.14,511.998L1778.09,511.993L1778.04,511.989L1777.99,511.985L1777.94,511.981L1777.89,511.977L1777.84,511.974L1777.79,511.971L1777.74,511.968L1777.69,511.966L1777.64,511.964L1777.59,511.962L1777.54,511.96L1777.49,511.959L1777.44,511.958L1777.4,511.958L1777.35,511.957L1777.3,511.957L1777.25,511.957L1777.21,511.958L1777.16,511.959L1777.11,511.96L1777.07,511.961L1777.02,511.963L1776.97,511.965L1776.93,511.967L1776.88,511.969L1776.83,511.972L1776.79,511.975L1776.74,511.978L1776.7,511.981L1776.65,511.985L1776.61,511.989L1776.56,511.993L1776.52,511.998L1776.48,512.003L1776.43,512.008L1776.39,512.013L1776.34,512.018L1776.3,512.024L1776.26,512.03L1776.21,512.036L1776.17,512.042L1776.13,512.049L1776.09,512.056L1776.04,512.063L1776,512.07L1775.96,512.078L1775.92,512.086L1775.88,512.094L1775.84,512.102L1775.79,512.11L1775.75,512.119L1775.71,512.128L1775.67,512.137L1775.63,512.147L1775.59,512.156L1775.55,512.166L1775.51,512.176L1775.47,512.186L1775.43,512.197L1775.39,512.207L1775.35,512.218L1775.31,512.229L1775.28,512.24L1775.24,512.252L1775.2,512.263L1775.16,512.275L1775.12,512.287L1775.08,512.3L1775.05,512.312L1775.01,512.325L1774.97,512.338L1774.93,512.351L1774.89,512.364L1774.86,512.377L1774.82,512.391L1774.78,512.405L1774.75,512.419L1774.71,512.433L1774.67,512.447L1774.64,512.462L1774.6,512.477L1774.57,512.492L1774.53,512.507L1774.5,512.522L1774.46,512.538L1774.42,512.553L1774.39,512.569L1774.36,512.585L1774.32,512.601L1774.29,512.618L1774.25,512.634L1774.22,512.651L1774.18,512.668L1774.15,512.685L1774.11,512.702L1774.08,512.72L1774.05,512.737L1774.01,512.755L1773.98,512.773L1773.95,512.791L1773.91,512.81L1773.88,512.828L1773.85,512.847L1773.82,512.866L1773.78,512.885L1773.75,512.904L1773.72,512.923L1773.69,512.943L1773.65,512.962L1773.62,512.982L1773.59,513.002L1773.56,513.022L1773.53,513.043L1773.5,513.063L1773.47,513.084L1773.43,513.105L1773.4,513.126L1773.37,513.147L1773.34,513.168L1773.31,513.189L1773.28,513.211L1773.25,513.233L1773.22,513.255L1773.19,513.277L1773.16,513.299L1773.13,513.321L1773.1,513.344L1773.08,513.366L1773.05,513.389L1773.02,513.412L1772.99,513.435L1772.96,513.459L1772.93,513.482L1772.9,513.506L1772.87,513.529L1772.85,513.553L1772.82,513.577L1772.79,513.601L1772.76,513.626L1772.73,513.65L1772.71,513.675L1772.68,513.699L1772.65,513.724L1772.62,513.749L1772.6,513.775L1772.57,513.8L1772.54,513.825L1772.52,513.851L1772.49,513.877L1772.47,513.902L1772.44,513.928L1772.41,513.955L1772.39,513.981L1772.36,514.007L1772.34,514.034L1772.31,514.061L1772.28,514.087L1772.26,514.114L1772.23,514.141L1772.21,514.169L1772.18,514.196L1772.16,514.223L1772.13,514.251L1772.11,514.279L1772.09,514.306L1772.06,514.334L1772.04,514.362L1772.02,514.391L1771.99,514.419L1771.97,514.447L1771.94,514.476L1771.92,514.505L1771.9,514.534L1771.88,514.562L1771.85,514.592L1771.83,514.621L1771.81,514.65L1771.79,514.679L1771.76,514.709L1771.74,514.739L1771.72,514.768L1771.7,514.798L1771.67,514.828L1771.65,514.858L1771.63,514.888L1771.61,514.919L1771.59,514.949L1771.57,514.979L1771.55,515.01L1771.53,515.041L1771.51,515.071L1771.49,515.102L1771.47,515.133L1771.45,515.164L1771.43,515.196L1771.41,515.227L1771.39,515.258L1771.37,515.29L1771.35,515.321L1771.33,515.353L1771.31,515.385L1771.29,515.417L1771.27,515.449L1771.26,515.481L1771.24,515.513L1771.22,515.545L1771.2,515.577L1771.18,515.61L1771.16,515.642L1771.15,515.674L1771.13,515.707L1771.11,515.74L1771.1,515.773L1771.08,515.805L1771.06,515.838L1771.05,515.871L1771.03,515.904L1771.01,515.937L1771,515.971L1770.98,516.004L1770.97,516.037L1770.95,516.071L1770.93,516.104L1770.92,516.138L1770.9,516.171L1770.89,516.205L1770.87,516.239L1770.86,516.272L1770.84,516.306L1770.83,516.34L1770.82,516.374L1770.8,516.408L1770.79,516.442L1770.77,516.476L1770.76,516.51L1770.75,516.545L1770.73,516.579L1770.72,516.613L1770.71,516.647L1770.69,516.682L1770.68,516.716L1770.67,516.751L1770.66,516.785L1770.65,516.82L1770.63,516.854L1770.62,516.889L1770.61,516.924L1770.6,516.958L1770.59,516.993L1770.58,517.028L1770.57,517.063L1770.56,517.097L1770.55,517.132L1770.54,517.167L1770.53,517.202L1770.52,517.237L1770.51,517.272L1770.5,517.307L1770.49,517.342L1770.48,517.377L1770.47,517.412L1770.46,517.447L1770.45,517.482L1770.44,517.517L1770.43,517.552L1770.42,517.587L1770.42,517.622L1770.41,517.658L1770.4,517.693L1770.39,517.728L1770.38,517.763L1770.38,517.798L1770.37,517.833L1770.36,517.869L1770.36,517.904L1770.35,517.939L1770.34,517.974L1770.34,518.009L1770.33,518.044L1770.33,518.079L1770.32,518.115L1770.31,518.15L1770.31,518.185L1770.3,518.22L1770.3,518.255L1770.29,518.29L1770.29,518.325L1770.28,518.361L1770.28,518.396L1770.28,518.431L1770.27,518.466L1770.27,518.501L1770.26,518.536L1770.26,518.571L1770.26,518.606L1770.25,518.641L1770.25,518.676L1770.25,518.711L1770.24,518.746L1770.24,518.781L1770.24,518.815L1770.24,518.85L1770.24,518.885L1770.23,518.92L1770.23,518.955L1770.23,518.989L1770.23,519.024L1770.23,519.059L1770.23,519.093L1770.23,519.128L1770.22,519.163L1770.22,519.197L1770.22,519.232L1770.22,519.266L1770.22,519.301L1770.22,519.335L1770.22,519.37L1770.22,519.404L1770.22,519.438L1770.23,519.473L1770.23,519.507L1770.23,519.541L1770.23,519.575L1770.23,519.61L1770.23,519.644L1770.23,519.678L1770.24,519.712L1770.24,519.746L1770.24,519.78L1770.24,519.814L1770.24,519.848L1770.25,519.882L1770.25,519.915L1770.25,519.949L1770.26,519.983L1770.26,520.017L1770.26,520.05L1770.27,520.084L1770.27,520.118L1770.28,520.151L1770.28,520.185L1770.28,520.218L1770.29,520.251L1770.29,520.285L1770.3,520.318L1770.3,520.352L1770.31,520.385L1770.31,520.418L1770.32,520.451L1770.33,520.484L1770.33,520.518L1770.34,520.551L1770.34,520.584L1770.35,520.617L1770.36,520.65L1770.36,520.683L1770.37,520.716L1770.38,520.748L1770.38,520.781L1770.39,520.814L1770.4,520.847L1770.41,520.879L1770.41,520.912L1770.42,520.945L1770.43,520.977L1770.44,521.01L1770.45,521.043L1770.46,521.075L1770.47,521.108L1770.48,521.14L1770.48,521.172L1770.49,521.205L1770.5,521.237L1770.51,521.269L1770.52,521.302L1770.53,521.334L1770.54,521.366L1770.55,521.398L1770.57,521.431L1770.58,521.463L1770.59,521.495L1770.6,521.527L1770.61,521.559L1770.62,521.591L1770.63,521.623L1770.64,521.655L1770.66,521.687L1770.67,521.719L1770.68,521.751L1770.69,521.783L1770.71,521.815L1770.72,521.847L1770.73,521.879L1770.75,521.911L1770.76,521.942L1770.78,521.974L1770.79,522.006L1770.8,522.038L1770.82,522.07L1770.83,522.101L1770.85,522.133L1770.86,522.165L1770.88,522.197L1770.89,522.228L1770.91,522.26L1770.93,522.292L1770.94,522.323L1770.96,522.355L1770.98,522.387L1770.99,522.418L1771.01,522.45L1771.03,522.482L1771.04,522.513L1771.06,522.545L1771.08,522.577L1771.1,522.608L1771.12,522.64L1771.13,522.671L1771.15,522.703L1771.17,522.735L1771.19,522.766L1771.21,522.798L1771.23,522.829L1771.25,522.861L1771.27,522.893L1771.29,522.924L1771.31,522.956L1771.34,522.987L1771.36,523.019L1771.38,523.05L1771.4,523.082L1771.42,523.114L1771.44,523.145L1771.47,523.177L1771.49,523.208L1771.51,523.24L1771.54,523.271L1771.56,523.303L1771.59,523.334L1771.61,523.366L1771.63,523.398L1771.66,523.429L1771.68,523.461L1771.71,523.492L1771.74,523.524L1771.76,523.555L1771.79,523.587L1771.81,523.618L1771.84,523.65L1771.87,523.681L1771.9,523.713L1771.92,523.744L1771.95,523.776L1771.98,523.807L1772.01,523.839L1772.04,523.87L1772.07,523.902L1772.1,523.933L1772.13,523.965L1772.16,523.996L1772.19,524.027L1772.22,524.059L1772.25,524.09L1772.28,524.122L1772.32,524.153L1772.35,524.184L1772.38,524.216L1772.41,524.247L1772.45,524.279L1772.48,524.309L1772.52,524.341L1772.55,524.372L1772.59,524.403L1772.62,524.434L1772.66,524.466L1772.69,524.497L1772.73,524.528L1772.77,524.559L1772.8,524.59L1772.84,524.621L1772.88,524.652L1772.92,524.683L1772.95,524.714L1772.99,524.744L1773.03,524.775L1773.07,524.806L1773.11,524.837L1773.15,524.867L1773.19,524.898L1773.25,524.939L1774.76,526.636L1775.56,528.796L1775.6,531.142L1774.82,533.391L1774.82,533.397L1773.33,535.121L1771.44,536.034L1769.38,536.075L1767.41,535.187L1767.41,535.185L1767.33,535.128L1767.25,535.062L1767.16,534.996L1767.07,534.929L1766.99,534.861L1766.9,534.793L1766.81,534.725L1766.73,534.657L1766.64,534.588L1766.56,534.518L1766.48,534.448L1766.39,534.378L1766.31,534.307L1766.23,534.236L1766.15,534.165L1766.06,534.093L1765.98,534.02L1765.9,533.948L1765.82,533.874L1765.74,533.801L1765.66,533.728L1765.66,533.727L1765.59,533.652L1765.51,533.578L1765.43,533.503L1765.35,533.427L1765.28,533.351L1765.2,533.275L1765.12,533.198L1765.05,533.121L1764.97,533.043L1764.9,532.965L1764.82,532.887L1764.75,532.808L1764.68,532.729L1764.6,532.65L1764.53,532.57L1764.46,532.49L1764.39,532.41L1764.32,532.329L1764.25,532.248L1764.18,532.166L1764.11,532.084L1764.04,532.002L1763.97,531.919L1763.9,531.836L1763.84,531.753L1763.77,531.669L1763.7,531.585L1763.64,531.501L1763.57,531.416L1763.51,531.331L1763.44,531.246L1763.38,531.16L1763.32,531.074L1763.26,530.988L1763.19,530.901L1763.13,530.814L1763.07,530.727L1763.01,530.639L1762.95,530.551L1762.89,530.463L1762.83,530.375L1762.77,530.286L1762.71,530.197L1762.66,530.107L1762.6,530.018L1762.54,529.928L1762.49,529.837L1762.43,529.747L1762.38,529.656L1762.32,529.565L1762.27,529.473L1762.22,529.382L1762.16,529.29L1762.11,529.198L1762.06,529.105L1762.01,529.013L1761.96,528.92L1761.91,528.827L1761.86,528.733L1761.81,528.639L1761.76,528.546L1761.71,528.451L1761.66,528.357L1761.62,528.262L1761.57,528.168L1761.52,528.073L1761.48,527.977L1761.43,527.882L1761.39,527.786L1761.35,527.69L1761.3,527.594L1761.26,527.498L1761.22,527.401L1761.17,527.305L1761.13,527.208L1761.09,527.111L1761.05,527.014L1761.01,526.916L1760.98,526.818L1760.94,526.721L1760.9,526.623L1760.86,526.525L1760.83,526.426L1760.79,526.328L1760.75,526.229L1760.72,526.131L1760.68,526.032L1760.65,525.933L1760.62,525.834L1760.58,525.734L1760.55,525.635L1760.52,525.535L1760.49,525.436L1760.46,525.336L1760.43,525.236L1760.4,525.136L1760.37,525.036L1760.34,524.935L1760.31,524.835L1760.28,524.734L1760.26,524.634L1760.23,524.533L1760.2,524.432L1760.18,524.332L1760.15,524.231L1760.13,524.13L1760.11,524.028L1760.08,523.927L1760.06,523.826L1760.04,523.725L1760.02,523.623L1759.99,523.522L1759.97,523.42L1759.95,523.319L1759.93,523.217L1759.91,523.115L1759.9,523.014L1759.88,522.912L1759.86,522.81L1759.84,522.708L1759.83,522.606L1759.81,522.505L1759.8,522.403L1759.78,522.301L1759.77,522.199L1759.75,522.097L1759.74,521.995L1759.73,521.893L1759.72,521.79L1759.7,521.688L1759.69,521.586L1759.68,521.484L1759.67,521.382L1759.66,521.28L1759.65,521.178L1759.64,521.076L1759.63,520.974L1759.63,520.872L1759.62,520.77L1759.61,520.668L1759.61,520.566L1759.6,520.464L1759.6,520.362L1759.59,520.26L1759.59,520.158L1759.59,520.057L1759.58,519.955L1759.58,519.853L1759.58,519.751L1759.58,519.65L1759.57,519.548L1759.57,519.447L1759.57,519.345L1759.57,519.244L1759.57,519.142L1759.58,519.041L1759.58,518.94L1759.58,518.838L1759.58,518.737L1759.59,518.636L1759.59,518.535L1759.59,518.434L1759.6,518.333L1759.6,518.233L1759.61,518.132L1759.62,518.031L1759.62,517.931L1759.63,517.83L1759.64,517.73L1759.64,517.63L1759.65,517.53L1759.66,517.429L1759.67,517.33L1759.68,517.23L1759.69,517.13L1759.7,517.03L1759.71,516.931L1759.73,516.831L1759.74,516.732L1759.75,516.633L1759.76,516.533L1759.78,516.434L1759.79,516.335L1759.81,516.237L1759.82,516.138L1759.84,516.04L1759.85,515.941L1759.87,515.843L1759.88,515.745L1759.9,515.647L1759.92,515.549L1759.94,515.451L1759.96,515.353L1759.98,515.256L1760,515.158L1760.02,515.061L1760.04,514.964L1760.06,514.867L1760.08,514.77L1760.1,514.674L1760.12,514.577L1760.14,514.481L1760.17,514.385L1760.19,514.289L1760.21,514.193L1760.24,514.097L1760.26,514.002L1760.29,513.906L1760.31,513.811L1760.34,513.716L1760.37,513.621L1760.39,513.526L1760.42,513.432L1760.45,513.337L1760.48,513.243L1760.5,513.149L1760.53,513.055L1760.56,512.962L1760.59,512.868L1760.62,512.775L1760.65,512.682L1760.68,512.589L1760.72,512.496L1760.75,512.403L1760.78,512.311L1760.81,512.219L1760.85,512.127L1760.88,512.035L1760.91,511.943L1760.95,511.852L1760.98,511.761L1761.02,511.67L1761.05,511.579L1761.09,511.488L1761.12,511.398L1761.16,511.308L1761.2,511.218L1761.24,511.128L1761.28,511.038L1761.31,510.949L1761.35,510.86L1761.39,510.771L1761.43,510.682L1761.47,510.594L1761.51,510.506L1761.55,510.417L1761.59,510.33L1761.63,510.242L1761.68,510.155L1761.72,510.068L1761.76,509.981L1761.81,509.894L1761.85,509.808L1761.89,509.722L1761.94,509.636L1761.98,509.55L1762.03,509.464L1762.07,509.379L1762.12,509.294L1762.17,509.21L1762.21,509.125L1762.26,509.041L1762.31,508.957L1762.36,508.873L1762.4,508.79L1762.45,508.707L1762.5,508.624L1762.55,508.541L1762.6,508.459L1762.65,508.376L1762.7,508.295L1762.75,508.213L1762.8,508.132L1762.86,508.051L1762.91,507.97L1762.96,507.889L1763.01,507.809L1763.07,507.729L1763.12,507.649L1763.17,507.57L1763.23,507.491L1763.28,507.412L1763.34,507.334L1763.39,507.255L1763.45,507.177L1763.51,507.1L1763.56,507.022L1763.62,506.945L1763.68,506.869L1763.73,506.792L1763.79,506.716L1763.85,506.64L1763.91,506.565L1763.97,506.489L1764.03,506.414L1764.09,506.34L1764.15,506.266L1764.21,506.192L1764.27,506.118L1764.33,506.045L1764.39,505.972L1764.46,505.899L1764.52,505.827L1764.58,505.755L1764.64,505.683L1764.71,505.612L1764.77,505.541L1764.84,505.47L1764.9,505.4L1764.97,505.33L1765.03,505.26L1765.1,505.191L1765.16,505.122L1765.23,505.053L1765.3,504.985L1765.36,504.917L1765.43,504.849L1765.5,504.782L1765.57,504.716L1765.63,504.649L1765.7,504.583L1765.77,504.517L1765.84,504.452L1765.91,504.387L1765.98,504.322L1766.05,504.258L1766.12,504.194L1766.19,504.131L1766.27,504.068L1766.34,504.005L1766.41,503.943L1766.48,503.881L1766.56,503.819L1766.63,503.758L1766.7,503.697L1766.78,503.637L1766.85,503.577L1766.92,503.518L1767,503.459L1767.08,503.4L1767.15,503.342L1767.23,503.284L1767.3,503.226L1767.38,503.169L1767.46,503.112L1767.53,503.056L1767.61,503L1767.69,502.945L1767.77,502.89L1767.85,502.836L1767.92,502.781L1768,502.728L1768.08,502.675L1768.16,502.622L1768.24,502.57L1768.32,502.518L1768.4,502.466L1768.48,502.415L1768.57,502.365L1768.65,502.315L1768.73,502.265L1768.81,502.216L1768.89,502.167L1768.98,502.119L1769.06,502.071L1769.14,502.024L1769.23,501.977L1769.31,501.93L1769.39,501.884L1769.48,501.839L1769.56,501.794L1769.65,501.749L1769.73,501.705L1769.82,501.662L1769.9,501.619L1769.99,501.576L1770.08,501.534L1770.16,501.493L1770.25,501.452L1770.34,501.411L1770.43,501.371L1770.51,501.331L1770.6,501.292L1770.69,501.254L1770.78,501.215L1770.87,501.178L1770.96,501.141L1771.05,501.104L1771.14,501.068L1771.23,501.033L1771.32,500.998L1771.41,500.963L1771.5,500.929L1771.59,500.896L1771.68,500.863L1771.77,500.831L1771.86,500.799L1771.95,500.767L1772.05,500.737L1772.14,500.706L1772.23,500.677L1772.33,500.647L1772.42,500.619L1772.51,500.591L1772.61,500.563L1772.7,500.536L1772.79,500.51L1772.89,500.484L1772.98,500.458L1773.08,500.433L1773.17,500.409L1773.27,500.385L1773.36,500.362L1773.46,500.34L1773.55,500.318L1773.65,500.296L1773.74,500.275L1773.84,500.255L1773.94,500.235L1774.03,500.216L1774.13,500.197L1774.23,500.179L1774.33,500.162L1774.42,500.145L1774.52,500.128L1774.62,500.113L1774.72,500.097L1774.82,500.083L1774.91,500.069L1775.01,500.055L1775.11,500.042L1775.21,500.03L1775.31,500.018L1775.41,500.007L1775.51,499.997L1775.61,499.987L1775.71,499.977L1775.81,499.969L1775.91,499.961L1776.01,499.953L1776.11,499.946L1776.21,499.94L1776.31,499.934L1776.41,499.929L1776.51,499.924L1776.61,499.92L1776.72,499.917L1776.82,499.914L1776.92,499.912L1777.02,499.91L1777.12,499.909L1777.22,499.908L1777.33,499.909L1777.43,499.91L1777.53,499.911L1777.63,499.913L1777.74,499.916L1777.84,499.919L1777.94,499.923L1778.05,499.927L1778.15,499.932L1778.25,499.938L1778.36,499.944L1778.46,499.951L1778.56,499.959L1778.67,499.967L1778.77,499.975L1778.88,499.985L1778.98,499.995L1779.08,500.005L1779.19,500.016L1779.29,500.028L1779.4,500.041L1779.5,500.054L1779.61,500.067L1779.71,500.082L1779.82,500.097L1779.92,500.112L1780.03,500.128L1780.13,500.145L1780.24,500.162L1780.34,500.18L1780.45,500.199L1780.55,500.218L1780.66,500.238L1780.77,500.259L1780.87,500.28L1780.98,500.301L1781.08,500.324L1781.19,500.347L1781.3,500.372L1781.44,500.403L1781.58,500.437L1781.72,500.473L1781.86,500.51L1782,500.548L1782.14,500.588L1782.28,500.629L1782.42,500.672L1782.55,500.716L1782.69,500.761L1782.83,500.808L1782.97,500.855L1783.1,500.904L1783.24,500.954L1783.37,501.006L1783.51,501.059L1783.64,501.112L1783.78,501.167L1783.91,501.224L1784.05,501.281L1784.18,501.339L1784.31,501.399L1784.44,501.459L1784.58,501.521L1784.71,501.584L1784.84,501.648L1784.97,501.713L1785.1,501.779L1785.23,501.846L1785.36,501.914L1785.49,501.983L1785.62,502.053L1785.75,502.124L1785.87,502.196L1786,502.269L1786.13,502.343L1786.26,502.418L1786.38,502.494L1786.51,502.57L1786.63,502.648L1786.76,502.727L1786.89,502.806L1787.01,502.887L1787.14,502.968L1787.26,503.051L1787.38,503.134L1787.51,503.218L1787.63,503.303L1787.76,503.389L1787.88,503.476L1788,503.563L1788.12,503.652L1788.25,503.741L1788.37,503.831L1788.49,503.922L1788.61,504.014L1788.73,504.106L1788.85,504.2L1788.97,504.294L1789.09,504.389L1789.21,504.485L1789.33,504.582L1789.44,504.679L1789.56,504.777L1789.68,504.876L1789.8,504.976L1789.92,505.077L1790.03,505.178L1790.15,505.28L1790.27,505.383L1790.38,505.487L1790.5,505.591L1790.61,505.696L1790.73,505.802L1790.84,505.909L1790.96,506.016L1791.07,506.124L1791.18,506.233L1791.3,506.343L1791.41,506.453L1791.52,506.564L1791.63,506.676L1791.74,506.788L1791.86,506.901L1791.97,507.015L1792.08,507.129L1792.19,507.244L1792.3,507.36L1792.41,507.477L1792.52,507.594L1792.62,507.712L1792.73,507.831L1792.84,507.95L1792.95,508.07L1793.05,508.19L1793.16,508.311L1793.27,508.433L1793.37,508.556L1793.48,508.679L1793.58,508.803L1793.69,508.927L1793.79,509.052L1793.89,509.178L1794,509.305L1794.1,509.432L1794.2,509.559L1794.3,509.687L1794.4,509.816L1794.51,509.946L1794.61,510.076L1794.7,510.207L1794.81,510.338L1794.9,510.47L1795,510.602L1795.1,510.735L1795.2,510.869L1795.3,511.003L1795.39,511.138L1795.49,511.274L1795.58,511.41L1795.68,511.546L1795.77,511.684L1795.87,511.822L1795.96,511.96L1796.05,512.099L1796.14,512.238L1796.24,512.378L1796.33,512.519L1796.42,512.66L1796.51,512.802L1796.6,512.944L1796.69,513.087L1796.78,513.231L1796.86,513.375L1796.95,513.519L1797.04,513.664L1797.12,513.81L1797.21,513.956L1797.29,514.103L1797.38,514.25L1797.46,514.398L1797.54,514.546L1797.62,514.695L1797.71,514.845L1797.79,514.995L1797.87,515.145L1797.95,515.296L1798.03,515.447L1798.11,515.6L1798.18,515.752L1798.26,515.905L1798.34,516.059L1798.41,516.213L1798.49,516.367L1798.56,516.523L1798.63,516.678L1798.71,516.834L1798.78,516.991L1798.85,517.148L1798.92,517.306L1798.99,517.464L1799.06,517.623L1799.13,517.782L1799.2,517.942L1799.26,518.102L1799.33,518.263L1799.39,518.424L1799.46,518.586L1799.52,518.748L1799.58,518.911L1799.65,519.074L1799.71,519.237L1799.77,519.402L1799.83,519.566L1799.88,519.732L1799.94,519.897L1800,520.063L1800.06,520.23L1800.11,520.397L1800.16,520.565L1800.22,520.733L1800.27,520.901L1800.32,521.07L1800.37,521.24L1800.42,521.41L1800.47,521.58L1800.52,521.751L1800.56,521.923L1800.61,522.095L1800.65,522.267L1800.69,522.44L1800.74,522.613L1800.78,522.787L1800.82,522.961L1800.86,523.136L1800.9,523.311L1800.93,523.487L1800.97,523.663L1801,523.84L1801.04,524.011L1801.05,524.105L1801.07,524.194L1801.09,524.283L1801.1,524.372L1801.12,524.461L1801.13,524.55L1801.14,524.639L1801.16,524.729L1801.17,524.818L1801.19,524.908L1801.2,524.998L1801.21,525.088L1801.23,525.178L1801.24,525.268L1801.25,525.358L1801.26,525.448L1801.27,525.539L1801.29,525.629L1801.3,525.72L1801.31,525.81L1801.32,525.901L1801.33,525.992L1801.34,526.083L1801.35,526.174L1801.35,526.265L1801.36,526.356L1801.37,526.448L1801.38,526.539L1801.39,526.631L1801.39,526.722L1801.4,526.814L1801.41,526.906L1801.41,526.998L1801.42,527.09L1801.43,527.182L1801.43,527.274L1801.44,527.366L1801.44,527.459L1801.44,527.551L1801.45,527.644L1801.45,527.736L1801.45,527.829L1801.46,527.922L1801.46,528.015L1801.46,528.108L1801.46,528.201L1801.47,528.294L1801.47,528.387L1801.47,528.48L1801.47,528.573L1801.47,528.667L1801.47,528.76L1801.47,528.853L1801.46,528.947L1801.46,529.041L1801.46,529.134L1801.46,529.228L1801.45,529.322L1801.45,529.416L1801.45,529.51L1801.44,529.604L1801.44,529.698L1801.43,529.792L1801.43,529.886L1801.42,529.98L1801.42,530.074L1801.41,530.168L1801.4,530.262L1801.4,530.357L1801.39,530.451L1801.38,530.545L1801.37,530.64L1801.36,530.734L1801.35,530.829L1801.34,530.923L1801.33,531.018L1801.32,531.112L1801.31,531.207L1801.3,531.301L1801.29,531.396L1801.28,531.491L1801.26,531.585L1801.25,531.68L1801.24,531.774L1801.22,531.869L1801.21,531.964L1801.19,532.058L1801.18,532.153L1801.16,532.247L1801.14,532.342L1801.13,532.436L1801.11,532.531L1801.09,532.625L1801.07,532.72L1801.06,532.814L1801.04,532.909L1801.02,533.003L1801,533.098L1800.98,533.192L1800.96,533.286L1800.93,533.38L1800.91,533.475L1800.89,533.569L1800.87,533.663L1800.85,533.757L1800.82,533.851L1800.8,533.945L1800.77,534.039L1800.75,534.132L1800.72,534.226L1800.7,534.32L1800.67,534.413L1800.65,534.491L1800.62,534.569L1800.6,534.647L1800.58,534.724L1800.55,534.801L1800.53,534.878L1800.51,534.954L1800.48,535.031L1800.45,535.107L1800.43,535.183L1800.4,535.259L1800.38,535.334L1800.35,535.409L1800.32,535.484L1800.3,535.559L1800.27,535.641L1800.21,535.782L1800.16,535.93L1800.1,536.076L1800.04,536.222L1799.98,536.367L1799.92,536.511L1799.86,536.654L1799.79,536.796L1799.73,536.937L1799.66,537.078L1799.59,537.217L1799.53,537.356L1799.46,537.494L1799.39,537.631L1799.32,537.767L1799.24,537.902L1799.17,538.036L1799.1,538.17L1799.02,538.302L1798.95,538.434L1798.87,538.565L1798.79,538.695L1798.72,538.825L1798.64,538.953L1798.56,539.081L1798.48,539.208L1798.39,539.335L1798.31,539.46L1798.23,539.585L1798.14,539.709L1798.06,539.832L1797.97,539.955L1797.89,540.076L1797.8,540.198L1797.71,540.318L1797.62,540.437L1797.54,540.556L1797.44,540.675L1797.35,540.792L1797.26,540.909L1797.17,541.025L1797.08,541.141L1796.98,541.256L1796.89,541.37L1796.8,541.483L1796.7,541.596L1796.6,541.709L1796.51,541.82L1796.41,541.931L1796.31,542.042L1796.21,542.151L1796.11,542.26L1796.01,542.369L1795.91,542.477L1795.81,542.584L1795.71,542.691L1795.61,542.797L1795.5,542.903L1795.4,543.007L1795.3,543.112L1795.19,543.216L1795.09,543.319L1794.98,543.422L1794.87,543.524L1794.77,543.625L1794.66,543.726L1794.55,543.827L1794.44,543.926L1794.33,544.026L1794.22,544.125L1794.11,544.223L1794,544.321L1793.89,544.418L1793.78,544.514L1793.66,544.61L1793.55,544.706L1793.44,544.801L1793.32,544.895L1793.21,544.989L1793.09,545.083L1792.98,545.176L1792.86,545.268L1792.74,545.36L1792.63,545.452L1792.51,545.542L1792.39,545.633L1792.27,545.723L1792.15,545.812L1792.03,545.901L1791.91,545.989L1791.79,546.077L1791.67,546.164L1791.55,546.251L1791.43,546.337L1791.31,546.423L1791.18,546.508L1791.06,546.593L1790.94,546.677L1790.81,546.761L1790.69,546.844L1790.56,546.927L1790.44,547.009L1790.31,547.091L1790.18,547.172L1790.06,547.253L1789.93,547.333L1789.8,547.413L1789.67,547.492L1789.55,547.571L1789.42,547.649L1789.29,547.727L1789.16,547.804L1789.03,547.881L1788.9,547.957L1788.77,548.032L1788.63,548.108L1788.5,548.182L1788.37,548.256L1788.24,548.33L1788.11,548.403L1787.97,548.476L1787.84,548.548L1787.7,548.62L1787.57,548.691L1787.44,548.761L1787.3,548.831L1787.16,548.901L1787.03,548.97L1786.89,549.038L1786.76,549.106L1786.62,549.174L1786.48,549.241L1786.35,549.307L1786.21,549.373L1786.07,549.438L1785.93,549.503L1785.79,549.567L1785.65,549.631L1785.51,549.694L1785.37,549.757L1785.23,549.819L1785.09,549.881L1784.95,549.942L1784.81,550.003L1784.67,550.063L1784.53,550.122L1784.39,550.181L1784.25,550.239L1784.1,550.297L1783.96,550.354L1783.82,550.411L1783.67,550.467L1783.53,550.523L1783.39,550.578L1783.24,550.632L1783.1,550.686L1782.95,550.74L1782.81,550.793L1782.66,550.845L1782.52,550.896L1782.37,550.947L1782.23,550.998L1782.08,551.048L1781.94,551.097L1781.79,551.146L1781.64,551.194L1781.5,551.242L1781.35,551.289L1781.2,551.335L1781.05,551.381L1780.91,551.426L1780.76,551.471L1780.61,551.515L1780.46,551.558L1780.39,551.578L1780.31,551.601L1780.16,551.643L1780.02,551.685L1779.87,551.726L1779.72,551.766L1779.57,551.805L1779.42,551.844L1779.27,551.883L1779.12,551.92L1778.97,551.958L1778.82,551.994L1778.67,552.03L1778.52,552.065L1778.36,552.1L1778.21,552.134L1778.06,552.167L1777.91,552.199L1777.76,552.231L1777.61,552.263L1777.46,552.293L1777.3,552.323L1777.15,552.353L1777,552.381L1776.85,552.409L1776.69,552.437L1776.54,552.464L1776.39,552.489L1776.24,552.515L1776.08,552.539L1775.93,552.563L1775.78,552.587L1775.62,552.609L1775.47,552.631L1775.32,552.652L1775.16,552.673L1775.01,552.692L1774.86,552.711L1774.7,552.73L1774.55,552.747L1774.4,552.764L1774.24,552.78L1774.09,552.796L1773.93,552.81L1773.78,552.824L1773.63,552.837L1773.47,552.85L1773.32,552.862L1773.16,552.873L1773.01,552.883L1772.86,552.892L1772.7,552.901L1772.55,552.909L1772.39,552.916L1772.24,552.922L1772.08,552.928L1771.93,552.933L1771.77,552.937L1771.62,552.94L1771.46,552.942L1771.31,552.944L1771.15,552.945L1771,552.945L1770.85,552.944L1770.69,552.942L1770.54,552.94L1770.38,552.937L1770.23,552.932L1770.07,552.927L1769.92,552.922L1769.76,552.915L1769.61,552.907L1769.45,552.899L1769.3,552.89L1769.14,552.88L1768.94,552.865L1768.74,552.85L1768.53,552.833L1768.33,552.815L1768.13,552.796L1767.92,552.776L1767.72,552.755L1767.52,552.733L1767.32,552.71L1767.12,552.686L1766.92,552.661L1766.73,552.635L1766.53,552.608L1766.33,552.58L1766.13,552.55L1765.94,552.52L1765.74,552.489L1765.55,552.456L1765.36,552.423L1765.16,552.388L1764.97,552.353L1764.78,552.316L1764.59,552.279L1764.4,552.24L1764.2,552.2L1764.02,552.16L1763.83,552.118L1763.64,552.076L1763.45,552.032L1763.26,551.987L1763.08,551.942L1762.89,551.895L1762.71,551.847L1762.52,551.799L1762.34,551.749L1762.15,551.698L1761.97,551.646L1761.79,551.594L1761.61,551.54L1761.43,551.485L1761.25,551.43L1761.07,551.373L1760.89,551.316L1760.71,551.257L1760.53,551.197L1760.36,551.137L1760.18,551.075L1760,551.013L1759.83,550.95L1759.65,550.885L1759.48,550.82L1759.31,550.753L1759.14,550.686L1758.97,550.618L1758.79,550.549L1758.62,550.479L1758.45,550.408L1758.29,550.336L1758.12,550.263L1757.95,550.189L1757.78,550.114L1757.62,550.038L1757.45,549.961L1757.29,549.884L1757.12,549.805L1756.96,549.726L1756.79,549.646L1756.63,549.564L1756.47,549.482L1756.31,549.399L1756.15,549.315L1755.99,549.23L1755.83,549.144L1755.67,549.058L1755.52,548.97L1755.36,548.882L1755.2,548.792L1755.05,548.702L1754.89,548.611L1754.74,548.519L1754.59,548.426L1754.43,548.333L1754.28,548.238L1754.13,548.143L1753.98,548.046L1753.83,547.949L1753.68,547.851L1753.54,547.752L1753.39,547.653L1753.24,547.552L1753.1,547.451L1752.95,547.349L1752.81,547.246L1752.66,547.142L1752.52,547.038L1752.38,546.932L1752.24,546.826L1752.1,546.719L1751.96,546.611L1751.82,546.502L1751.68,546.393L1751.54,546.283L1751.4,546.172L1751.27,546.06L1751.13,545.948L1751,545.834L1750.86,545.72L1750.73,545.606L1750.6,545.49L1750.47,545.374L1750.34,545.257L1750.2,545.139L1750.08,545.02L1749.95,544.901L1749.82,544.781L1749.69,544.66L1749.57,544.539L1749.44,544.417L1749.32,544.294L1749.19,544.171L1749.07,544.046L1748.95,543.921L1748.83,543.796L1748.7,543.669L1748.59,543.542L1748.47,543.415L1748.35,543.286L1748.23,543.157L1748.11,543.028L1748,542.897L1747.88,542.766L1747.77,542.635L1747.65,542.503L1747.54,542.37L1747.43,542.236L1747.32,542.102L1747.21,541.967L1747.1,541.832L1746.99,541.696L1746.88,541.559L1746.77,541.422L1746.67,541.284L1746.56,541.146L1746.45,541.007L1746.35,540.867L1746.25,540.727L1746.14,540.587L1746.04,540.445L1745.94,540.304L1745.84,540.161L1745.74,540.018L1745.64,539.875L1745.55,539.731L1745.45,539.586L1745.36,539.441L1745.26,539.296L1745.16,539.149L1745.07,539.003L1744.98,538.856L1744.89,538.708L1744.8,538.56L1744.7,538.411L1744.62,538.262L1744.53,538.112L1744.44,537.962L1744.35,537.812L1744.27,537.661L1744.18,537.509L1744.1,537.357L1744.01,537.205L1743.93,537.052L1743.85,536.898L1743.77,536.745L1743.68,536.59L1743.6,536.436L1743.53,536.281L1743.45,536.125L1743.37,535.969L1743.29,535.813L1743.22,535.656L1743.14,535.499L1743.07,535.342L1743,535.184L1742.92,535.025L1742.85,534.867L1742.78,534.707L1742.71,534.548L1742.64,534.388L1742.57,534.228L1742.5,534.067L1742.44,533.906L1742.37,533.745L1742.31,533.584L1742.24,533.422L1742.18,533.259L1742.11,533.097L1742.05,532.934L1741.99,532.77L1741.93,532.607L1741.87,532.443L1741.81,532.278L1741.75,532.114L1741.7,531.949L1741.64,531.784L1741.58,531.618L1741.53,531.453L1741.48,531.287L1741.42,531.12L1741.37,530.954L1741.32,530.787L1741.27,530.62L1741.22,530.452L1741.17,530.284L1741.12,530.116L1741.07,529.948L1741.02,529.78L1740.98,529.611L1740.93,529.442L1740.89,529.273L1740.84,529.104L1740.8,528.934L1740.76,528.764L1740.72,528.594L1740.68,528.424L1740.64,528.253L1740.6,528.082L1740.56,527.912L1740.52,527.74L1740.49,527.569L1740.45,527.397L1740.41,527.226L1740.38,527.054L1740.35,526.882L1740.31,526.709L1740.28,526.537L1740.25,526.364L1740.22,526.192L1740.19,526.019L1740.16,525.846L1740.13,525.672L1740.11,525.499L1740.08,525.325L1740.05,525.152L1740.03,524.978L1740,524.804L1739.98,524.629L1739.96,524.455L1739.93,524.281L1739.91,524.106L1739.89,523.932L1739.87,523.757L1739.86,523.582L1739.84,523.407L1739.82,523.232L1739.8,523.057L1739.79,522.881L1739.77,522.706L1739.76,522.531L1739.74,522.355L1739.73,522.179L1739.72,522.004L1739.71,521.828L1739.7,521.652L1739.69,521.476L1739.68,521.3L1739.67,521.124L1739.66,520.948L1739.65,520.771L1739.65,520.595L1739.64,520.419L1739.64,520.242L1739.64,520.066L1739.63,519.889L1739.63,519.713L1739.63,519.536L1739.63,519.36L1739.63,519.183L1739.63,519.007L1739.63,518.83L1739.63,518.653L1739.64,518.477L1739.64,518.3L1739.64,518.123L1739.65,517.946L1739.66,517.77L1739.66,517.593L1739.67,517.416L1739.68,517.24L1739.69,517.063L1739.7,516.886L1739.71,516.71L1739.72,516.533L1739.73,516.356L1739.74,516.18L1739.76,516.003L1739.77,515.827L1739.79,515.65L1739.8,515.474L1739.82,515.297L1739.84,515.121L1739.85,514.945L1739.87,514.768L1739.89,514.592L1739.91,514.416L1739.93,514.24L1739.95,514.064L1739.98,513.888L1740,513.712L1740.02,513.536L1740.05,513.361L1740.07,513.185L1740.1,513.01L1740.13,512.834L1740.15,512.659L1740.18,512.484L1740.21,512.308L1740.24,512.133L1740.27,511.958L1740.3,511.784L1740.33,511.609L1740.37,511.434L1740.4,511.26L1740.43,511.085L1740.47,510.911L1740.51,510.737L1740.54,510.563L1740.58,510.389L1740.62,510.216L1740.65,510.042L1740.69,509.869L1740.73,509.695L1740.77,509.522L1740.82,509.349L1740.86,509.176L1740.9,509.004L1740.94,508.831L1740.99,508.659L1741.03,508.487L1741.08,508.315L1741.13,508.143L1741.17,507.971L1741.22,507.8L1741.27,507.629L1741.32,507.458L1741.37,507.287L1741.42,507.116L1741.47,506.946L1741.53,506.775L1741.58,506.605L1741.63,506.436L1741.69,506.266L1741.74,506.097L1741.8,505.927L1741.86,505.759L1741.91,505.59L1741.97,505.421L1742.03,505.253L1742.09,505.085L1742.15,504.917L1742.21,504.75L1742.27,504.583L1742.34,504.415L1742.4,504.249L1742.46,504.082L1742.53,503.916L1742.59,503.75L1742.66,503.584L1742.73,503.419L1742.79,503.254L1742.86,503.089L1742.93,502.924L1743,502.76L1743.07,502.596L1743.14,502.432L1743.22,502.269L1743.29,502.106L1743.36,501.943L1743.43,501.78L1743.51,501.618L1743.59,501.456L1743.66,501.295L1743.74,501.134L1743.82,500.973L1743.89,500.812L1743.98,500.652L1744.05,500.492L1744.13,500.333L1744.22,500.173L1744.3,500.015L1744.38,499.856L1744.47,499.698L1744.55,499.54L1744.63,499.383L1744.72,499.226L1744.81,499.069L1744.89,498.913L1744.98,498.757L1745.07,498.601L1745.16,498.446L1745.25,498.291L1745.34,498.137L1745.43,497.983L1745.52,497.829L1745.62,497.676L1745.71,497.524L1745.81,497.371L1745.9,497.219L1746,497.068L1746.09,496.917L1746.19,496.766L1746.29,496.616L1746.39,496.466L1746.49,496.317L1746.59,496.168L1746.69,496.019L1746.79,495.871L1746.89,495.724L1746.99,495.577L1747.1,495.43L1747.2,495.284L1747.31,495.138L1747.41,494.993L1747.52,494.852L1747.52,494.848L1747.63,494.704L1747.73,494.561L1747.84,494.418L1747.95,494.275L1748.06,494.133L1748.17,493.991L1748.29,493.85L1748.4,493.71L1748.51,493.57L1748.62,493.43L1748.74,493.291L1748.85,493.152L1748.97,493.014L1749.09,492.877L1749.2,492.74L1749.32,492.604L1749.44,492.468L1749.56,492.333L1749.68,492.198L1749.8,492.064L1749.92,491.93L1750.04,491.797L1750.17,491.665L1750.29,491.533L1750.41,491.402L1750.54,491.271L1750.67,491.141L1750.79,491.011L1750.92,490.883L1751.05,490.754L1751.17,490.626L1751.3,490.499L1751.43,490.373L1751.57,490.247L1751.7,490.122L1751.83,489.997L1751.96,489.873L1752.09,489.75L1752.23,489.627L1752.36,489.505L1752.5,489.383L1752.63,489.262L1752.77,489.142L1752.91,489.023L1753.05,488.904L1753.18,488.786L1753.32,488.668L1753.46,488.551L1753.61,488.435L1753.75,488.319L1753.89,488.205L1754.03,488.09L1754.17,487.977L1754.32,487.864L1754.46,487.752L1754.61,487.641L1754.76,487.53L1754.9,487.42L1755.05,487.311L1755.2,487.202L1755.35,487.095L1755.5,486.987L1755.65,486.881L1755.8,486.775L1755.95,486.67L1756.1,486.566L1756.25,486.463L1756.41,486.36L1756.56,486.258L1756.72,486.157L1756.87,486.057L1757.03,485.957L1757.18,485.858L1757.34,485.76L1757.5,485.663L1757.66,485.566L1757.82,485.47L1757.98,485.375L1758.14,485.281L1758.3,485.187L1758.46,485.095L1758.62,485.003L1758.79,484.912L1758.95,484.822L1759.11,484.732L1759.28,484.644L1759.44,484.556L1759.61,484.469L1759.78,484.383L1759.89,484.324L1760.01,484.267L1760.12,484.209L1760.24,484.152L1760.35,484.096L1760.46,484.04L1760.58,483.984L1760.69,483.929L1760.81,483.874L1760.92,483.82L1761.04,483.766L1761.16,483.713L1761.27,483.66L1761.39,483.607L1761.5,483.555L1761.62,483.503L1761.74,483.452L1761.85,483.401L1761.97,483.35L1762.09,483.3L1762.2,483.25L1762.32,483.201L1762.44,483.152L1762.56,483.103L1762.67,483.055L1762.79,483.008L1762.91,482.961L1763.03,482.914L1763.14,482.867L1763.26,482.821L1763.38,482.776L1763.5,482.731L1763.62,482.686L1763.74,482.641L1763.86,482.598L1763.98,482.554L1764.09,482.511L1764.21,482.468L1764.33,482.426L1764.45,482.384L1764.57,482.343L1764.69,482.301L1764.81,482.261L1764.93,482.22L1765.05,482.181L1765.17,482.141L1765.29,482.102L1765.41,482.063L1765.53,482.025L1765.65,481.987L1765.77,481.95L1765.89,481.913L1766.02,481.876L1766.14,481.84L1766.26,481.804L1766.38,481.769L1766.5,481.734L1766.62,481.699L1766.74,481.665L1766.87,481.631L1766.99,481.597L1767.11,481.564L1767.23,481.532L1767.35,481.499L1767.48,481.468L1767.6,481.436L1767.72,481.405L1767.84,481.374L1767.96,481.344L1768.09,481.314L1768.21,481.285L1768.33,481.256L1768.45,481.227L1768.58,481.199L1768.7,481.171L1768.82,481.143L1768.95,481.116L1769.07,481.089L1769.19,481.063L1769.32,481.037L1769.44,481.011L1769.56,480.986L1769.69,480.961L1769.81,480.937L1769.93,480.913L1770.06,480.889L1770.18,480.866L1770.31,480.843L1770.43,480.82L1770.56,480.798L1770.68,480.777L1770.8,480.755L1770.93,480.734L1771.05,480.714L1771.18,480.694L1771.3,480.674L1771.42,480.654L1771.55,480.635L1771.67,480.617L1771.8,480.598L1771.92,480.58L1772.05,480.563L1772.17,480.546L1772.3,480.529L1772.42,480.513L1772.55,480.497L1772.67,480.481L1772.8,480.466L1772.92,480.451L1773.05,480.436L1773.17,480.422L1773.3,480.409L1773.42,480.395L1773.55,480.382L1773.68,480.37L1773.8,480.357L1773.93,480.346L1774.05,480.334L1774.18,480.323L1774.3,480.312L1774.43,480.302L1774.56,480.292L1774.68,480.282L1774.81,480.273L1774.93,480.264L1775.06,480.256L1775.18,480.248L1775.31,480.24L1775.44,480.232L1775.56,480.225L1775.69,480.219L1775.81,480.213L1775.94,480.207L1776.07,480.201L1776.19,480.196L1776.32,480.191L1776.44,480.187L1776.57,480.183L1776.7,480.179L1776.82,480.176L1776.95,480.173L1777.08,480.17L1777.2,480.168L1777.33,480.166L1777.45,480.165L1777.58,480.164L1777.67,480.163L1777.71,480.163L1777.83,480.163L1777.96,480.163Z" style="fill:white;"/>
        </g>
    </g>
</svg>
