<?xml version="1.0" encoding="UTF-8" standalone="no"?>
<!DOCTYPE svg PUBLIC "-//W3C//DTD SVG 1.1//EN" "http://www.w3.org/Graphics/SVG/1.1/DTD/svg11.dtd">
<svg width="100%" height="100%" viewBox="0 0 288 288" version="1.1" xmlns="http://www.w3.org/2000/svg" xmlns:xlink="http://www.w3.org/1999/xlink" xml:space="preserve" style="fill-rule:evenodd;clip-rule:evenodd;stroke-linejoin:round;stroke-miterlimit:1.41421;">
    <g transform="matrix(1,0,0,1,-16,-16)">
        <g id="SpiralCandyIcon" transform="matrix(1.25837,0,0,1.25837,-796.09,-251.307)">
            <path d="M751.836,213.175C810.193,213.175 857.571,260.553 857.571,318.909C857.571,377.265 810.193,424.643 751.836,424.643C693.48,424.643 646.102,377.265 646.102,318.909C646.102,260.553 693.48,213.175 751.836,213.175ZM752.471,241.539C753.327,241.546 754.182,241.56 755.037,241.587C756.749,241.64 758.459,241.737 760.166,241.876C765.794,242.335 771.386,243.254 776.864,244.63C781.816,245.874 786.677,247.491 791.375,249.492C794.331,250.751 797.218,252.165 800.025,253.728C800.907,254.219 801.776,254.736 802.637,255.264C804.213,256.229 805.757,257.246 807.265,258.315C812.646,262.13 817.558,266.617 821.728,271.733C822.267,272.395 822.788,273.073 823.298,273.757C824.354,275.173 825.352,276.632 826.288,278.13C827.095,279.421 827.855,280.741 828.566,282.087C828.972,282.855 829.366,283.63 829.731,284.419C830.459,285.994 831.079,287.619 831.611,289.27C832.195,291.08 832.675,292.922 833.072,294.781C833.295,295.823 833.492,296.872 833.666,297.923C833.767,298.536 833.853,299.151 833.935,299.767C834.112,301.089 834.254,302.417 834.365,303.747C834.622,306.84 834.712,309.946 834.66,313.049C834.597,316.751 834.331,320.449 833.876,324.123C833.406,327.91 832.734,331.672 831.853,335.385C831.205,338.115 830.444,340.819 829.56,343.483C829.057,345 828.516,346.506 827.929,347.993C827.529,349.008 827.099,350.013 826.654,351.009C825.799,352.924 824.87,354.805 823.86,356.643C822.856,358.47 821.773,360.254 820.605,361.981C819.644,363.402 818.622,364.782 817.578,366.143C815.993,368.207 814.335,370.215 812.6,372.155C810.45,374.561 808.182,376.862 805.798,379.036C804.623,380.108 803.419,381.146 802.19,382.154C801.625,382.617 801.047,383.067 800.468,383.512C799.439,384.301 798.392,385.068 797.328,385.809C793.14,388.728 788.682,391.259 784.018,393.337C782.118,394.183 780.184,394.955 778.223,395.65C777.553,395.887 776.88,396.115 776.204,396.334C775.864,396.444 775.525,396.558 775.182,396.658C775.042,396.699 774.901,396.734 774.761,396.771C774.471,396.848 774.181,396.923 773.891,396.997C773.029,397.215 772.163,397.42 771.294,397.609C768.499,398.22 765.672,398.682 762.829,398.998C757.602,399.58 752.324,399.668 747.078,399.315C745.471,399.206 743.867,399.056 742.269,398.867C741.804,398.812 741.34,398.753 740.876,398.692C740.569,398.651 740.249,398.611 739.943,398.563C738.764,398.379 737.588,398.178 736.415,397.954C733.848,397.464 731.301,396.874 728.779,396.189C726.624,395.603 724.488,394.948 722.377,394.223C721.091,393.782 719.813,393.316 718.547,392.819C717.306,392.332 716.074,391.822 714.857,391.278C713.962,390.878 713.072,390.464 712.203,390.012L712.159,389.988C712.405,390.067 712.653,390.14 712.901,390.213C713.2,390.301 713.499,390.385 713.799,390.468C717.184,391.387 720.632,392.07 724.101,392.579C727.917,393.139 731.764,393.48 735.619,393.594C737.174,393.64 738.729,393.644 740.284,393.618C740.582,393.613 740.88,393.612 741.178,393.607C741.92,393.594 742.662,393.572 743.403,393.541C745.711,393.445 748.015,393.262 750.308,392.984C757.727,392.086 765.036,390.196 771.88,387.177C772.171,387.062 772.461,386.946 772.75,386.828C774.488,386.113 776.198,385.335 777.874,384.484C780.707,383.045 783.439,381.409 786.046,379.593C787.992,378.238 789.868,376.783 791.668,375.24C792.533,374.498 793.376,373.734 794.209,372.957C795.289,371.949 796.343,370.915 797.365,369.849C799.466,367.657 801.438,365.345 803.286,362.937C804.456,361.412 805.577,359.848 806.649,358.253C807.066,357.633 807.475,357.007 807.878,356.378C808.256,355.786 808.627,355.189 808.983,354.583C809.868,353.077 810.674,351.524 811.409,349.939C812.126,348.392 812.776,346.814 813.364,345.214C813.642,344.459 813.902,343.698 814.157,342.935C814.546,341.765 814.913,340.588 815.247,339.4C816.157,336.17 816.855,332.881 817.366,329.565C817.901,326.088 818.23,322.579 818.354,319.064C818.453,316.274 818.422,313.478 818.248,310.691C818.098,308.3 817.842,305.914 817.453,303.549C817.31,302.681 817.145,301.818 816.967,300.957C816.613,299.242 816.189,297.541 815.643,295.877C815.296,294.82 814.901,293.778 814.436,292.767C814.154,292.154 813.839,291.56 813.509,290.972C812.465,289.11 811.286,287.324 809.993,285.627C809.354,284.789 808.685,283.976 807.997,283.179C807.277,282.346 806.534,281.535 805.764,280.749C804.137,279.09 802.398,277.542 800.573,276.104C798.545,274.506 796.411,273.044 794.198,271.715C793.218,271.126 792.221,270.566 791.213,270.025C790.354,269.564 789.488,269.116 788.611,268.688C786.913,267.86 785.182,267.1 783.425,266.406C781.386,265.6 779.311,264.883 777.211,264.252C774.552,263.453 771.852,262.792 769.127,262.266C765.835,261.632 762.506,261.195 759.163,260.958C756.712,260.784 754.256,260.722 751.799,260.762C749.96,260.791 748.122,260.879 746.289,261.033C744.66,261.17 743.034,261.358 741.416,261.599C737.091,262.242 732.818,263.262 728.691,264.711C725.943,265.674 723.26,266.827 720.688,268.192C718.387,269.413 716.176,270.803 714.086,272.357C712.16,273.789 710.336,275.359 708.638,277.055C705.725,279.964 703.176,283.242 701.084,286.789C696.53,294.51 694.14,303.522 694.491,312.493C694.541,313.777 694.648,315.058 694.812,316.332C695.001,317.797 695.266,319.252 695.609,320.689C696.284,323.506 697.261,326.252 698.545,328.849C699.971,331.731 701.775,334.425 703.914,336.826C705.511,338.617 707.29,340.243 709.211,341.68C711.018,343.031 712.949,344.214 714.964,345.227C718.458,346.985 722.195,348.23 726.015,349.051C728.307,349.543 730.63,349.884 732.964,350.096C734.081,350.198 735.202,350.275 736.323,350.311C737.192,350.339 738.062,350.342 738.932,350.322C742.987,350.226 747.029,349.638 750.97,348.686C754.503,347.832 757.966,346.688 761.304,345.247C763.985,344.09 766.591,342.743 769.049,341.165C770.915,339.967 772.706,338.633 774.319,337.11C775.228,336.252 776.084,335.331 776.825,334.323C777.332,333.631 777.794,332.894 778.122,332.099C778.235,331.825 778.326,331.543 778.407,331.258C778.97,329.265 778.962,327.153 778.633,325.121C778.401,323.685 778.009,322.277 777.513,320.91C776.882,319.173 776.081,317.5 775.165,315.896C774.177,314.164 773.052,312.512 771.823,310.942C770.409,309.135 768.855,307.436 767.18,305.867C765.708,304.488 764.141,303.206 762.476,302.067C761.357,301.301 760.192,300.597 758.977,299.994C758.013,299.514 757.014,299.094 755.981,298.79C755.711,298.711 755.44,298.64 755.166,298.58C754.887,298.519 754.606,298.469 754.324,298.422C753.96,298.362 753.594,298.31 753.227,298.267C751.429,298.059 749.598,298.076 747.814,298.403C746.615,298.622 745.442,298.982 744.332,299.488C743.059,300.068 741.875,300.841 740.836,301.779C738.488,303.899 736.879,306.865 736.552,310.027C736.505,310.478 736.485,310.932 736.493,311.385C736.502,311.91 736.548,312.435 736.634,312.953C736.745,313.629 736.922,314.294 737.164,314.935C737.771,316.545 738.777,317.972 740.006,319.167C740.808,319.948 741.701,320.627 742.64,321.234L742.648,321.24L745.713,324.257L747.338,328.103L747.411,332.278L745.833,336.279L745.822,336.296L742.804,339.361C738.984,340.975 738.931,340.987 734.784,341.059L730.783,339.481C728.234,337.823 725.868,335.882 723.788,333.662C722.384,332.164 721.112,330.544 720.001,328.818C718.787,326.933 717.766,324.924 716.965,322.83C716.298,321.085 715.784,319.282 715.43,317.448C714.97,315.063 714.782,312.626 714.864,310.198C714.969,307.108 715.512,304.036 716.455,301.092C717.575,297.598 719.259,294.29 721.411,291.32C723.827,287.988 726.832,285.09 730.247,282.794C731.91,281.677 733.668,280.702 735.496,279.882C738.833,278.385 742.396,277.412 746.025,276.969C749.048,276.6 752.111,276.596 755.138,276.919C755.996,277.01 756.851,277.128 757.703,277.27C758.424,277.391 759.143,277.527 759.856,277.688C760.615,277.86 761.368,278.059 762.114,278.284C764.336,278.953 766.489,279.841 768.561,280.885C771.096,282.163 773.511,283.674 775.801,285.35C778.645,287.431 781.301,289.767 783.755,292.295C786.417,295.036 788.845,298.006 790.989,301.169C792.753,303.77 794.324,306.504 795.649,309.354C796.765,311.755 797.707,314.24 798.426,316.789C799.367,320.125 799.926,323.575 799.988,327.043C800.056,330.881 799.511,334.738 798.282,338.378C798.066,339.019 797.825,339.651 797.562,340.274C795.699,344.684 792.74,348.561 789.315,351.875C788.709,352.461 788.087,353.031 787.452,353.585C786.669,354.267 785.865,354.926 785.044,355.562C784.062,356.323 783.055,357.051 782.028,357.749C780.744,358.622 779.427,359.447 778.085,360.228C775.506,361.729 772.833,363.067 770.097,364.255C767.193,365.515 764.216,366.607 761.188,367.532C757.509,368.656 753.754,369.53 749.955,370.134C746.44,370.694 742.886,371.022 739.327,371.078C738.07,371.098 736.812,371.084 735.555,371.034C734.308,370.984 733.062,370.898 731.819,370.787C729.547,370.586 727.282,370.293 725.035,369.901C719.481,368.933 714.027,367.351 708.868,365.07C706.076,363.836 703.375,362.398 700.8,360.758C698.037,358.999 695.423,357.007 693,354.802C689.539,351.65 686.477,348.064 683.908,344.15C681.755,340.871 679.948,337.366 678.511,333.715C677.282,330.593 676.323,327.365 675.634,324.082C674.237,317.415 673.959,310.526 674.728,303.761C675.316,298.594 676.512,293.498 678.271,288.604C680.745,281.72 684.335,275.245 688.86,269.497C693.929,263.058 700.177,257.573 707.17,253.307C711.653,250.572 716.434,248.347 721.385,246.6C728.435,244.113 735.813,242.592 743.255,241.927C745.126,241.76 747.002,241.647 748.88,241.587C749.734,241.56 750.589,241.546 751.444,241.538C751.786,241.537 752.129,241.538 752.471,241.539Z" style="fill:white;"/>
        </g>
    </g>
</svg>
