<?xml version="1.0" encoding="UTF-8" standalone="no"?>
<!DOCTYPE svg PUBLIC "-//W3C//DTD SVG 1.1//EN" "http://www.w3.org/Graphics/SVG/1.1/DTD/svg11.dtd">
<svg width="100%" height="100%" viewBox="0 0 256 258" version="1.1" xmlns="http://www.w3.org/2000/svg" xmlns:xlink="http://www.w3.org/1999/xlink" xml:space="preserve" style="fill-rule:evenodd;clip-rule:evenodd;stroke-linejoin:round;stroke-miterlimit:1.41421;">
    <g transform="matrix(1,0,0,1,-24,-21)">
        <g transform="matrix(2.90396,0,0,2.92322,4.80211,3.75404)">
            <g id="VideoIcon" transform="matrix(1.33001,0,0,1.33001,-1455.18,-915.104)">
                <path d="M1101.84,699.702C1101.84,699.16 1104.34,695.906 1105.42,695.523C1106.59,695.107 1158.62,695.223 1159.65,695.821C1160.67,696.419 1162.49,698.879 1162.58,699.856C1162.66,700.833 1162.19,749.085 1162.15,750.066C1162.1,751.046 1160.47,753.846 1159.66,754.637C1158.85,755.428 1108.42,756.076 1107.37,756.044C1106.32,756.011 1103.38,753.467 1102.88,752.253C1102.25,750.726 1101.84,700.243 1101.84,699.702ZM1111.99,744.564C1112.57,744.577 1114.69,745.683 1114.98,746.332C1115.27,746.981 1115.19,749.374 1115,749.868C1114.82,750.362 1112.63,751.61 1112.04,751.636C1111.45,751.663 1109.38,750.278 1109.06,749.868C1108.73,749.459 1108.76,746.723 1109.03,746.332C1109.3,745.94 1111.41,744.55 1111.99,744.564ZM1122.24,744.564C1122.82,744.577 1124.94,745.683 1125.23,746.332C1125.52,746.981 1125.44,749.374 1125.26,749.868C1125.07,750.362 1122.88,751.61 1122.3,751.636C1121.71,751.663 1119.63,750.278 1119.31,749.868C1118.98,749.459 1119.01,746.723 1119.28,746.332C1119.55,745.94 1121.66,744.55 1122.24,744.564ZM1132.49,744.564C1133.07,744.577 1135.19,745.683 1135.48,746.332C1135.77,746.981 1135.7,749.374 1135.51,749.868C1135.32,750.362 1133.14,751.61 1132.55,751.636C1131.96,751.663 1129.89,750.278 1129.56,749.868C1129.23,749.459 1129.26,746.723 1129.53,746.332C1129.8,745.94 1131.91,744.55 1132.49,744.564ZM1142.75,744.564C1143.33,744.577 1145.44,745.683 1145.74,746.332C1146.03,746.981 1145.95,749.374 1145.76,749.868C1145.57,750.362 1143.39,751.61 1142.8,751.636C1142.21,751.663 1140.14,750.278 1139.81,749.868C1139.49,749.459 1139.52,746.723 1139.79,746.332C1140.06,745.94 1142.17,744.55 1142.75,744.564ZM1153,744.564C1153.58,744.577 1155.7,745.683 1155.99,746.332C1156.28,746.981 1156.2,749.374 1156.02,749.868C1155.83,750.362 1153.64,751.61 1153.06,751.636C1152.47,751.663 1150.39,750.278 1150.07,749.868C1149.74,749.459 1149.77,746.723 1150.04,746.332C1150.31,745.94 1152.42,744.55 1153,744.564ZM1122.93,739.143C1121.29,738.509 1120.77,711.768 1122.32,710.961C1124.19,709.985 1144.07,723.216 1143.87,724.756C1143.64,726.571 1124.91,739.907 1122.93,739.143ZM1111.99,699.21C1112.57,699.223 1114.69,700.329 1114.98,700.978C1115.27,701.627 1115.19,704.02 1115,704.514C1114.82,705.009 1112.63,706.256 1112.04,706.283C1111.45,706.309 1109.38,704.924 1109.06,704.514C1108.73,704.105 1108.76,701.37 1109.03,700.978C1109.3,700.587 1111.41,699.196 1111.99,699.21ZM1122.24,699.21C1122.82,699.223 1124.94,700.329 1125.23,700.978C1125.52,701.627 1125.44,704.02 1125.26,704.514C1125.07,705.009 1122.88,706.256 1122.3,706.283C1121.71,706.309 1119.63,704.924 1119.31,704.514C1118.98,704.105 1119.01,701.37 1119.28,700.978C1119.55,700.587 1121.66,699.196 1122.24,699.21ZM1132.49,699.21C1133.07,699.223 1135.19,700.329 1135.48,700.978C1135.77,701.627 1135.7,704.02 1135.51,704.514C1135.32,705.009 1133.14,706.256 1132.55,706.283C1131.96,706.309 1129.89,704.924 1129.56,704.514C1129.23,704.105 1129.26,701.37 1129.53,700.978C1129.8,700.587 1131.91,699.196 1132.49,699.21ZM1142.75,699.21C1143.33,699.223 1145.44,700.329 1145.74,700.978C1146.03,701.627 1145.95,704.02 1145.76,704.514C1145.57,705.009 1143.39,706.256 1142.8,706.283C1142.21,706.309 1140.14,704.924 1139.81,704.514C1139.49,704.105 1139.52,701.37 1139.79,700.978C1140.06,700.587 1142.17,699.196 1142.75,699.21ZM1153,699.21C1153.58,699.223 1155.7,700.329 1155.99,700.978C1156.28,701.627 1156.2,704.02 1156.02,704.514C1155.83,705.009 1153.64,706.256 1153.06,706.283C1152.47,706.309 1150.39,704.924 1150.07,704.514C1149.74,704.105 1149.77,701.37 1150.04,700.978C1150.31,700.587 1152.42,699.196 1153,699.21Z" style="fill:white;"/>
            </g>
        </g>
    </g>
</svg>
