<?xml version="1.0" encoding="UTF-8" standalone="no"?>
<!DOCTYPE svg PUBLIC "-//W3C//DTD SVG 1.1//EN" "http://www.w3.org/Graphics/SVG/1.1/DTD/svg11.dtd">
<svg width="100%" height="100%" viewBox="0 0 248 202" version="1.1" xmlns="http://www.w3.org/2000/svg" xmlns:xlink="http://www.w3.org/1999/xlink" xml:space="preserve" style="fill-rule:evenodd;clip-rule:evenodd;stroke-linejoin:round;stroke-miterlimit:1.41421;">
    <g transform="matrix(1,0,0,1,-26,-49)">
        <g id="WitchHatIcon" transform="matrix(0.789769,0,0,0.789769,-1347.8,-342.172)">
            <path d="M1825.99,656.178C1830.71,651.836 1844.73,651.811 1844.73,651.811C1844.73,651.811 1831.23,652.167 1831.77,648.291C1838.9,597.309 1864.18,557.763 1873.8,546.755C1880.23,539.386 1956.21,505.355 1959.87,505.701C1967.52,506.424 2020.75,553.764 2020.18,561.842C2019.62,569.92 1987.49,617.041 1983.76,617.294C1980.04,617.547 1945.84,593.212 1946.62,589.828C1947.4,586.444 1956.29,564.789 1958.36,565.042C1959.09,565.131 1958.77,575.206 1960.18,579.874C1961.04,582.72 1971.86,591.639 1975.79,592.398C1979.72,593.158 1995.67,578.747 1994.32,573.362C1992.84,567.484 1979.93,547.726 1972.49,545.677C1969.8,544.937 1928.48,579.43 1927.99,581.246C1927.67,582.382 1963.06,632.878 1958.13,646.665C1955.99,652.65 1916.96,653.288 1916.96,653.288C1916.96,653.288 1957.73,652.181 1962.06,654.459C1968.52,657.859 1972.76,669.69 1969.74,676.828C1967.64,681.782 1936.72,682.38 1936.72,682.38C1936.72,682.38 1967.89,681.773 1974.95,683.644C1992.91,688.403 2044.31,703.644 2039.82,713.003C2030.16,733.147 1963.55,740.74 1896.51,740.672C1829.47,740.74 1762.86,733.147 1753.2,713.003C1748.74,703.701 1799.63,686.273 1817.88,681.388C1817.46,681.004 1832.62,681.497 1832.62,681.497C1832.62,681.497 1819,679.288 1818.77,678.641C1816.04,670.821 1821.19,660.591 1825.99,656.178ZM1848.76,658.644C1849.32,657.401 1849.97,656.529 1850.71,656.165C1856.36,653.366 1891.53,655.057 1895.48,657.986C1895.89,658.289 1896.22,658.935 1896.49,659.851C1899.49,665.13 1897.13,693.723 1892.84,697.085C1887.67,701.139 1853.72,699.298 1848.26,695.159C1844.08,691.991 1844.38,665.298 1848.76,658.644ZM1889.79,665.852C1889.73,665.669 1889.67,665.511 1889.6,665.38C1888.25,662.739 1859.9,661.245 1855.84,663.251C1855,663.665 1854.33,664.496 1853.81,665.618C1853.24,667.465 1852.93,669.791 1852.81,672.248C1855.01,672.341 1863.42,673.48 1868.97,674.933C1871.38,675.562 1870.98,678.622 1868.66,678.97C1866.66,679.272 1854.34,679.365 1852.92,679.375C1853.21,683.49 1853.84,686.989 1854.41,688.065C1855.96,690.969 1885.19,692.023 1887.98,688.531C1890.41,685.492 1890.77,671.447 1889.79,665.852Z" style="fill:white;"/>
        </g>
    </g>
</svg>
