<?xml version="1.0" encoding="UTF-8" standalone="no"?>
<!DOCTYPE svg PUBLIC "-//W3C//DTD SVG 1.1//EN" "http://www.w3.org/Graphics/SVG/1.1/DTD/svg11.dtd">
<svg width="100%" height="100%" viewBox="0 0 270 200" version="1.1" xmlns="http://www.w3.org/2000/svg" xmlns:xlink="http://www.w3.org/1999/xlink" xml:space="preserve" style="fill-rule:evenodd;clip-rule:evenodd;stroke-linejoin:round;stroke-miterlimit:1.41421;">
    <g id="Ghost" transform="matrix(1.54443,0,0,1.54443,-114.924,-55.2638)">
        <g opacity="0.75">
            <g transform="matrix(-0.932294,-0.297712,-0.297712,0.932294,1549.59,-238.464)">
                <path d="M1275.86,823.344C1273.75,818.9 1283.3,822.828 1290.34,819.386C1299.84,814.741 1300.17,808.019 1303.34,811.294C1306.31,814.359 1301.07,821.33 1295.83,824.121C1292.31,825.99 1278.19,828.25 1275.86,823.344ZM1271.67,823.844C1270.17,826.117 1258.24,823.589 1248.32,817.121C1242.84,813.555 1238.46,793.352 1231.39,791.12C1197.7,780.49 1179.84,762.552 1177.5,744.917C1175.15,727.283 1180.33,685.132 1221.78,696.967C1272.7,711.506 1239.08,755.502 1237.86,770.245C1237,780.647 1244.8,778.378 1249.99,785.758C1253.84,791.231 1252.54,803.566 1255.86,809.806C1262.17,821.678 1276.33,816.789 1271.67,823.844ZM1306.41,801.061C1300.64,804.961 1307.52,809.778 1309.99,806.98C1312.46,804.182 1309.52,798.96 1306.41,801.061ZM1308.21,794.482C1307.46,798.779 1315.04,792.256 1312.31,790.234C1309.58,788.211 1308.7,791.652 1308.21,794.482Z" style="fill:white;"/>
            </g>
            <g transform="matrix(-3.00048,0.149402,0.162,3.2535,836.688,-52.2118)">
                <ellipse cx="208.296" cy="31.281" rx="2.066" ry="2.376"/>
            </g>
            <g transform="matrix(-2.9908,-0.728365,-0.742741,3.05865,875.498,148.334)">
                <ellipse cx="221.963" cy="30.151" rx="2.011" ry="2.268"/>
            </g>
            <g transform="matrix(-2.30575,-0.244199,-0.237333,2.2907,706.095,67.6683)">
                <path d="M215.154,32.14C217.087,32.14 218.655,34.085 218.655,36.482C218.655,38.878 217.901,41.152 215.968,41.152C214.036,41.152 211.654,38.878 211.654,36.482C211.654,34.085 213.222,32.14 215.154,32.14Z"/>
            </g>
        </g>
    </g>
</svg>
