<?xml version="1.0" encoding="UTF-8" standalone="no"?>
<!DOCTYPE svg PUBLIC "-//W3C//DTD SVG 1.1//EN" "http://www.w3.org/Graphics/SVG/1.1/DTD/svg11.dtd">
<svg width="100%" height="100%" viewBox="0 0 350 200" version="1.1" xmlns="http://www.w3.org/2000/svg" xmlns:xlink="http://www.w3.org/1999/xlink" xml:space="preserve" style="fill-rule:evenodd;clip-rule:evenodd;stroke-linejoin:round;stroke-miterlimit:1.41421;">
    <g id="Ghost" transform="matrix(1,0,0,1,-32.015,-103.366)">
        <g opacity="0.75">
            <g transform="matrix(-0.918555,-0.663641,-0.663641,0.918555,1771.03,157.602)">
                <path d="M1122.99,939.559C1126.1,934.014 1132.6,939.74 1144.09,938.772C1156.72,937.708 1170.24,939.689 1163.71,944.704C1158.58,948.642 1150.94,950.108 1142.2,949.491C1131.58,948.741 1119.81,945.249 1122.99,939.559ZM1181.12,926.455C1175.77,927.996 1170.94,932.712 1172.39,935.377C1173.76,937.899 1180.77,937.763 1183.19,936.321C1188.19,933.356 1186.73,924.839 1181.12,926.455ZM1116.45,936.914C1106.91,933.237 1104.15,918.644 1094.79,913.194C1081.28,905.34 1062.62,904.711 1052.18,897.988C1006.99,868.881 998.54,825.119 991.142,800.78C986.598,785.829 976.947,771.698 984.652,764.189C993.399,755.665 1003.97,772.938 1003.97,772.938C1003.97,772.938 1027.53,708.997 1084.43,745.281C1134.29,777.079 1101.75,818.884 1101.75,818.884C1101.75,818.884 1123.75,813.676 1124.43,828.854C1124.88,838.933 1083.38,845.111 1071.59,860.388C1067.09,866.206 1066.98,875.24 1078.4,887.686C1091.9,902.404 1100.26,896.42 1106.96,904.134C1119.32,918.363 1120.89,938.626 1116.45,936.914ZM1197.5,918.025C1193.01,923.124 1208.34,920.75 1206.38,915.783C1204.41,910.816 1200.45,914.668 1197.5,918.025Z" style="fill:white;"/>
            </g>
            <g transform="matrix(-4.23873,-0.447014,-0.481604,4.26737,1211.39,146.293)">
                <path d="M215.154,32.14C217.767,31.756 218.726,34.062 218.655,36.482C218.586,38.877 217.087,40.824 215.154,40.824C213.222,40.824 211.654,38.878 211.654,36.482C211.654,34.085 213.243,32.42 215.154,32.14Z"/>
            </g>
            <g transform="matrix(-4.79969,9.99331e-16,-0.0420646,4.82769,1458.09,-133.999)">
                <path d="M252.151,63.726L252.15,63.726L252.114,63.727L252.078,63.728L252.041,63.729L252.005,63.731L251.969,63.732L251.933,63.734L251.896,63.737L251.86,63.739L251.824,63.742L251.788,63.744L251.777,63.745L251.752,63.748L251.716,63.752L251.68,63.756L251.644,63.761L251.609,63.765L251.573,63.77L251.537,63.775L251.502,63.781L251.466,63.786L251.43,63.792L251.395,63.798L251.394,63.798L251.36,63.805L251.325,63.813L251.29,63.82L251.255,63.828L251.22,63.836L251.185,63.845L251.15,63.853L251.115,63.862L251.08,63.871L251.046,63.881L251.032,63.885L251.012,63.891L250.978,63.902L250.944,63.914L250.91,63.926L250.876,63.938L250.843,63.95L250.809,63.962L250.776,63.975L250.742,63.988L250.724,63.995L250.71,64.002L250.677,64.017L250.645,64.033L250.613,64.048L250.581,64.064L250.549,64.08L250.518,64.097L250.486,64.113L250.455,64.13L250.451,64.132L250.424,64.148L250.394,64.167L250.363,64.186L250.333,64.205L250.303,64.224L250.273,64.243L250.243,64.263L250.214,64.283L250.184,64.303L250.181,64.305L250.156,64.324L250.127,64.345L250.099,64.367L250.071,64.388L250.042,64.41L250.015,64.432L249.987,64.455L249.959,64.477L249.932,64.5L249.925,64.505L249.905,64.523L249.879,64.547L249.852,64.571L249.826,64.595L249.8,64.62L249.774,64.644L249.749,64.669L249.723,64.694L249.698,64.719L249.693,64.724L249.673,64.745L249.649,64.771L249.625,64.797L249.601,64.824L249.577,64.851L249.554,64.877L249.531,64.904L249.507,64.932L249.485,64.959L249.462,64.986L249.439,65.014L249.417,65.042L249.395,65.07L249.373,65.098L249.351,65.127L249.33,65.155L249.319,65.17L249.309,65.184L249.288,65.214L249.268,65.243L249.248,65.273L249.228,65.303L249.208,65.333L249.188,65.363L249.169,65.393L249.15,65.424L249.131,65.454L249.112,65.485L249.094,65.516L249.083,65.534L249.076,65.546L249.075,65.548L249.005,65.86L249.118,66.111L249.122,66.114L249.388,66.183L249.688,66.065L249.69,66.064L249.7,66.056L249.715,66.044L249.74,66.026L249.764,66.008L249.789,65.99L249.813,65.972L249.838,65.955L249.862,65.937L249.887,65.92L249.911,65.904L249.936,65.887L249.96,65.871L249.985,65.855L249.997,65.847L250.009,65.839L250.034,65.823L250.058,65.807L250.082,65.792L250.106,65.776L250.13,65.761L250.155,65.747L250.179,65.732L250.203,65.718L250.228,65.703L250.252,65.689L250.277,65.676L250.301,65.662L250.326,65.649L250.35,65.636L250.375,65.623L250.394,65.613L250.399,65.61L250.423,65.597L250.447,65.584L250.471,65.572L250.495,65.559L250.52,65.547L250.544,65.535L250.568,65.523L250.592,65.511L250.611,65.503L250.617,65.5L250.64,65.488L250.664,65.476L250.688,65.465L250.712,65.453L250.737,65.442L250.761,65.431L250.785,65.42L250.809,65.41L250.831,65.4L250.833,65.399L250.857,65.388L250.881,65.377L250.905,65.366L250.929,65.355L250.953,65.345L250.977,65.335L251.002,65.324L251.026,65.314L251.047,65.306L251.05,65.304L251.074,65.294L251.098,65.283L251.122,65.272L251.146,65.262L251.17,65.251L251.194,65.241L251.219,65.231L251.243,65.221L251.254,65.217L251.267,65.211L251.291,65.199L251.315,65.188L251.339,65.177L251.363,65.165L251.387,65.155L251.412,65.144L251.436,65.133L251.461,65.123L251.475,65.117L251.485,65.112L251.51,65.1L251.534,65.088L251.559,65.077L251.584,65.065L251.609,65.054L251.634,65.043L251.659,65.032L251.684,65.021L251.71,65.011L251.735,65.001L251.736,65L251.761,64.989L251.787,64.978L251.813,64.966L251.839,64.956L251.865,64.945L251.892,64.934L251.918,64.923L251.945,64.913L251.972,64.903L251.999,64.893L252.018,64.885L252.026,64.882L252.053,64.872L252.081,64.861L252.108,64.851L252.136,64.841L252.164,64.831L252.192,64.821L252.22,64.811L252.249,64.802L252.277,64.792L252.306,64.783L252.307,64.783L252.335,64.773L252.364,64.763L252.393,64.753L252.423,64.744L252.452,64.735L252.482,64.725L252.512,64.716L252.542,64.707L252.572,64.699L252.603,64.69L252.633,64.681L252.664,64.673L252.695,64.665L252.726,64.657L252.757,64.649L252.789,64.641L252.802,64.638L252.82,64.633L252.852,64.625L252.884,64.617L252.916,64.609L252.949,64.601L252.981,64.594L253.002,64.589L253.015,64.586L253.017,64.586L253.298,64.426L253.412,64.173L253.412,64.169L253.286,63.923L252.997,63.783L252.995,63.783L252.981,63.781L252.959,63.778L252.922,63.773L252.885,63.768L252.848,63.763L252.811,63.759L252.774,63.755L252.753,63.753L252.737,63.751L252.7,63.748L252.664,63.745L252.627,63.742L252.59,63.74L252.553,63.738L252.517,63.735L252.48,63.733L252.443,63.732L252.406,63.73L252.37,63.729L252.333,63.728L252.297,63.727L252.26,63.726L252.223,63.726L252.187,63.726L252.151,63.726Z"/>
            </g>
            <g transform="matrix(4.68036,1.02933,-1.06445,4.71668,-793.434,-381.278)">
                <path d="M251.353,63.811L251.381,63.805L251.388,63.804L251.423,63.798L251.459,63.792L251.494,63.786L251.53,63.781L251.566,63.776L251.601,63.771L251.637,63.766L251.673,63.762L251.709,63.757L251.745,63.753L251.766,63.751L251.781,63.75L251.817,63.747L251.853,63.744L251.889,63.742L251.925,63.74L251.962,63.738L251.998,63.736L252.034,63.734L252.07,63.733L252.107,63.732L252.14,63.731L252.143,63.731L252.18,63.731L252.216,63.731L252.253,63.731L252.29,63.732L252.326,63.733L252.363,63.734L252.4,63.735L252.436,63.736L252.473,63.738L252.51,63.74L252.547,63.742L252.584,63.744L252.62,63.747L252.657,63.749L252.694,63.752L252.731,63.755L252.746,63.757L252.768,63.759L252.805,63.763L252.842,63.767L252.879,63.772L252.916,63.776L252.953,63.781L252.976,63.784L252.991,63.787L253.281,63.924L253.409,64.169L253.409,64.173L253.3,64.424L253.022,64.582L253.02,64.583L253.008,64.586L252.987,64.59L252.954,64.598L252.922,64.605L252.89,64.613L252.858,64.621L252.827,64.629L252.807,64.634L252.795,64.637L252.764,64.645L252.732,64.652L252.701,64.661L252.671,64.669L252.64,64.677L252.609,64.685L252.579,64.694L252.549,64.703L252.519,64.712L252.489,64.721L252.459,64.73L252.43,64.739L252.4,64.749L252.371,64.758L252.342,64.768L252.313,64.778L252.311,64.778L252.285,64.787L252.256,64.796L252.228,64.806L252.199,64.816L252.171,64.826L252.143,64.836L252.116,64.846L252.088,64.856L252.061,64.866L252.033,64.877L252.022,64.881L252.006,64.887L251.979,64.897L251.952,64.908L251.926,64.918L251.899,64.928L251.873,64.939L251.846,64.95L251.82,64.961L251.794,64.972L251.769,64.983L251.743,64.995L251.738,64.997L251.717,65.005L251.692,65.016L251.666,65.027L251.641,65.038L251.616,65.049L251.591,65.06L251.566,65.071L251.541,65.083L251.517,65.094L251.492,65.106L251.479,65.113L251.468,65.117L251.443,65.128L251.418,65.138L251.394,65.149L251.37,65.16L251.345,65.171L251.321,65.183L251.297,65.194L251.274,65.205L251.256,65.214L251.25,65.217L251.225,65.226L251.201,65.237L251.176,65.247L251.152,65.257L251.128,65.268L251.104,65.278L251.08,65.289L251.056,65.3L251.049,65.303L251.032,65.31L251.007,65.32L250.983,65.331L250.959,65.341L250.934,65.351L250.91,65.362L250.886,65.373L250.862,65.384L250.838,65.395L250.832,65.398L250.814,65.406L250.79,65.417L250.765,65.428L250.741,65.439L250.717,65.45L250.693,65.461L250.669,65.473L250.644,65.485L250.62,65.497L250.612,65.501L250.596,65.509L250.572,65.52L250.547,65.532L250.523,65.545L250.499,65.557L250.474,65.569L250.45,65.582L250.426,65.595L250.402,65.608L250.395,65.612L250.377,65.621L250.353,65.634L250.328,65.647L250.304,65.661L250.279,65.674L250.254,65.688L250.23,65.702L250.205,65.716L250.181,65.731L250.157,65.745L250.132,65.76L250.108,65.775L250.084,65.791L250.059,65.806L250.035,65.822L250.011,65.838L249.997,65.847L249.986,65.854L249.962,65.87L249.937,65.887L249.912,65.903L249.887,65.92L249.863,65.937L249.838,65.954L249.814,65.972L249.789,65.989L249.765,66.007L249.74,66.026L249.716,66.044L249.7,66.056L249.69,66.064L249.689,66.065L249.391,66.18L249.125,66.109L249.122,66.107L249.007,65.857L249.075,65.548L249.076,65.546L249.083,65.534L249.093,65.516L249.112,65.485L249.131,65.455L249.149,65.424L249.168,65.394L249.188,65.363L249.207,65.333L249.227,65.303L249.247,65.273L249.267,65.244L249.287,65.214L249.307,65.185L249.317,65.172L249.328,65.156L249.35,65.128L249.372,65.099L249.393,65.071L249.415,65.043L249.438,65.015L249.46,64.988L249.483,64.96L249.505,64.933L249.528,64.906L249.552,64.879L249.575,64.852L249.599,64.826L249.622,64.799L249.646,64.773L249.67,64.747L249.688,64.729L249.695,64.721L249.72,64.696L249.745,64.671L249.771,64.647L249.797,64.622L249.823,64.598L249.849,64.574L249.875,64.55L249.901,64.526L249.918,64.511L249.928,64.503L249.955,64.48L249.983,64.458L250.01,64.436L250.038,64.413L250.066,64.392L250.094,64.37L250.122,64.348L250.151,64.327L250.172,64.311L250.18,64.306L250.209,64.286L250.238,64.267L250.268,64.247L250.298,64.228L250.328,64.209L250.358,64.19L250.388,64.171L250.418,64.153L250.441,64.139L250.449,64.135L250.48,64.118L250.512,64.101L250.543,64.085L250.575,64.069L250.607,64.053L250.639,64.037L250.671,64.022L250.703,64.006L250.712,64.002L250.736,63.993L250.769,63.98L250.803,63.967L250.836,63.955L250.87,63.943L250.903,63.931L250.937,63.919L250.971,63.908L251.005,63.896L251.019,63.892L251.039,63.886L251.073,63.877L251.108,63.868L251.143,63.859L251.178,63.85L251.212,63.842L251.247,63.834L251.282,63.826L251.317,63.818L251.353,63.811Z"/>
            </g>
        </g>
    </g>
</svg>
